<svg width="20" height="20" viewBox="0 0 20 20" fill="none" xmlns="http://www.w3.org/2000/svg">
<g id="Group">
<path id="Vector" d="M15.1 0.100098H4.90001C2.24904 0.100098 0.100006 2.24913 0.100006 4.9001V15.1001C0.100006 17.7511 2.24904 19.9001 4.90001 19.9001H15.1C17.751 19.9001 19.9 17.7511 19.9 15.1001V4.9001C19.9 2.24913 17.751 0.100098 15.1 0.100098Z" fill="#E5E8EB"/>
<g id="Group_2">
<path id="Vector_2" d="M5.71358 7.93863H7.46619L7.87898 9.14943H9.15579L7.20279 3.85263L7.18898 3.81543H5.99019L4.01678 9.14943H5.29298L5.71298 7.93863H5.71358ZM6.08198 6.88743L6.59678 5.40303L7.10558 6.88743H6.08198Z" fill="#1E6EF4"/>
<path id="Vector_3" d="M15.3748 7.60203C15.3748 6.98103 14.998 6.51123 14.3944 6.35283C14.9218 6.15303 15.1648 5.66283 15.1648 5.24403C15.1648 4.33623 14.473 3.81543 13.2676 3.81543H11.1244V9.14943H13.4848C14.686 9.14943 15.3748 8.58543 15.3748 7.60203ZM13.2256 5.92863H12.3574V4.83123H13.2256C13.5418 4.83123 13.918 4.92483 13.918 5.36943C13.918 5.73543 13.6786 5.92863 13.2256 5.92863ZM12.3574 6.94503H13.4428C13.8784 6.94503 14.128 7.16163 14.128 7.53963C14.128 7.91163 13.8718 8.13363 13.4428 8.13363H12.3574V6.94503Z" fill="#1E6EF4"/>
<path id="Vector_4" d="M6.6916 11.6995C7.3456 11.6995 7.7416 12.0013 7.9036 12.6229L7.9144 12.6649H9.187L9.1756 12.5989C8.9686 11.3911 8.017 10.6411 6.6916 10.6411C5.35 10.6411 3.9964 11.5003 3.9964 13.4203C3.9964 15.3301 5.35 16.1845 6.6916 16.1845C8.0182 16.1845 8.9698 15.4345 9.1756 14.2273L9.187 14.1613H7.9144L7.9036 14.2033C7.7416 14.8249 7.3456 15.1273 6.6916 15.1273C6.1588 15.1273 5.2648 14.9053 5.2648 13.4197C5.2648 11.9227 6.1588 11.6983 6.6916 11.6983V11.6995Z" fill="#1E6EF4"/>
<path id="Vector_5" d="M13.1596 10.7461H11.041V16.0801H13.1596C14.9632 16.0801 15.7708 14.7445 15.7708 13.4203C15.7708 12.0895 14.9632 10.7461 13.1596 10.7461ZM12.2746 11.7895H13.0966C13.6216 11.7895 14.5024 12.0013 14.5024 13.4197C14.5024 14.8255 13.6216 15.0355 13.0966 15.0355H12.2746V11.7895Z" fill="#1E6EF4"/>
</g>
</g>
</svg>
