<svg xmlns="http://www.w3.org/2000/svg" viewBox="0 0 244.41 52.72"><defs><style>.cls-1{fill:#262161;}</style></defs><g id="레이어_2" data-name="레이어 2"><g id="Layer_1" data-name="Layer 1"><path class="cls-1" d="M84.11,24.58H64.65V20.94h3.94c0-1.89,0-4.4-.08-5.64a8.79,8.79,0,0,0-1.08-3.71l3.4-1.42a10.07,10.07,0,0,1,1.58,4.77c.15,1.52.11,4.11.08,6H76V10h-11V6.35H83.39V10h-3.5V20.94h4.22Zm7.26,10.07H87.5V1.8h3.87Z"/><path class="cls-1" d="M145.25,30.61H114V27h31.23Zm-7.11-7.51H120.41V5.52h17.48V9.13H124.24v3.21h13.4V16h-13.4v3.43h13.9Z"/><path class="cls-1" d="M182.09,18.59l-2.71,2.7-6.68-6.53a16.9,16.9,0,0,1-7.26,6.72l-2.56-2.89A12.56,12.56,0,0,0,170.75,7V3.65h4V7a16.62,16.62,0,0,1-.47,3.94Zm9.64,17h-18V23.82h3.9v8.06h14.08Zm-.4-10.37h-3.86V12.67h-7.58V9.09h7.58V1.8h3.86Z"/><path class="cls-1" d="M230.23,24.84h-13.4V6.13h3.86v6.76h5.68V6.13h3.86Zm-3.86-3.65V16.46h-5.68v4.73Zm18,13.46h-3.82V16.82h-3.32V32.41h-3.79V2.52h3.79V13.17h3.32V1.8h3.82Z"/><rect class="cls-1" x="101.97" y="2.7" width="3.72" height="30.99"/><rect class="cls-1" x="151.52" y="2.7" width="3.72" height="30.99"/><rect class="cls-1" x="201.08" y="2.7" width="3.73" height="30.99"/><path class="cls-1" d="M129.68,45c0,1.88-1.57,2.47-3,2.47H126v-.81h.73c1,0,2-.37,2-1.66s-1.09-1.56-2.08-1.56h-1.19v7.44h-.92v-8.2h2.12C128.1,42.68,129.68,43.19,129.68,45Z"/><path class="cls-1" d="M135.54,50.88H131V42.67h4.44v.77h-3.51v2.75h3.36V47h-3.36v3.15h3.62Z"/><path class="cls-1" d="M141.61,50.88h-4.54V42.67h4.44v.77H138v2.75h3.36V47H138v3.15h3.61Z"/><path class="cls-1" d="M148,43.49h-2.44v7.45h-.93V43.49h-2.44v-.78H148Z"/><path class="cls-1" d="M157.3,44.74a2.45,2.45,0,0,1-2.54,2.34,2.35,2.35,0,1,1,2.54-2.34Zm-.88,0a1.63,1.63,0,0,0-1.66-1.58,1.57,1.57,0,1,0,1.66,1.58Zm3.63,8h-.86v-3h-4.57v-.8h5.43Zm2-6.26h-1.92v1.85h-.85V41.74h.85v1.71h1.92v.8h-1.92v1.41h1.92Z"/><path class="cls-1" d="M167.76,48.84h-4.44V43.25h3.93V44h-3.07v4h3.58Zm4.1,3.31H171V46.28h-1.66v5.14h-.85V42h.85v3.51H171V41.73h.86Z"/><path class="cls-1" d="M181.82,44.62A2.45,2.45,0,0,1,179.29,47a2.36,2.36,0,1,1,2.53-2.35Zm-.88,0a1.61,1.61,0,0,0-1.65-1.57,1.57,1.57,0,0,0-1.6,1.56,1.55,1.55,0,0,0,1.6,1.57A1.57,1.57,0,0,0,180.94,44.62Zm3.86,8h-5.27V48.26h.9V49.7h3.49V48.26h.88Zm-.88-.79V50.49h-3.49v1.29Zm1.14-4.06h-.87v-6h.87Z"/><path class="cls-1" d="M192.28,48.29l-.59.6-2.39-2.37A5.88,5.88,0,0,1,186.92,49l-.55-.65a4.59,4.59,0,0,0,2.56-3.94V42.82h.92v1.3a5.57,5.57,0,0,1-.22,1.57ZM195,52.16h-.85V41.74H195Z"/><path class="cls-1" d="M205.9,47.27l-.6.58L203.25,46a7.2,7.2,0,0,1-2.52,1.85l-.57-.67a6.3,6.3,0,0,0,3.6-3.79h-3v-.79h4.07a5.73,5.73,0,0,1-1.09,2.74Zm2.79,5.19h-5.52V48.88h.88v2.77h4.64Zm-.13-3.29h-.87v-3.7h-2.3v-.8h2.3V41.73h.87Z"/><path class="cls-1" d="M219.91,47.89h-4.23v2.24h-.87V47.89h-4.68v-.76h9.78Zm-2.3-2h-5.25V42.17h5.25Zm.36,6.54H212.4V49.11h.85v2.52H218Zm-1.22-7.34V43h-3.52v2.11Z"/><path class="cls-1" d="M230.23,44.6h-2.42a1.72,1.72,0,0,0-1.58.66,1.31,1.31,0,0,0,.23,1.73,1.43,1.43,0,0,0,1.82-.1,1,1,0,0,0-.12-1.52l.62-.51a1.71,1.71,0,0,1,.27,2.42,2.41,2.41,0,0,1-3.06.39,2,2,0,0,1-.56-2.67,1.48,1.48,0,0,1,.42-.4h-1.59v-.77h6Zm-1.3-1.55a15.14,15.14,0,0,1-2.23,0,2.68,2.68,0,0,1-1.33-.4l.27-.66a3.59,3.59,0,0,0,1.14.27,14.08,14.08,0,0,0,2.15,0Zm3.36,9.63h-.87V49.83h-4.54V49h5.41Zm2-7.27h-1.88v3.11h-.86v-6.8h.86v2.89h1.88Z"/><path class="cls-1" d="M241.68,47.11a23,23,0,0,1-3.41.32v1.68h-.84V47.44h-2.65v-.75h2.51a20.41,20.41,0,0,0,4.39-.37Zm-1.3-3c0,1.27-1.15,1.94-2.5,1.94s-2.43-.67-2.43-1.94,1.07-2,2.43-2S240.38,42.82,240.38,44.15Zm-.89,0c0-.8-.73-1.19-1.61-1.19s-1.55.37-1.55,1.18.69,1.21,1.55,1.21S239.49,45,239.49,44.15Zm4,8.32H238V49.56h.87v2.11h4.66Zm-.1-2.76h-.85V48.62h-2.42v-.75h2.42V41.74h.85Z"/><path class="cls-1" d="M57.19,19.19a5.7,5.7,0,0,0,1.18-2.71,1.91,1.91,0,0,0-1.86.68,7.31,7.31,0,0,0-.85,1.33,29.79,29.79,0,0,0,.74-3.27A2.47,2.47,0,0,0,58,14.11a7,7,0,0,0,.71-2.75s-.73-.14-1.48,1a7.74,7.74,0,0,0-.61,1.49c.16-1.15.26-2.29.31-3.42h0a2.7,2.7,0,0,0-.42,1.23c-.09,1-.23,2-.41,3a8,8,0,0,0-.24-2,4,4,0,0,0-2-2.25,7,7,0,0,0,.4,3.52,4.67,4.67,0,0,0,1.65,1.91,26.74,26.74,0,0,1-1,3.56,8.13,8.13,0,0,0,0-2.19,4.52,4.52,0,0,0-1.8-2.68A7.07,7.07,0,0,0,53,18.11a5,5,0,0,0,1.48,2.29,24.71,24.71,0,0,1-1.57,3.18,7.11,7.11,0,0,0,.37-2,4.93,4.93,0,0,0-1.48-3.1l0,.08V3.47a.59.59,0,0,0-.51-.58c-.05,0-.76-.09-1.91-.17V.9a.6.6,0,0,0-.52-.58A54,54,0,0,0,43.19,0c-8.94,0-12.79,2.73-14,3.83C25.5.78,19.64.13,15.29.13A39.52,39.52,0,0,0,9.86.47.57.57,0,0,0,9.37,1V2.85C8.21,2.94,7.5,3,7.45,3a.58.58,0,0,0-.51.58V18.53l-.05-.08a4.88,4.88,0,0,0-1.48,3.1,7.11,7.11,0,0,0,.37,2A22.73,22.73,0,0,1,4.22,20.4a5.12,5.12,0,0,0,1.47-2.29,7.07,7.07,0,0,0-.14-3.67,4.52,4.52,0,0,0-1.8,2.68,8.49,8.49,0,0,0,0,2.18,26.56,26.56,0,0,1-1-3.55,4.67,4.67,0,0,0,1.64-1.91,7,7,0,0,0,.4-3.52,4,4,0,0,0-2,2.25,8.46,8.46,0,0,0-.23,2c-.19-1-.32-2-.41-3.07a2.29,2.29,0,0,0-.42-1.12h0a33.46,33.46,0,0,0,.32,3.42,8.38,8.38,0,0,0-.62-1.49c-.75-1.11-1.51-1-1.48-1a6.93,6.93,0,0,0,.71,2.75,2.49,2.49,0,0,0,1.62,1.11,25,25,0,0,0,.74,3.27,7.88,7.88,0,0,0-.86-1.33,1.91,1.91,0,0,0-1.86-.68,5.7,5.7,0,0,0,1.18,2.71,2.92,2.92,0,0,0,2,.78,24.61,24.61,0,0,0,1.4,3.2A7.14,7.14,0,0,0,3.7,21.94a2.44,2.44,0,0,0-2.35-.21,5,5,0,0,0,1.89,2.48,3.66,3.66,0,0,0,2.46.29,20.49,20.49,0,0,0,1.24,1.8v.51a3.93,3.93,0,0,0-.76-.39,3.18,3.18,0,0,0-2.74.41,5,5,0,0,0,2.66,2,4.25,4.25,0,0,0,.84.08v.29h0a.54.54,0,0,0,.11.35.57.57,0,0,0,.54.24s.93-.12,2.36-.21c.52.46,1,.9,1.59,1.3a7.43,7.43,0,0,0-1.88-.61,3.65,3.65,0,0,0-2.85,1.05,5.84,5.84,0,0,0,3.28,1.28,5.21,5.21,0,0,0,2.73-.83,24.56,24.56,0,0,0,2.91,1.6A7,7,0,0,0,14,33.18a3.62,3.62,0,0,0-2.63,1.5,7.31,7.31,0,0,0,3.58.54,5.26,5.26,0,0,0,2.47-1.16,26.34,26.34,0,0,0,3.08.95,7.29,7.29,0,0,0-1.74.09,3.29,3.29,0,0,0-2.22,1.66,8.84,8.84,0,0,0,3.58,0,4.49,4.49,0,0,0,2.2-1.36c2.35.33,4.32.72,5.87,1.09a19.55,19.55,0,0,0-3.65,1.22l1,.3a26.9,26.9,0,0,1,3.86-1.22A26.28,26.28,0,0,1,33.22,38c.34-.09.67-.19,1-.3a19.55,19.55,0,0,0-3.65-1.22c1.55-.37,3.52-.76,5.87-1.09a4.49,4.49,0,0,0,2.2,1.36,8.84,8.84,0,0,0,3.58,0A3.26,3.26,0,0,0,40,35.1,7.29,7.29,0,0,0,38.27,35a26.94,26.94,0,0,0,3.08-.95,5.17,5.17,0,0,0,2.47,1.16,7.26,7.26,0,0,0,3.59-.54,3.69,3.69,0,0,0-2.64-1.5,7,7,0,0,0-1.78.19,24.56,24.56,0,0,0,2.91-1.6,5.21,5.21,0,0,0,2.73.83,5.87,5.87,0,0,0,3.28-1.28,3.65,3.65,0,0,0-2.85-1.05,7.37,7.37,0,0,0-1.87.61c.59-.44,1.15-.92,1.71-1.43,1.36.09,2.21.2,2.23.2a.58.58,0,0,0,.45-.15.57.57,0,0,0,.2-.44v-.15a4.25,4.25,0,0,0,.84-.08,5.07,5.07,0,0,0,2.66-2,3.18,3.18,0,0,0-2.74-.41,3.93,3.93,0,0,0-.76.39V26.3A21.27,21.27,0,0,0,53,24.5a3.64,3.64,0,0,0,2.45-.29,5,5,0,0,0,1.89-2.48,2.44,2.44,0,0,0-2.35.21,6.8,6.8,0,0,0-1.24,1.23,23.32,23.32,0,0,0,1.4-3.2A2.91,2.91,0,0,0,57.19,19.19ZM6.94,25.32c-.14-.19-.29-.37-.42-.57a3.53,3.53,0,0,0,.42-.59ZM10.53,4V1.56a41.1,41.1,0,0,1,4.76-.27c4.31,0,10.16.66,13.57,3.77A.59.59,0,0,0,29.72,5S32.8,1.16,43.19,1.16a49.15,49.15,0,0,1,5,.27V25.84a45.08,45.08,0,0,0-4.57-.23c-4.58,0-10.71.68-14.35,3.84-1.2-1.07-5.07-3.72-13.65-3.72a47.88,47.88,0,0,0-5.09.28Zm.33,25.59.67,0a7.24,7.24,0,0,0,.87,1.23C11.87,30.36,11.36,30,10.86,29.54Zm2.92,2.08A5,5,0,0,0,14,29.47h.87a3.81,3.81,0,0,0,.53,2.31,6,6,0,0,0,1.49,1.42A23.54,23.54,0,0,1,13.78,31.62Zm27-.62a5,5,0,0,0-.41,2.76,25.87,25.87,0,0,1-3.18.89,6.34,6.34,0,0,0,1.64-1,4.48,4.48,0,0,0,1-3.42,7.57,7.57,0,0,0-3.34,2.26,5,5,0,0,0-.91,2.47c-1.48.22-2.84.48-4,.73-.82.17-1.55.35-2.21.51-.66-.16-1.39-.34-2.21-.51-1.19-.25-2.55-.51-4-.73a5.1,5.1,0,0,0-.91-2.47,7.72,7.72,0,0,0-3.34-2.27,4.5,4.5,0,0,0,1,3.43,6.34,6.34,0,0,0,1.64,1,25.87,25.87,0,0,1-3.18-.89A5,5,0,0,0,17.92,31a4.62,4.62,0,0,0-1-1.44c4.35.28,9.14,1.19,11.92,3.66a.55.55,0,0,0,.38.15.6.6,0,0,0,.24,0l.31-.14a.4.4,0,0,0,.15-.1c2.82-2.5,7.69-3.4,12.08-3.66A4.89,4.89,0,0,0,40.8,31Zm1,2.21a6,6,0,0,0,1.49-1.42,3.91,3.91,0,0,0,.52-2.45h.89a5,5,0,0,0,.22,2.3A24.72,24.72,0,0,1,41.82,33.21Zm4.49-2.48a6.51,6.51,0,0,0,.94-1.36l.77,0A21.25,21.25,0,0,1,46.31,30.73Zm4.31-2.31c-1-.09-3-.26-5.57-.26-5.12,0-12,.69-15.77,3.92C25.45,29,18.71,28.3,13.67,28.3c-2.52,0-4.57.17-5.57.26V4.13L9.37,4V26.66a.57.57,0,0,0,.19.43.54.54,0,0,0,.45.15,48.51,48.51,0,0,1,5.61-.35c9.88,0,13.14,3.68,13.19,3.73a.56.56,0,0,0,.42.21h0a.59.59,0,0,0,.4-.16c3.3-3.22,9.41-3.89,14-3.89a44.4,44.4,0,0,1,5.07.28.57.57,0,0,0,.47-.13.64.64,0,0,0,.2-.44V3.88L50.62,4Zm1.16-3.08V24.16a4.23,4.23,0,0,0,.42.59C52.07,25,51.92,25.15,51.78,25.34Z"/><path class="cls-1" d="M19.32,14.69a2,2,0,0,0,2.73-3,2,2,0,0,0-1.45-.6,2.07,2.07,0,0,0-2.05,2V17h.77Zm.37-2.49a1.28,1.28,0,0,1,1.82,0,1.27,1.27,0,0,1,.38.91,1.29,1.29,0,1,1-2.2-.91Z"/><path class="cls-1" d="M27,15.11a2.31,2.31,0,0,0,1-.25,1.9,1.9,0,0,0,.8-.66l-.63-.42a1.27,1.27,0,0,1-.53.41,1.64,1.64,0,0,1-.68.15,1.27,1.27,0,0,1-.77-.25,1.39,1.39,0,0,1-.46-.64H29a2.45,2.45,0,0,0,0-.38,2.05,2.05,0,1,0-2.05,2ZM26.22,12a1.28,1.28,0,0,1,.77-.26,1.23,1.23,0,0,1,.76.26,1.3,1.3,0,0,1,.46.65H25.76A1.37,1.37,0,0,1,26.22,12Z"/><path class="cls-1" d="M33.38,15.11a2.31,2.31,0,0,0,1-.25,1.93,1.93,0,0,0,.79-.66l-.63-.42a1.24,1.24,0,0,1-.52.41,1.71,1.71,0,0,1-.68.15,1.23,1.23,0,0,1-.77-.25,1.39,1.39,0,0,1-.46-.64h3.24a2.43,2.43,0,0,0,0-.38,2,2,0,0,0-.6-1.45,2,2,0,0,0-1.44-.6,2,2,0,0,0-1.46.6,2.05,2.05,0,0,0,0,2.9A2,2,0,0,0,33.38,15.11ZM32.61,12a1.23,1.23,0,0,1,.77-.26,1.25,1.25,0,0,1,.76.26,1.28,1.28,0,0,1,.45.65H32.15A1.37,1.37,0,0,1,32.61,12Z"/><path class="cls-1" d="M38.07,14.75a1.16,1.16,0,0,0,.86.36h1.23v-.77H38.93a.41.41,0,0,1-.32-.13.43.43,0,0,1-.14-.32V11.77h1.36V11H38.47V9.61h-.76v4.28A1.16,1.16,0,0,0,38.07,14.75Z"/><path class="cls-1" d="M29,21.94h.35c3.5,0,6.24-1.48,6.24-3.37a.58.58,0,0,0-1.16,0c0,1-2.09,2.21-5.08,2.21H29c-2.81-.09-4.73-1.2-4.73-2.2a.58.58,0,1,0-1.16,0C23.12,20.41,25.68,21.85,29,21.94Z"/></g></g></svg>