<svg viewBox="0 0 708 236" fill="none" xmlns="http://www.w3.org/2000/svg">
<mask id="mask0_2700_5716" style="mask-type:luminance" maskUnits="userSpaceOnUse" x="0" y="0" width="209" height="236">
<path d="M0 235.049H208.797V-6.73702e-05H0V235.049Z" fill="white"/>
</mask>
<g mask="url(#mask0_2700_5716)">
<path d="M72.5771 203.615H134.083V155.715H72.5771V203.615Z" fill="white"/>
<path d="M75.489 200.702H131.171V158.623H75.489V200.702ZM134.083 206.529H72.5772C70.9704 206.529 69.665 205.224 69.665 203.615V155.714C69.665 154.105 70.9704 152.802 72.5772 152.802H134.083C135.693 152.802 136.996 154.105 136.996 155.714V203.615C136.996 205.224 135.693 206.529 134.083 206.529Z" fill="#323235"/>
<path d="M140.851 163.932H126.779V189.995H80.617V163.932H66.5422L57.1396 227.772C57.1396 230.179 59.0947 232.137 61.5051 232.137H145.888C148.301 232.137 150.256 230.179 150.256 227.772L140.851 163.932Z" fill="#D11388"/>
<path d="M60.0601 227.925C60.1367 228.654 60.7565 229.225 61.505 229.225H145.888C146.639 229.225 147.259 228.654 147.336 227.925L138.336 166.841H129.688V189.995C129.688 191.599 128.386 192.904 126.779 192.904H80.6169C79.0099 192.904 77.7049 191.599 77.7049 189.995V166.841H69.0565L60.0601 227.925ZM145.888 235.049H61.505C57.4907 235.049 54.2275 231.783 54.2275 227.772C54.2275 227.629 54.2355 227.486 54.2578 227.344L63.663 163.507C63.8741 162.078 65.0997 161.017 66.5421 161.017H80.6169C82.2237 161.017 83.529 162.322 83.529 163.932V187.08H123.87V163.932C123.87 162.322 125.172 161.017 126.779 161.017H140.851C142.293 161.017 143.519 162.078 143.733 163.507L153.138 227.344C153.157 227.486 153.168 227.629 153.168 227.772C153.168 231.783 149.902 235.049 145.888 235.049Z" fill="#323235"/>
<path d="M85.4375 92.571L21.1153 95.9739C21.1153 95.9739 21.1727 143.548 4.40527 170.094C4.40527 170.094 37.071 166.946 87.3761 166.074C86.5178 143.998 85.4346 114.647 85.4375 92.571Z" fill="#725A41"/>
<path d="M23.986 98.7376C23.7424 108.735 21.9953 143.043 9.68917 166.718C20.8025 165.824 47.8581 163.927 84.3517 163.214C83.436 139.421 82.6132 115.089 82.5337 95.642L23.986 98.7376ZM4.40263 173C3.39903 173 2.45864 172.484 1.9237 171.618C1.3425 170.672 1.34797 169.474 1.94277 168.536C18.0742 142.999 18.2058 96.4427 18.2032 95.9765C18.2032 94.4272 19.4152 93.1467 20.9618 93.0645L85.284 89.6643C86.0846 89.6316 86.8608 89.9112 87.442 90.4596C88.0206 91.0108 88.3498 91.7729 88.3498 92.5737C88.3472 113.177 89.2792 140.022 90.2853 165.961C90.3158 166.743 90.0276 167.502 89.4904 168.073C88.9556 168.643 88.2097 168.969 87.4254 168.986C37.8112 169.844 5.00849 172.956 4.68223 172.992C4.58903 173 4.49583 173 4.40263 173Z" fill="#323235"/>
<path d="M121.945 90.9882L186.267 94.3881C186.267 94.3881 186.207 141.962 202.977 168.508C202.977 168.508 170.311 166.819 120.009 165.944C120.864 143.868 121.947 113.061 121.945 90.9882Z" fill="#725A41"/>
<path d="M123.03 163.085C159.729 163.757 186.856 164.859 197.805 165.35C185.397 141.67 183.642 107.181 183.396 97.153L124.851 94.0573C124.763 115.124 123.809 142.767 123.03 163.085ZM202.976 171.418H202.825C202.502 171.399 169.625 169.718 119.959 168.854C119.172 168.844 118.429 168.511 117.891 167.947C117.354 167.374 117.069 166.617 117.099 165.83C117.93 144.382 119.035 113.29 119.032 90.9892C119.032 90.1884 119.361 89.426 119.942 88.8776C120.521 88.3266 121.302 88.0441 122.098 88.0826L186.42 91.4824C187.966 91.5649 189.181 92.8426 189.178 94.392C189.176 94.858 189.321 141.179 205.302 166.737C205.68 167.228 205.902 167.843 205.902 168.509C205.902 170.118 204.6 171.418 202.993 171.418H202.976Z" fill="#323235"/>
<path d="M19.217 97.0067C8.98645 85.4931 -0.103425 104.52 3.88084 113.56C8.68204 124.452 19.5678 129.96 30.4427 132.691C30.4427 132.691 37.7364 117.871 19.217 97.0067Z" fill="#F9F4EF"/>
<path d="M12.7351 96.3239C10.7966 96.3239 9.21988 98.2929 8.45481 99.469C5.95401 103.305 5.09588 109.099 6.54374 112.384C9.99588 120.218 17.3884 125.85 28.532 129.151C29.5439 124.583 29.988 113.528 17.0401 98.9371C15.9789 97.7443 14.3695 96.3239 12.7351 96.3239ZM30.4457 135.604C30.2101 135.604 29.9716 135.573 29.7356 135.516C15.2907 131.888 5.69375 124.896 1.21588 114.734C-1.34225 108.926 0.467357 101.06 3.57682 96.2885C6.01176 92.5537 9.26375 90.4998 12.7351 90.4998C15.7843 90.4998 18.6963 92.0382 21.3946 95.0737C40.9863 117.147 33.3908 133.3 33.0562 133.975C32.5599 134.989 31.5344 135.604 30.4457 135.604Z" fill="#323235"/>
<path d="M188.181 91.8661C198.406 80.3494 207.501 99.379 203.517 108.42C198.715 119.308 187.827 124.82 176.952 127.551C176.952 127.551 169.658 112.73 188.181 91.8661Z" fill="#F9F4EF"/>
<path d="M194.662 91.1806C193.025 91.1806 191.416 92.6038 190.355 93.7993C177.423 108.368 177.873 119.462 178.866 124.008C190.009 120.707 197.402 115.077 200.851 107.243C202.299 103.958 201.443 98.1646 198.94 94.3286C198.175 93.1522 196.598 91.1806 194.662 91.1806ZM176.952 130.463C175.863 130.463 174.838 129.849 174.339 128.834C174.004 128.159 166.409 112.006 186.003 89.9329C188.699 86.8977 191.613 85.3566 194.662 85.3566C198.134 85.3566 201.383 87.413 203.818 91.145C206.928 95.916 208.737 103.786 206.179 109.593C201.701 119.753 192.107 126.745 177.662 130.375C177.421 130.436 177.185 130.463 176.952 130.463Z" fill="#323235"/>
<path d="M187.994 91.9994C187.994 138.66 150.165 176.492 103.501 176.492C56.8348 176.492 19.0059 138.66 19.0059 91.9994C19.0059 45.333 56.8348 7.5039 103.501 7.5039C150.165 7.5039 187.994 45.333 187.994 91.9994Z" fill="#F9F4EF"/>
<path d="M103.502 10.416C58.5165 10.416 21.9186 47.0138 21.9186 91.9995C21.9186 136.982 58.5165 173.58 103.502 173.58C148.485 173.58 185.085 136.982 185.085 91.9995C185.085 47.0138 148.485 10.416 103.502 10.416ZM103.502 179.404C55.3055 179.404 16.0947 140.193 16.0947 91.9995C16.0947 43.8031 55.3055 4.59191 103.502 4.59191C151.696 4.59191 190.907 43.8031 190.907 91.9995C190.907 140.193 151.696 179.404 103.502 179.404Z" fill="#323235"/>
<path d="M121.541 43.1172C121.541 43.1172 126.436 91.4919 190.316 89.9236C190.316 89.9236 190.201 8.79524 126.287 17.0106L121.541 43.1172Z" fill="#725A41"/>
<path d="M124.486 43.1931C124.783 45.2112 126.565 55.1976 134.037 65.0115C145.172 79.6347 163.094 87.0464 187.303 87.0488C186.982 81.2497 185.702 67.5616 180.599 54.0679C171.879 31.024 156.568 19.3376 135.092 19.3376C133.047 19.3376 130.927 19.4472 128.764 19.6584L124.486 43.1931ZM187.314 92.873H187.306C154.586 92.8704 137.657 79.5029 129.217 68.288C120.02 56.0696 118.698 43.9225 118.646 43.4124C118.619 43.1411 118.627 42.8667 118.679 42.598L123.42 16.4912C123.648 15.2435 124.66 14.2866 125.915 14.1221C129.055 13.7192 132.14 13.5163 135.093 13.5163C158.946 13.5163 176.582 26.8752 186.097 52.1513C193.122 70.8025 193.229 89.1494 193.229 89.9198C193.232 91.5021 191.971 92.7964 190.388 92.8348C189.349 92.8593 188.326 92.873 187.314 92.873Z" fill="#323235"/>
<path d="M14.9913 94.3465C34.2349 99.5893 55.2443 93.2361 72.2859 84.4809C88.9957 75.8954 107.48 65.9037 120.587 52.2209C127.713 44.7818 135.01 34.1729 137.977 24.1892C142.904 7.5973 116.452 4.86904 106.811 3.63224C74.3014 -0.549361 38.9347 13.4789 24.2347 44.5598C19.5732 54.4173 15.8057 64.8205 14.3964 75.7117C14.0617 78.2784 11.5939 93.42 14.9913 94.3465Z" fill="#725A41"/>
<path d="M16.4318 91.7154C20.6188 92.7903 25.0883 93.336 29.7278 93.336H29.7304C42.1244 93.336 56.3802 89.3792 70.954 81.8907C88.0724 73.097 105.843 63.4094 118.484 50.2094C124.602 43.826 132.197 33.4201 135.186 23.3622C136.011 20.5875 135.784 18.2787 134.492 16.3015C130.056 9.50139 114.251 7.5051 107.5 6.65524L106.439 6.52084C102.841 6.05737 99.1584 5.82166 95.5006 5.82166C64.8283 5.82166 38.5296 21.1441 26.8678 45.8058C21.6194 56.8999 18.4883 66.804 17.2844 76.0859C17.2543 76.3135 17.2104 76.6344 17.1527 77.0347C15.705 87.2788 16.1027 90.6434 16.4318 91.7154ZM29.7304 99.1602H29.7251C24.3207 99.1602 19.1052 98.4854 14.2272 97.1555C10.1031 96.0315 9.36002 90.5529 11.3867 76.2177C11.4387 75.8474 11.4823 75.5483 11.5099 75.3372C12.7904 65.4415 16.0918 54.967 21.6032 43.3159C28.0304 29.7266 38.6887 18.5088 52.4291 10.8778C65.2398 3.76244 80.1344 0.000290741 95.5007 0.000290741C99.4055 0.000290741 103.338 0.249792 107.182 0.746059L108.229 0.877773C117.048 1.99111 133.456 4.06392 139.37 13.1209C141.616 16.5677 142.087 20.571 140.766 25.0212C137.98 34.4099 131.221 45.3314 122.691 54.2374C109.422 68.0875 91.1738 78.0519 73.6166 87.0706C58.0038 95.0908 43.2378 99.1602 29.7304 99.1602Z" fill="#323235"/>
<path d="M62.5964 130.962C62.5964 133.254 57.8362 135.113 51.9573 135.113C46.0784 135.113 41.3154 133.254 41.3154 130.962C41.3154 128.67 46.0784 126.811 51.9573 126.811C57.8362 126.811 62.5964 128.67 62.5964 130.962Z" fill="#EBA1A8"/>
<path d="M163.574 132.228C163.574 134.521 158.811 136.377 152.932 136.377C147.056 136.377 142.293 134.521 142.293 132.228C142.293 129.934 147.056 128.077 152.932 128.077C158.811 128.077 163.574 129.934 163.574 132.228Z" fill="#EBA1A8"/>
<path d="M64.6186 133.645C64.6186 133.645 43.1435 126.356 19.25 101.113C19.25 101.113 19.7234 116.934 30.443 132.693C30.443 132.693 37.1533 139.392 50.5371 150.951L64.8934 161.9C64.8934 161.9 54.3091 144.555 64.6186 133.645Z" stroke="#323235" stroke-width="3.52573" stroke-miterlimit="10"/>
<path d="M66.6218 171.072L43.8109 181.662L27.707 146.986L50.5208 136.394L66.6218 171.072Z" fill="white"/>
<path d="M31.5751 148.401L45.2223 177.798L62.7548 169.657L49.105 140.26L31.5751 148.401ZM43.8102 184.576C43.4702 184.576 43.1328 184.513 42.8094 184.395C42.0826 184.132 41.4932 183.589 41.1668 182.89L25.0684 148.211C24.3911 146.753 25.0246 145.022 26.4834 144.345L49.2943 133.753C49.9934 133.429 50.7967 133.393 51.5207 133.659C52.2446 133.923 52.8369 134.466 53.1604 135.168L69.2615 169.846C69.9388 171.302 69.3055 173.032 67.8467 173.709L45.0356 184.302C44.6466 184.483 44.227 184.576 43.8102 184.576Z" fill="#323235"/>
<path d="M51.4222 167.417C61.1508 165.555 70.4106 171.217 72.0997 180.06C73.7914 188.906 67.2792 197.582 57.5478 199.443C47.8218 201.303 38.5648 195.643 36.8701 186.8C35.1812 177.957 41.6936 169.276 51.4222 167.417Z" fill="#F9F4EF"/>
<path d="M55.1381 169.977C54.0851 169.977 53.0211 170.073 51.9711 170.276C47.9787 171.041 44.5073 173.158 42.193 176.237C39.9447 179.234 39.0698 182.794 39.7335 186.251C40.9098 192.416 46.8434 196.885 53.8385 196.885C54.8886 196.885 55.9553 196.786 57.0027 196.583C60.9951 195.821 64.4666 193.704 66.7807 190.622C69.0292 187.628 69.9039 184.072 69.2403 180.608C68.064 174.447 62.1303 169.977 55.1381 169.977ZM53.8385 202.709C44.0522 202.709 35.7165 196.246 34.0135 187.348C33.0374 182.254 34.2904 177.066 37.537 172.741C40.7206 168.502 45.4587 165.596 50.877 164.559C52.2835 164.29 53.7178 164.15 55.1381 164.15C64.9218 164.15 73.2602 170.614 74.9602 179.517C75.9335 184.606 74.6833 189.794 71.4367 194.118C68.2531 198.36 63.515 201.264 58.0969 202.3C56.6875 202.574 55.2561 202.709 53.8385 202.709Z" fill="#323235"/>
<path d="M142.293 132.228C142.293 132.228 161.244 126.521 183.559 99.873C183.559 99.873 184.048 115.694 174.306 132.075C174.306 132.075 174.36 132.204 161.703 144.554L140.851 163.932C140.851 163.932 148.377 147.27 142.293 132.228Z" stroke="#323235" stroke-width="3.52573" stroke-miterlimit="10"/>
<path d="M163.936 176.443C163.099 178.872 160.454 180.161 158.024 179.322L154.967 178.263C152.543 177.424 151.257 174.779 152.093 172.349L194.493 49.7175C195.335 47.2908 197.978 46.0048 200.405 46.844L203.465 47.8996C205.892 48.7386 207.178 51.3873 206.339 53.8141L163.936 176.443Z" fill="#BF197F"/>
<path d="M163.936 176.443C163.099 178.872 160.454 180.161 158.024 179.322L154.967 178.263C152.543 177.424 151.257 174.778 152.093 172.349L194.493 49.7175C195.335 47.2908 197.978 46.0047 200.405 46.844L203.465 47.8997C205.892 48.7385 207.178 51.3873 206.339 53.8141L163.936 176.443Z" stroke="#323235" stroke-width="4.40628"/>
<path d="M139.425 170.06C145.707 162.404 156.445 160.825 163.406 166.539C170.366 172.251 170.914 183.087 164.63 190.743C158.348 198.401 147.61 199.978 140.65 194.264C133.691 188.552 133.14 177.716 139.425 170.06Z" fill="#F9F4EF"/>
<path d="M153.623 166.016C149.167 166.016 144.703 168.221 141.673 171.906C136.419 178.311 136.789 187.33 142.495 192.016C144.708 193.828 147.45 194.788 150.431 194.788C154.887 194.788 159.353 192.589 162.381 188.901C164.958 185.753 166.271 181.909 166.077 178.059C165.888 174.316 164.281 171.026 161.558 168.791C159.345 166.976 156.6 166.016 153.623 166.016ZM150.431 200.609C146.087 200.609 142.065 199.194 138.802 196.513C130.614 189.795 129.885 177.097 137.173 168.212C141.355 163.115 147.351 160.195 153.623 160.195C157.966 160.195 161.986 161.612 165.251 164.291C169.26 167.579 171.618 172.361 171.89 177.766C172.161 183.063 170.379 188.328 166.88 192.592C162.699 197.686 156.705 200.609 150.431 200.609Z" fill="#323235"/>
<path d="M162.751 105.236C161.981 105.036 161.353 104.416 161.172 103.585C159.233 94.5202 149.738 95.9024 148.66 96.0889C147.475 96.2972 146.343 95.5048 146.132 94.3201C145.921 93.1356 146.705 92.0059 147.89 91.7919C152.96 90.8762 163.157 91.9702 165.444 102.672C165.696 103.852 164.948 105.011 163.769 105.264C163.418 105.338 163.075 105.327 162.751 105.236Z" fill="#323235"/>
<path d="M46.4183 105.941C47.1558 105.648 47.7096 104.962 47.7866 104.115C48.6475 94.8824 58.242 95.14 59.3331 95.1976C60.5314 95.2635 61.5652 94.3451 61.6364 93.1439C61.7051 91.943 60.792 90.9119 59.5908 90.8407C54.4468 90.528 44.4522 92.8122 43.4403 103.709C43.328 104.913 44.2108 105.977 45.4119 106.086C45.7656 106.119 46.1084 106.064 46.4183 105.941Z" fill="#323235"/>
<path fill-rule="evenodd" clip-rule="evenodd" d="M77.4385 113.734C77.4385 120.704 71.7872 126.355 64.817 126.355C57.8468 126.355 52.1982 120.704 52.1982 113.734C52.1982 106.764 57.8468 101.112 64.817 101.112C71.7872 101.112 77.4385 106.764 77.4385 113.734Z" fill="#231F20"/>
<path fill-rule="evenodd" clip-rule="evenodd" d="M74.077 111.249C74.077 114.389 71.5324 116.934 68.3899 116.934C65.2503 116.934 62.7031 114.389 62.7031 111.249C62.7031 108.107 65.2503 105.565 68.3899 105.565C71.5324 105.565 74.077 108.107 74.077 111.249Z" fill="white"/>
<path d="M104.074 152.412C103.731 152.412 103.383 152.404 103.038 152.393C88.368 151.905 78.3404 141.203 77.921 140.748C77.0159 139.766 77.079 138.241 78.0608 137.337C79.0395 136.432 80.5643 136.492 81.469 137.474C81.6088 137.622 90.6467 147.172 103.246 147.57C111.217 147.822 119.01 144.386 126.408 137.361C127.376 136.443 128.903 136.484 129.822 137.449C130.74 138.417 130.702 139.941 129.731 140.86C121.656 148.529 113.03 152.412 104.074 152.412Z" fill="#323235"/>
<path fill-rule="evenodd" clip-rule="evenodd" d="M157.426 113.869C157.426 120.839 151.774 126.49 144.805 126.49C137.834 126.49 132.186 120.839 132.186 113.869C132.186 106.898 137.834 101.247 144.805 101.247C151.774 101.247 157.426 106.898 157.426 113.869Z" fill="#231F20"/>
<path fill-rule="evenodd" clip-rule="evenodd" d="M148.378 111.38C148.378 114.52 145.833 117.064 142.691 117.064C139.551 117.064 137.007 114.52 137.007 111.38C137.007 108.24 139.551 105.696 142.691 105.696C145.833 105.696 148.378 108.24 148.378 111.38Z" fill="white"/>
<path d="M81.5965 216.783H90.6899V214.737H81.5965V216.783ZM78.9037 212.409H90.6899V201.041H93.3831V219.111H78.9037V212.409ZM77.625 201.136H85.9922V203.715L84.311 210.649H81.4253L83.1061 203.715H77.625V201.136Z" fill="white"/>
<path d="M99.9356 216.783H109.029V214.737H99.9356V216.783ZM103.491 205.301C103.491 204.82 103.341 204.422 103.041 204.118C102.74 203.81 102.348 203.658 101.864 203.658H100.643C100.159 203.658 99.7664 203.81 99.4665 204.118C99.1688 204.422 99.0187 204.82 99.0187 205.301V206.427C99.0187 206.913 99.1688 207.303 99.4665 207.603C99.7664 207.903 100.159 208.051 100.643 208.051H101.864C102.348 208.051 102.74 207.903 103.041 207.603C103.341 207.303 103.491 206.913 103.491 206.427V205.301ZM102.362 201.098C102.857 201.098 103.324 201.189 103.757 201.365C104.188 201.546 104.571 201.787 104.903 202.091C105.234 202.396 105.507 202.758 105.724 203.17C105.941 203.584 106.067 204.027 106.105 204.501H109.029V201.041H111.722V219.111H97.2425V212.409H109.029V206.849H106.124V206.868C106.124 207.389 106.026 207.88 105.829 208.339C105.631 208.796 105.364 209.194 105.026 209.532C104.688 209.87 104.291 210.137 103.833 210.335C103.374 210.532 102.883 210.63 102.362 210.63H100.147C99.6236 210.63 99.1332 210.532 98.6759 210.335C98.2164 210.137 97.8163 209.87 97.4805 209.532C97.1427 209.194 96.8759 208.796 96.6781 208.339C96.4805 207.88 96.3828 207.389 96.3828 206.868V204.844C96.3828 204.32 96.4805 203.832 96.6781 203.382C96.8759 202.929 97.1427 202.534 97.4805 202.196C97.8163 201.86 98.2164 201.594 98.6759 201.393C99.1332 201.198 99.6236 201.098 100.147 201.098H102.362Z" fill="white"/>
<path d="M126.833 219.111V201.041H129.545V207.058H131.492V209.637H129.545V219.111H126.833ZM117.911 216.437H121.444V203.715H117.911V216.437ZM114.97 201.136H124.387V219.035H114.97V201.136Z" fill="white"/>
<path d="M103.581 176.865C102.947 176.865 102.344 176.836 101.785 176.778C101.738 176.773 101.691 176.769 101.644 176.764C93.0269 175.789 76.1793 169.185 71.2214 167.184C68.5428 166.103 66.3206 164.248 64.8937 161.899C56.8486 148.659 63.7998 135.141 64.619 133.643C66.1501 130.844 68.7796 128.684 71.9762 127.601L99.0424 118.434C100.54 117.927 102.112 117.674 103.683 117.674C105.262 117.674 106.84 117.929 108.344 118.442L135.276 127.609C139.189 128.941 142.207 131.87 143.442 135.536C143.875 136.818 144.23 138.137 144.501 139.459C146.729 150.36 142.868 159.715 142.421 160.746C141.165 163.638 138.769 165.986 135.711 167.322C121.424 173.566 110.314 176.865 103.581 176.865Z" fill="white"/>
<path d="M103.581 176.865C102.947 176.865 102.344 176.836 101.785 176.778C101.738 176.774 101.691 176.769 101.644 176.764C93.0268 175.789 76.1793 169.185 71.2214 167.184C68.5428 166.103 66.3206 164.247 64.8937 161.899C56.8486 148.659 63.7999 135.141 64.6189 133.643C66.15 130.844 68.7795 128.684 71.9762 127.601L99.0424 118.434C100.54 117.927 102.112 117.674 103.683 117.674C105.262 117.674 106.84 117.93 108.344 118.442L135.276 127.609C139.189 128.941 142.207 131.87 143.442 135.536C143.875 136.817 144.23 138.137 144.5 139.459C146.729 150.36 142.868 159.715 142.421 160.746C141.165 163.638 138.769 165.986 135.711 167.322C121.424 173.566 110.314 176.865 103.581 176.865Z" stroke="#323235" stroke-width="3.52573" stroke-miterlimit="10"/>
</g>
<mask id="mask1_2700_5716" style="mask-type:luminance" maskUnits="userSpaceOnUse" x="238" y="79" width="470" height="157">
<path d="M238.023 235.049H707.16V79.5231H238.023V235.049Z" fill="white"/>
</mask>
<g mask="url(#mask1_2700_5716)">
<path d="M373.985 174.666H345.305V80.9596H373.985V174.666ZM276.971 210.257H345.305V194.993H276.971V210.257ZM373.985 235.039H248.292V170.211H373.985V235.039ZM238.023 81.1394H326.54L312.731 160.873H281.928L292.019 105.742H238.023V81.1394Z" fill="#231815"/>
<path d="M436.299 210.257H504.634V197.147H436.299V210.257ZM426.734 114.844C426.496 116.393 426.319 118.121 426.203 120.027C426.087 121.932 425.91 124.135 425.677 126.634C425.44 130.563 426.172 133.45 427.874 135.296C429.575 137.143 432.889 138.066 437.818 138.066C441.804 138.066 445.057 137.322 447.58 135.832C450.102 134.346 451.773 131.694 452.595 127.884C453.181 125.383 453.56 123.211 453.737 121.365C453.914 119.519 454.003 117.524 454.003 115.38C454.003 107.998 449.898 104.305 441.688 104.305C437.583 104.305 434.239 105.111 431.658 106.718C429.077 108.326 427.437 111.034 426.734 114.844ZM533.313 235.039H407.62V172.366H533.313V235.039ZM396.998 133.935C397.234 129.267 397.499 125.047 397.795 121.275C398.088 117.505 398.531 113.584 399.122 109.513C399.831 104.726 401.512 100.475 404.168 96.7627C406.823 93.0534 410.126 89.9103 414.082 87.3347C418.034 84.7616 422.549 82.8173 427.625 81.4988C432.698 80.1828 438.07 79.5233 443.735 79.5233C449.162 79.5233 454.207 80.1828 458.871 81.4988C463.532 82.8173 467.573 84.7313 470.998 87.2451C474.419 89.7593 477.105 92.8121 479.053 96.4037C481 99.9953 482.09 104.125 482.328 108.794H504.634V80.9596H533.313V174.666H504.634V133.935H480.026C480.026 134.295 479.996 134.626 479.938 134.924C479.877 135.224 479.85 135.493 479.85 135.731C479.141 140.401 477.488 144.441 474.893 147.853C472.295 151.265 469.02 154.048 465.068 156.204C461.112 158.359 456.597 159.947 451.524 160.962C446.448 161.981 441.079 162.489 435.414 162.489C429.75 162.489 424.527 161.891 419.747 160.693C414.967 159.498 410.865 157.702 407.443 155.306C404.018 152.913 401.363 149.919 399.476 146.327C397.588 142.735 396.76 138.605 396.998 133.935Z" fill="#231815"/>
<path d="M707.159 162.669H687.154V235.049H658.475V80.9599H687.154V137.886H707.159V162.669ZM587.839 209.957H613.331V105.742H587.839V209.957ZM642.011 234.738H559.159V81.1392H642.011V234.738Z" fill="#231815"/>
</g>
<path d="M370.017 39.2873C370.017 30.5015 370.017 21.842 370.017 13.125C379.792 13.125 389.418 13.125 399.142 13.125C399.142 16.0708 399.142 19.0248 399.142 22.0686C392.838 22.0686 386.54 22.0686 380.159 22.0686C380.159 31.6458 380.159 41.1347 380.159 50.7979C387.832 50.6308 395.561 51.5235 403.174 48.634C403.174 50.6828 403.174 52.6319 403.174 54.581C403.174 57.6937 403.213 57.8956 400.097 58.4894C396.685 59.1395 393.201 59.6164 389.734 59.7232C383.425 59.9176 377.105 59.7832 370.79 59.7832C370.583 59.7832 370.376 59.753 370.017 59.7252C370.017 52.9445 370.017 46.1791 370.017 39.2873Z" fill="black"/>
<path d="M260.228 62.1842C254.212 62.1842 248.322 62.1842 242.345 62.1842C242.345 55.1728 242.345 48.2483 242.345 41.2383C257.251 41.2383 272.175 41.2383 287.167 41.2383C287.167 43.9089 287.167 46.5399 287.167 49.3218C275.552 49.3218 263.956 49.3218 252.299 49.3218C252.299 50.9278 252.299 52.3841 252.299 53.9637C264.091 53.9637 275.862 53.9637 287.698 53.9637C287.698 56.723 287.698 59.3608 287.698 62.1842C278.593 62.1842 269.474 62.1842 260.228 62.1842Z" fill="black"/>
<path d="M440.698 59.7848C436.121 59.7848 431.671 59.7848 427.161 59.7848C427.161 44.0976 427.161 28.5368 427.161 12.8809C430.509 12.8809 433.852 12.8809 437.322 12.8809C437.322 25.4227 437.322 37.9841 437.322 50.7324C445.302 50.5175 453.25 51.578 460.924 48.3792C460.924 51.2693 460.968 54.0389 460.875 56.8038C460.862 57.1875 460.229 57.7881 459.795 57.8816C456.683 58.5525 453.571 59.3445 450.416 59.6539C447.245 59.9649 444.024 59.7623 440.698 59.7848Z" fill="black"/>
<path d="M304.461 51.1245C306.855 51.1245 309.123 51.1245 311.494 51.1245C311.494 44.5786 311.494 38.1147 311.494 31.5449C314.976 31.5449 318.356 31.5449 321.864 31.5449C321.864 38.0076 321.864 44.5086 321.864 51.1036C329.975 51.1036 337.961 51.1036 346.022 51.1036C346.022 54.2086 346.022 57.219 346.022 60.3081C329.139 60.3081 312.27 60.3081 295.309 60.3081C295.309 57.3034 295.309 54.2985 295.309 51.1245C298.309 51.1245 301.322 51.1245 304.461 51.1245Z" fill="black"/>
<path d="M271.422 25.3848C271.422 29.5847 271.422 33.6582 271.422 37.7862C261 37.7862 250.697 37.7862 240.32 37.7862C240.32 29.4143 240.32 21.0462 240.32 12.5859C250.6 12.5859 260.934 12.5859 271.422 12.5859C271.422 16.7918 271.422 21.0251 271.422 25.3848ZM250.081 22.747C250.081 25.0425 250.081 27.338 250.081 29.639C253.998 29.639 257.737 29.639 261.504 29.639C261.504 26.6343 261.504 23.6703 261.504 20.7105C257.676 20.7105 253.94 20.7105 250.081 20.7105C250.081 21.3444 250.081 21.9223 250.081 22.747Z" fill="black"/>
<path d="M303.449 13.0664C316.752 13.0664 329.928 13.0664 343.214 13.0664C343.214 24.0743 343.214 35.0328 343.214 46.0914C339.873 46.0914 336.492 46.0914 332.975 46.0914C332.975 38.2388 332.975 30.3512 332.975 22.3573C321.24 22.3573 309.64 22.3573 297.951 22.3573C297.951 19.2447 297.951 16.2376 297.951 13.0664C299.73 13.0664 301.527 13.0664 303.449 13.0664Z" fill="black"/>
<path d="M405.533 37.7709C405.533 29.1093 405.533 20.5741 405.533 11.9785C408.86 11.9785 412.083 11.9785 415.429 11.9785C415.429 18.0074 415.429 24.0455 415.429 30.1956C417.422 30.1956 419.296 30.1956 421.276 30.1956C421.276 33.4701 421.276 36.6332 421.276 39.908C419.372 39.908 417.492 39.908 415.491 39.908C415.491 47.3636 415.491 54.7102 415.491 62.1191C412.143 62.1191 408.919 62.1191 405.533 62.1191C405.533 54.025 405.533 45.9611 405.533 37.7709Z" fill="black"/>
<path d="M463.551 21.8459C463.551 18.487 463.551 15.2545 463.551 11.9688C466.905 11.9688 470.134 11.9688 473.441 11.9688C473.441 28.6524 473.441 45.3062 473.441 62.0723C470.219 62.0723 466.97 62.0723 463.551 62.0723C463.551 48.7126 463.551 35.3424 463.551 21.8459Z" fill="black"/>
<path d="M518.294 23.8094C522.159 23.8094 525.897 23.8094 529.708 23.8094C529.708 26.5618 529.708 29.2248 529.708 31.9451C514.704 31.9451 499.734 31.9451 484.674 31.9451C484.674 25.2413 484.674 18.5337 484.674 11.7246C487.891 11.7246 491.15 11.7246 494.517 11.7246C494.517 15.6385 494.517 19.6202 494.517 23.8094C502.471 23.8094 510.319 23.8094 518.294 23.8094Z" fill="black"/>
<path d="M492.003 46.584C492.884 46.584 493.639 46.584 494.538 46.584C494.538 48.993 494.538 51.3656 494.538 53.8545C506.406 53.8545 518.131 53.8545 529.929 53.8545C529.929 56.6453 529.929 59.3172 529.929 62.0859C514.801 62.0859 499.677 62.0859 484.5 62.0859C484.5 56.9547 484.5 51.8725 484.5 46.584C486.955 46.584 489.416 46.584 492.003 46.584Z" fill="black"/>
<path d="M508.184 35.5039C516.293 35.5039 524.276 35.5039 532.32 35.5039C532.32 38.314 532.32 40.9886 532.32 43.7414C515.4 43.7414 498.512 43.7414 481.563 43.7414C481.563 41.0245 481.563 38.3472 481.563 35.5039C490.422 35.5039 499.24 35.5039 508.184 35.5039Z" fill="black"/>
<path d="M284.739 39.3689C282.22 39.3689 279.827 39.3689 277.336 39.3689C277.336 30.2035 277.336 21.1131 277.336 11.9688C280.598 11.9688 283.827 11.9688 287.145 11.9688C287.145 21.0711 287.145 30.1643 287.145 39.3689C286.36 39.3689 285.612 39.3689 284.739 39.3689Z" fill="black"/>
</svg>
