<svg xmlns="http://www.w3.org/2000/svg" width="50" height="50" viewBox="0 0 50 50">
    <g clip-path="url(#clip0_742_9585)">
        <path d="M25.0001 0.000733752C28.2545 -0.0235663 31.4818 0.603859 34.4977 1.84709C37.5136 3.09032 40.259 4.92493 42.5771 7.24641C44.8952 9.56789 46.7406 12.3307 48.008 15.377C49.2755 18.4233 49.94 21.6933 49.9638 25.0006C49.94 28.3079 49.2755 31.5782 48.008 34.6245C46.7406 37.6707 44.8952 40.4336 42.5771 42.755C40.259 45.0765 37.5136 46.9111 34.4977 48.1544C31.4818 49.3976 28.2545 50.025 25.0001 50.0007C18.4239 50.0498 12.0976 47.4447 7.41015 42.7573C2.72274 38.0699 0.0575092 31.6833 0 25.0006C0.0237216 21.6902 0.689604 18.4172 1.95928 15.3684C3.22896 12.3197 5.07755 9.55532 7.39952 7.23335C9.72148 4.91139 12.4713 3.07734 15.4913 1.83629C18.5114 0.595241 21.7425 -0.028436 25.0001 0.000733752Z" fill="#1b49af"/>
        <path d="M19.848 38.1636L7.83789 26.1798L12.0469 21.9763L19.848 29.7565L37.8089 11.8362L41.9816 16.0397L19.848 38.1636Z" fill="white"/>
    </g>
    <defs>
        <clipPath id="clip0_742_9585">
            <rect width="50" height="50" fill="white"/>
        </clipPath>
    </defs>
</svg>