<svg width="263" height="235" viewBox="0 0 263 235" fill="none" xmlns="http://www.w3.org/2000/svg">
<g clip-path="url(#clip0_3206_4913)">
<path style="mix-blend-mode:multiply" d="M196.728 234.61C205.385 234.61 212.403 230.821 212.403 226.147C212.403 221.473 205.385 217.684 196.728 217.684C188.071 217.684 181.054 221.473 181.054 226.147C181.054 230.821 188.071 234.61 196.728 234.61Z" fill="url(#paint0_radial_3206_4913)"/>
<path d="M133.945 110.274L146.778 102.935L195.562 62.4441L182.73 69.7617L133.945 110.274Z" fill="#00719E"/>
<path d="M40.9365 114.495L53.7689 107.177L107.623 68.4041L94.7901 75.7429L40.9365 114.495Z" fill="#1F45CC"/>
<path d="M95.5752 55.0415L108.408 47.7026L147.117 81.8728L134.263 89.1905L95.5752 55.0415Z" fill="url(#paint1_linear_3206_4913)"/>
<path d="M161.985 48.7632L174.818 41.4243L225.384 25.5588L212.551 32.8977L161.985 48.7632Z" fill="#00E0DE"/>
<path d="M191.829 79.1155L204.661 71.7767L225.384 25.5588L212.552 32.8977L191.829 79.1155Z" fill="#00849E"/>
<path d="M161.985 48.7632L171.17 57.9898L171.488 58.308L134.263 89.1905L95.5752 55.0415L25.75 105.374L40.9368 114.495L94.7904 75.743L133.945 110.316L182.751 69.8253L182.941 70.0162L191.829 79.1155L212.551 32.8977L161.985 48.7632Z" fill="url(#paint2_linear_3206_4913)"/>
<path style="mix-blend-mode:color-dodge" d="M212.191 33.6824L224.641 26.0466L211.703 33.1522L161.985 48.7631L162.919 49.6964L212.191 33.6824Z" fill="url(#paint3_radial_3206_4913)"/>
<path style="mix-blend-mode:color-dodge" d="M95.5752 56.2717L134.263 90.4207L171.488 59.5381L171.17 59.1988L170.83 58.8594L134.263 89.1905L95.5752 55.0415L25.75 105.374L26.6833 105.926L95.5752 56.2717Z" fill="url(#paint4_radial_3206_4913)"/>
<path d="M204.109 218.914C206.421 223.22 204.809 228.565 200.525 230.877C196.219 233.189 190.874 231.577 188.562 227.292C186.25 222.987 187.862 217.642 192.147 215.33C196.452 213.018 201.797 214.63 204.109 218.914Z" fill="#35004D"/>
<path d="M169.069 150.489L149.938 160.797L185.55 226.295C185.55 226.295 185.571 226.338 185.592 226.38C187.247 229.456 192.868 229.647 198.149 226.804C203.431 223.962 206.379 219.147 204.703 216.072C204.703 216.051 204.682 216.03 204.661 215.987L169.048 150.489H169.069Z" fill="url(#paint5_linear_3206_4913)"/>
<path d="M169.09 150.531C170.745 153.607 167.818 158.4 162.536 161.264C157.255 164.106 151.634 163.915 149.98 160.84C148.325 157.764 151.252 152.971 156.534 150.107C161.815 147.265 167.436 147.456 169.09 150.531Z" fill="url(#paint6_linear_3206_4913)"/>
<path d="M157.828 139.162L146.459 145.292L153.246 157.679C153.246 157.679 153.246 157.701 153.268 157.722C154.243 159.546 157.595 159.652 160.734 157.976C163.873 156.279 165.633 153.437 164.636 151.592C164.636 151.592 164.636 151.571 164.615 151.549L157.828 139.162Z" fill="url(#paint7_linear_3206_4913)"/>
<mask id="mask0_3206_4913" style="mask-type:luminance" maskUnits="userSpaceOnUse" x="60" y="13" width="104" height="134">
<path d="M112.099 20.9347C83.6555 4.51777 60.5996 17.6683 60.5996 50.2901C60.5996 82.912 83.6555 122.703 112.099 139.12C140.542 155.537 163.598 142.386 163.598 109.765C163.598 77.1427 140.542 37.3517 112.099 20.9347Z" fill="white"/>
</mask>
<g mask="url(#mask0_3206_4913)">
<path d="M171.022 6.17212H52.3486V166.397H171.022V6.17212Z" fill="white"/>
<path d="M135.367 118.588L151.445 109.404L225.661 47.8511L209.604 57.014L135.367 118.588Z" fill="#006D9C"/>
<path d="M19.0059 123.87L35.0623 114.685L102.448 66.198L86.3918 75.3822L19.0059 123.87Z" fill="#1F45CC"/>
<path d="M87.3672 49.463L103.424 40.3L151.868 83.0393L135.791 92.2023L87.3672 49.463Z" fill="url(#paint8_linear_3206_4913)"/>
<path d="M183.642 30.7339L195.138 42.2725L195.541 42.6755L135.791 92.2021L87.3673 49.4629L0.000976562 112.437L19.0056 123.87L86.3916 75.3822L135.409 118.652L209.625 57.0775L209.858 57.332L220.994 68.7008L246.913 10.8809L183.642 30.7339Z" fill="url(#paint9_linear_3206_4913)"/>
<path style="mix-blend-mode:color-dodge" d="M87.3673 51.0113L135.791 93.7505L195.541 44.2027L195.138 43.7997L194.693 43.3542L135.791 92.2022L87.3673 49.4629L0.000976562 112.437L1.16756 113.137L87.3673 51.0113Z" fill="url(#paint10_radial_3206_4913)"/>
</g>
<path d="M119.692 138.144C89.6364 120.794 65.2655 78.7759 65.2655 44.2876C65.2655 30.4371 69.1894 19.9166 75.8495 13.3838C63.1868 17.4986 55.042 30.5643 55.042 50.4811C55.042 84.9694 79.4129 126.988 109.468 144.338C127.455 154.71 143.384 153.904 153.289 144.211C144.041 147.222 132.354 145.462 119.671 138.144H119.692Z" fill="url(#paint11_linear_3206_4913)"/>
<path style="mix-blend-mode:screen" opacity="0.5" d="M112.099 20.9347C83.6555 4.51777 60.5996 17.6683 60.5996 50.2901C60.5996 82.912 83.6555 122.703 112.099 139.12C140.542 155.537 163.598 142.386 163.598 109.765C163.598 77.1427 140.542 37.3517 112.099 20.9347Z" fill="url(#paint12_radial_3206_4913)"/>
<path style="mix-blend-mode:multiply" d="M112.099 20.9347C83.6555 4.51777 60.5996 17.6683 60.5996 50.2901C60.5996 82.912 83.6555 122.703 112.099 139.12C140.542 155.537 163.598 142.386 163.598 109.765C163.598 77.1427 140.542 37.3517 112.099 20.9347Z" fill="url(#paint13_radial_3206_4913)"/>
<path d="M121.029 12.8747C106.245 4.34806 92.8399 3.37238 83.0406 8.67502C82.7649 8.82349 68.7023 16.6714 68.2568 17.3501C78.2258 9.82039 93.0096 9.92644 109.49 19.45C139.546 36.8002 163.916 78.8183 163.916 113.307C163.916 130.911 157.575 143.129 147.372 148.601C148.115 148.389 148.963 148.028 150.024 147.435C150.321 147.265 159.908 141.453 160.183 141.283C169.643 135.514 175.455 123.573 175.455 106.731C175.455 72.2431 151.084 30.2249 121.029 12.8747Z" fill="url(#paint14_linear_3206_4913)"/>
<path d="M109.49 19.4502C79.4344 2.09995 55.0635 15.9929 55.0635 50.4812C55.0635 84.9696 79.4344 126.988 109.49 144.338C139.545 161.688 163.916 147.795 163.916 113.307C163.916 78.8185 139.545 36.8004 109.49 19.4502ZM109.108 140.202C81.3646 124.188 58.8602 85.3938 58.8602 53.5356C58.8602 21.6773 81.3434 8.86612 109.108 24.9013C136.873 40.9365 159.356 79.7094 159.356 111.568C159.356 143.426 136.873 156.237 109.108 140.202Z" fill="url(#paint15_linear_3206_4913)"/>
<path style="mix-blend-mode:screen" d="M112.099 18.1563C97.6966 9.84175 84.6097 8.71759 74.874 13.5748C83.9521 11.0295 97.2936 12.4082 109.49 19.4501C139.545 36.8004 163.916 78.8185 163.916 113.307C163.916 131.272 155.22 144.147 144.636 149.428C157.913 145.717 166.525 132.502 166.525 112.013C166.525 77.5246 142.154 35.5065 112.099 18.1563Z" fill="url(#paint16_radial_3206_4913)"/>
<path style="mix-blend-mode:screen" opacity="0.5" d="M104.908 62.1256C113.987 53.0475 123.722 45.3057 133.776 38.9425C127.18 31.6249 119.841 25.4102 112.099 20.9347C83.6555 4.51777 60.5996 17.6683 60.5996 50.2901C60.5996 66.7071 66.4325 84.927 75.85 101.068C83.104 87.4298 92.8397 74.1945 104.908 62.1256Z" fill="url(#paint17_radial_3206_4913)"/>
<path style="mix-blend-mode:color-dodge" d="M182.197 118.821C183.882 108.71 177.051 99.1483 166.941 97.4637C156.83 95.779 147.268 102.61 145.584 112.72C143.899 122.831 150.729 132.393 160.84 134.077C170.951 135.762 180.513 128.931 182.197 118.821Z" fill="url(#paint18_radial_3206_4913)"/>
<path style="mix-blend-mode:color-dodge" opacity="0.6" d="M89.7215 93.8355C115.633 93.8355 136.639 72.8297 136.639 46.9178C136.639 21.0058 115.633 0 89.7215 0C63.8095 0 42.8037 21.0058 42.8037 46.9178C42.8037 72.8297 63.8095 93.8355 89.7215 93.8355Z" fill="url(#paint19_radial_3206_4913)"/>
<path style="mix-blend-mode:color-dodge" d="M136.853 46.458C146.323 42.5355 150.82 31.679 146.897 22.2092C142.975 12.7395 132.118 8.24252 122.648 12.165C113.179 16.0875 108.682 26.9441 112.604 36.4138C116.527 45.8836 127.383 50.3805 136.853 46.458Z" fill="url(#paint20_radial_3206_4913)"/>
</g>
<defs>
<radialGradient id="paint0_radial_3206_4913" cx="0" cy="0" r="1" gradientUnits="userSpaceOnUse" gradientTransform="translate(191.488 225.624) scale(15.6555 8.46938)">
<stop offset="0.19" stop-color="#AFB6E5"/>
<stop offset="1" stop-color="white"/>
</radialGradient>
<linearGradient id="paint1_linear_3206_4913" x1="154.222" y1="101.132" x2="78.0341" y2="25.4103" gradientUnits="userSpaceOnUse">
<stop offset="0.11" stop-color="#84EFA9"/>
<stop offset="0.14" stop-color="#7FEFAC"/>
<stop offset="0.49" stop-color="#50F7D8"/>
<stop offset="0.77" stop-color="#33FDF2"/>
<stop offset="0.92" stop-color="#29FFFD"/>
</linearGradient>
<linearGradient id="paint2_linear_3206_4913" x1="217.918" y1="46.5997" x2="26.3227" y2="113.625" gradientUnits="userSpaceOnUse">
<stop stop-color="#00C7C5"/>
<stop offset="0.39" stop-color="#2D9BE0"/>
<stop offset="0.74" stop-color="#5277F7"/>
<stop offset="0.78" stop-color="#5A76F6"/>
<stop offset="0.85" stop-color="#7273F5"/>
<stop offset="0.94" stop-color="#9970F4"/>
<stop offset="1" stop-color="#BB6DF3"/>
</linearGradient>
<radialGradient id="paint3_radial_3206_4913" cx="0" cy="0" r="1" gradientUnits="userSpaceOnUse" gradientTransform="translate(209.624 6.38444) scale(50.6932 50.6932)">
<stop stop-color="white"/>
<stop offset="1"/>
</radialGradient>
<radialGradient id="paint4_radial_3206_4913" cx="0" cy="0" r="1" gradientUnits="userSpaceOnUse" gradientTransform="translate(92.733 90.8025) scale(54.4475 54.4475)">
<stop stop-color="white"/>
<stop offset="1"/>
</radialGradient>
<linearGradient id="paint5_linear_3206_4913" x1="169.27" y1="196.413" x2="188.334" y2="186.14" gradientUnits="userSpaceOnUse">
<stop stop-color="#3B3ABA"/>
<stop offset="0.14" stop-color="#564BD7"/>
<stop offset="0.23" stop-color="#6152E3"/>
<stop offset="0.4" stop-color="#4528C9"/>
<stop offset="0.48" stop-color="#4221A9"/>
<stop offset="0.57" stop-color="#3F1B8C"/>
<stop offset="0.63" stop-color="#3F1982"/>
<stop offset="0.87" stop-color="#5E239E"/>
<stop offset="1" stop-color="#491C8B"/>
</linearGradient>
<linearGradient id="paint6_linear_3206_4913" x1="163.215" y1="140.478" x2="157.722" y2="163.067" gradientUnits="userSpaceOnUse">
<stop stop-color="#3B3ABA"/>
<stop offset="0.17" stop-color="#3E33BF"/>
<stop offset="0.57" stop-color="#4528C9"/>
<stop offset="0.59" stop-color="#462ACA"/>
<stop offset="0.85" stop-color="#5947DC"/>
<stop offset="1" stop-color="#6152E3"/>
</linearGradient>
<linearGradient id="paint7_linear_3206_4913" x1="150.797" y1="153.192" x2="162.094" y2="147.104" gradientUnits="userSpaceOnUse">
<stop stop-color="#B9BFEA"/>
<stop offset="0.11" stop-color="#E5E9FF"/>
<stop offset="0.17" stop-color="white"/>
<stop offset="0.4" stop-color="#DFE3FC"/>
<stop offset="0.7" stop-color="#AFB6E5"/>
<stop offset="0.95" stop-color="#B9C0EA"/>
<stop offset="1" stop-color="#BDC3EC"/>
</linearGradient>
<linearGradient id="paint8_linear_3206_4913" x1="160.756" y1="107.156" x2="65.4355" y2="12.387" gradientUnits="userSpaceOnUse">
<stop offset="0.01" stop-color="#29FFFD"/>
<stop offset="0.68" stop-color="#68A9F3"/>
<stop offset="1" stop-color="#8484EF"/>
</linearGradient>
<linearGradient id="paint9_linear_3206_4913" x1="255.631" y1="33.5974" x2="0.552459" y2="122.83" gradientUnits="userSpaceOnUse">
<stop stop-color="#00C7C5"/>
<stop offset="0.34" stop-color="#2D9BE0"/>
<stop offset="0.66" stop-color="#5277F7"/>
<stop offset="0.71" stop-color="#5A76F6"/>
<stop offset="0.8" stop-color="#7273F5"/>
<stop offset="0.92" stop-color="#9970F4"/>
<stop offset="1" stop-color="#BB6DF3"/>
</linearGradient>
<radialGradient id="paint10_radial_3206_4913" cx="0" cy="0" r="1" gradientUnits="userSpaceOnUse" gradientTransform="translate(89.8701 92.4143) scale(73.1128 73.1128)">
<stop stop-color="white"/>
<stop offset="1"/>
</radialGradient>
<linearGradient id="paint11_linear_3206_4913" x1="67.5562" y1="21.9104" x2="124.188" y2="153.055" gradientUnits="userSpaceOnUse">
<stop stop-color="#9DA6EA"/>
<stop offset="0.11" stop-color="#E5E9FF"/>
<stop offset="0.4" stop-color="#DFE3FC"/>
<stop offset="0.7" stop-color="#AFB6E5"/>
<stop offset="0.95" stop-color="#B9C0EA"/>
<stop offset="1" stop-color="#BDC3EC"/>
</linearGradient>
<radialGradient id="paint12_radial_3206_4913" cx="0" cy="0" r="1" gradientUnits="userSpaceOnUse" gradientTransform="translate(101.897 62.2105) scale(73.7703 73.7703)">
<stop stop-color="#66CCFF"/>
<stop offset="1" stop-color="#5277F7"/>
</radialGradient>
<radialGradient id="paint13_radial_3206_4913" cx="0" cy="0" r="1" gradientUnits="userSpaceOnUse" gradientTransform="translate(101.621 62.7832) scale(73.7703 73.7703)">
<stop offset="0.48" stop-color="white"/>
<stop offset="1" stop-color="#AFB6E5"/>
</radialGradient>
<linearGradient id="paint14_linear_3206_4913" x1="97.485" y1="3.86022" x2="166.228" y2="135.429" gradientUnits="userSpaceOnUse">
<stop stop-color="#9DA6EA"/>
<stop offset="0.11" stop-color="#E5E9FF"/>
<stop offset="0.17" stop-color="white"/>
<stop offset="0.4" stop-color="#DFE3FC"/>
<stop offset="0.7" stop-color="#AFB6E5"/>
<stop offset="0.95" stop-color="#B9C0EA"/>
<stop offset="1" stop-color="#BDC3EC"/>
</linearGradient>
<linearGradient id="paint15_linear_3206_4913" x1="62.1054" y1="97.1869" x2="133.946" y2="74.0037" gradientUnits="userSpaceOnUse">
<stop stop-color="#AFB6E5"/>
<stop offset="0.14" stop-color="#B5BCE8"/>
<stop offset="0.35" stop-color="#C7CDF0"/>
<stop offset="0.58" stop-color="#E5E9FF"/>
<stop offset="0.95" stop-color="#F4F4FB"/>
<stop offset="1" stop-color="#F7F6FB"/>
</linearGradient>
<radialGradient id="paint16_radial_3206_4913" cx="0" cy="0" r="1" gradientUnits="userSpaceOnUse" gradientTransform="translate(134.476 37.6064) scale(58.7957 58.7957)">
<stop stop-color="white"/>
<stop offset="1"/>
</radialGradient>
<radialGradient id="paint17_radial_3206_4913" cx="0" cy="0" r="1" gradientUnits="userSpaceOnUse" gradientTransform="translate(99.4361 50.4386) scale(40.2576 40.2576)">
<stop stop-color="white"/>
<stop offset="1"/>
</radialGradient>
<radialGradient id="paint18_radial_3206_4913" cx="0" cy="0" r="1" gradientUnits="userSpaceOnUse" gradientTransform="translate(164.485 116.36) scale(13.5748 13.5748)">
<stop stop-color="#273B98"/>
<stop offset="0.04" stop-color="#23358A"/>
<stop offset="0.2" stop-color="#182560"/>
<stop offset="0.35" stop-color="#0F173D"/>
<stop offset="0.51" stop-color="#080D22"/>
<stop offset="0.67" stop-color="#03050F"/>
<stop offset="0.83" stop-color="#000103"/>
<stop offset="1"/>
</radialGradient>
<radialGradient id="paint19_radial_3206_4913" cx="0" cy="0" r="1" gradientUnits="userSpaceOnUse" gradientTransform="translate(91.2274 48.4237) scale(34.2975)">
<stop stop-color="#66CCFF"/>
<stop offset="0.02" stop-color="#61C3F4"/>
<stop offset="0.09" stop-color="#4D9BC1"/>
<stop offset="0.18" stop-color="#3B7693"/>
<stop offset="0.26" stop-color="#2B566B"/>
<stop offset="0.35" stop-color="#1D3B4A"/>
<stop offset="0.44" stop-color="#12252F"/>
<stop offset="0.54" stop-color="#0A141A"/>
<stop offset="0.66" stop-color="#04090B"/>
<stop offset="0.79" stop-color="#010202"/>
<stop offset="1"/>
</radialGradient>
<radialGradient id="paint20_radial_3206_4913" cx="0" cy="0" r="1" gradientUnits="userSpaceOnUse" gradientTransform="translate(130.36 29.9146) scale(13.5748)">
<stop stop-color="#364F87"/>
<stop offset="0.15" stop-color="#26385F"/>
<stop offset="0.31" stop-color="#18233D"/>
<stop offset="0.48" stop-color="#0D1422"/>
<stop offset="0.65" stop-color="#06080F"/>
<stop offset="0.82" stop-color="#010203"/>
<stop offset="1"/>
</radialGradient>
<clipPath id="clip0_3206_4913">
<rect width="262.969" height="234.61" fill="white"/>
</clipPath>
</defs>
</svg>
