<svg viewBox="0 0 24 24" fill="none" xmlns="http://www.w3.org/2000/svg">
<g id="Group">
<path id="Vector" d="M21.6926 24.0001C21.1018 24.0001 20.5111 23.7749 20.0606 23.3244L0.676372 3.94035C-0.225457 3.03946 -0.225457 1.57827 0.676372 0.677372C1.57728 -0.224448 3.0394 -0.224448 3.93939 0.677372L23.3236 20.0614C24.2255 20.9623 24.2255 22.4235 23.3236 23.3244C22.8732 23.7749 22.2833 24.0001 21.6926 24.0001Z" fill="#E5E8EB"/>
<path id="Vector_2" d="M2.30834 24C1.71758 24 1.12682 23.7748 0.676372 23.3243C-0.225457 22.4234 -0.225457 20.9622 0.676372 20.0613L20.0606 0.676365C20.9615 -0.225455 22.4236 -0.225455 23.3236 0.676365C24.2255 1.57726 24.2255 3.03845 23.3236 3.93935L3.93939 23.3234C3.48893 23.7738 2.89817 23.9991 2.30742 23.9991L2.30834 24Z" fill="#E5E8EB"/>
</g>
</svg>
