<svg width="20" height="20" viewBox="0 0 20 20" fill="none" xmlns="http://www.w3.org/2000/svg">
<g id="u2716" clip-path="url(#clip0_452_477)">
<g id="Group">
<path id="Vector" d="M15.3435 16.4999C15.0235 16.4999 14.7035 16.3779 14.4595 16.1339L3.9595 5.63387C3.471 5.14587 3.471 4.35438 3.9595 3.86637C4.4475 3.37788 5.2395 3.37788 5.727 3.86637L16.227 14.3664C16.7155 14.8544 16.7155 15.6459 16.227 16.1339C15.983 16.3779 15.6635 16.4999 15.3435 16.4999Z" fill="#EF4452"/>
<path id="Vector_2" d="M4.8435 16.4999C4.5235 16.4999 4.2035 16.3779 3.9595 16.1339C3.471 15.6459 3.471 14.8544 3.9595 14.3664L14.4595 3.86589C14.9475 3.37739 15.7395 3.37739 16.227 3.86589C16.7155 4.35389 16.7155 5.14539 16.227 5.63339L5.727 16.1334C5.483 16.3774 5.163 16.4994 4.843 16.4994L4.8435 16.4999Z" fill="#EF4452"/>
</g>
</g>
<defs>
<clipPath id="clip0_452_477">
<rect width="20" height="20" fill="white"/>
</clipPath>
</defs>
</svg>
