<svg width="45" height="45" viewBox="0 0 45 45" fill="none" xmlns="http://www.w3.org/2000/svg">
<g id="Group">
<path id="Vector" d="M1.36999 5.69183L4.81102 18.144L16.4105 8.562L4.83307 2.83145C2.92697 1.8882 0.802815 3.6424 1.36999 5.69305V5.69183Z" fill="#2272EB"/>
<path id="Vector_2" d="M31.249 31.826H25.6201C24.9953 31.826 24.4894 31.32 24.4894 30.6953C24.4894 30.0705 24.9953 29.5646 25.6201 29.5646H39.7554C39.9636 29.5646 40.1621 29.5328 40.3556 29.485C40.717 27.9905 40.9289 26.4384 40.9289 24.8337C40.9289 24.8177 40.9265 24.8043 40.9265 24.7883C40.5761 24.6034 40.1792 24.4943 39.7554 24.4943C38.3576 24.4943 37.2208 25.6311 37.2208 27.0301C37.2208 27.6548 36.7149 28.1608 36.0902 28.1608C35.4654 28.1608 34.9607 27.6548 34.9607 27.0301C34.9607 24.3853 37.1118 22.2342 39.7554 22.2342C40.1008 22.2342 40.4328 22.2832 40.7574 22.353C39.5349 12.6045 31.233 5.05725 21.1525 5.05725C10.2292 5.05725 1.37488 13.9116 1.37488 24.8349C1.37488 35.7582 10.2292 44.6113 21.1513 44.6113C29.6087 44.6113 36.8056 39.2923 39.6329 31.826H31.249Z" fill="#FFC84D"/>
<path id="Vector_3" d="M20.9182 4.20152L19.2399 2.20043C18.8904 1.78366 18.2691 1.72916 17.8524 2.0787L15.8513 3.75698C15.4345 4.10652 15.38 4.72773 15.7295 5.14451L17.4078 7.14559C17.7574 7.56237 18.3786 7.61687 18.7953 7.26733L20.7964 5.58905C21.2132 5.23951 21.2677 4.61829 20.9182 4.20152Z" fill="#B44BD7"/>
<path id="Vector_4" d="M34.6886 6.73817L31.7727 8.20893C31.1662 8.51484 30.9225 9.25446 31.2284 9.86094L32.6992 12.7769C33.0051 13.3833 33.7447 13.627 34.3512 13.3211L37.2671 11.8503C37.8736 11.5444 38.1173 10.8048 37.8114 10.1983L36.3406 7.28241C36.0347 6.67593 35.2951 6.43227 34.6886 6.73817Z" fill="#F66570"/>
<path id="Vector_5" d="M17.4345 36.1692L14.8929 36.7704C14.3636 36.8956 14.036 37.4262 14.1612 37.9555L14.7624 40.4971C14.8876 41.0264 15.4182 41.354 15.9475 41.2288L18.4891 40.6277C19.0184 40.5025 19.346 39.9718 19.2208 39.4425L18.6197 36.9009C18.4945 36.3716 17.9638 36.044 17.4345 36.1692Z" fill="white"/>
<path id="Vector_6" d="M6.95448 33.5347L5.96514 30.4224C5.75937 29.775 5.06779 29.4171 4.42045 29.6228L1.30806 30.6122C0.660723 30.8179 0.30276 31.5095 0.508531 32.1569L1.49787 35.2692C1.70364 35.9166 2.39523 36.2745 3.04256 36.0688L6.15495 35.0794C6.80229 34.8737 7.16025 34.1821 6.95448 33.5347Z" fill="#6376FF"/>
<path id="Vector_7" d="M44.2046 25.2698C43.6202 23.7998 42.3303 22.6936 40.7562 22.3543C40.4316 22.2845 40.0996 22.2355 39.7541 22.2355C37.1094 22.2355 34.9595 24.3866 34.9595 27.0313C34.9595 27.6561 35.4654 28.162 36.0889 28.162C36.7125 28.162 37.2196 27.6561 37.2196 27.0313C37.2196 25.6336 38.3564 24.4956 39.7541 24.4956C40.178 24.4956 40.5749 24.6046 40.9252 24.7896C41.5488 25.1203 42.0204 25.7022 42.2005 26.4029C42.2519 26.605 42.2887 26.8133 42.2887 27.0313C42.2887 28.222 41.4618 29.2155 40.3544 29.4862C40.1608 29.534 39.9612 29.5659 39.7541 29.5659H25.6189C25.5748 29.5659 25.5368 29.5867 25.4939 29.5916C25.2783 29.768 25.0541 29.9285 24.8422 30.0889C25.3714 30.4883 26.0268 31.1045 26.3808 31.8272H39.7529C42.3977 31.8272 44.5476 29.6761 44.5476 27.0326C44.5476 26.409 44.4202 25.8174 44.2021 25.271L44.2046 25.2698Z" fill="#2272EB"/>
<path id="Vector_8" d="M26.0268 4.07481C27.0443 4.07481 27.8692 3.24994 27.8692 2.23241C27.8692 1.21489 27.0443 0.390015 26.0268 0.390015C25.0093 0.390015 24.1844 1.21489 24.1844 2.23241C24.1844 3.24994 25.0093 4.07481 26.0268 4.07481Z" fill="#EDCCF8"/>
<path id="Vector_9" d="M4.01598 42.4198C5.03351 42.4198 5.85838 41.5949 5.85838 40.5774C5.85838 39.5599 5.03351 38.735 4.01598 38.735C2.99845 38.735 2.17358 39.5599 2.17358 40.5774C2.17358 41.5949 2.99845 42.4198 4.01598 42.4198Z" fill="#EDCCF8"/>
<path id="Vector_10" d="M38.3503 42.0364C39.3678 42.0364 40.1927 41.2115 40.1927 40.194C40.1927 39.1764 39.3678 38.3516 38.3503 38.3516C37.3327 38.3516 36.5079 39.1764 36.5079 40.194C36.5079 41.2115 37.3327 42.0364 38.3503 42.0364Z" fill="#B44BD7"/>
<path id="Vector_11" d="M41.7043 16.0492C42.7219 16.0492 43.5467 15.2243 43.5467 14.2068C43.5467 13.1893 42.7219 12.3644 41.7043 12.3644C40.6868 12.3644 39.8619 13.1893 39.8619 14.2068C39.8619 15.2243 40.6868 16.0492 41.7043 16.0492Z" fill="#7896FF"/>
<path id="Vector_12" d="M24.8434 30.0876C25.0554 29.9272 25.2795 29.7667 25.4951 29.5903C26.0807 29.1113 26.5878 28.5135 26.5241 27.46C26.4053 25.4939 23.2791 24.9402 22.8675 24.9402C22.4449 24.9402 22.1815 24.9806 22.1778 25.2379C22.1742 25.4951 22.4829 25.5833 22.9263 25.7168C24.2824 26.126 24.8165 26.9186 24.8165 27.4833C24.8165 28.5123 23.8108 29.0219 23.2387 29.3894C22.7744 29.6883 22.4804 29.7606 22.4682 30.0141C22.4584 30.231 22.7622 30.3424 23.2362 30.6438C23.7103 30.9451 24.7393 31.6238 24.7393 32.7692C24.7393 33.6536 23.9896 34.32 22.9239 34.7426C22.2856 34.9962 22.0406 35.1089 22.0786 35.3515C22.1166 35.594 22.4608 35.6442 23.028 35.6442C23.9872 35.6442 26.48 35.1285 26.6332 32.9541C26.6613 32.5597 26.5548 32.1812 26.3808 31.8259C26.0268 31.1032 25.3714 30.487 24.8434 30.0876Z" fill="#FF6D00"/>
<path id="Vector_13" d="M12.346 21.5053C12.0569 21.6817 11.6857 21.4489 11.7237 21.1133C11.9368 19.2427 13.397 17.7249 15.2909 17.5583C17.1847 17.393 18.8862 18.6339 19.4203 20.4395C19.5159 20.7642 19.1913 21.0569 18.8764 20.9344C18.188 20.6662 17.0255 20.3538 15.5469 20.4836C14.0683 20.6135 12.9781 21.1219 12.346 21.5053Z" fill="black"/>
<path id="Vector_14" d="M31.1877 21.5054C31.4768 21.6818 31.848 21.449 31.81 21.1134C31.5969 19.2428 30.1367 17.725 28.2428 17.5584C26.349 17.3918 24.6474 18.634 24.1133 20.4396C24.0178 20.7642 24.3424 21.057 24.6572 20.9345C25.3457 20.6662 26.5082 20.3539 27.9868 20.4837C29.4654 20.6136 30.5556 21.1219 31.1877 21.5054Z" fill="black"/>
</g>
</svg>
