<svg width="42" height="42" viewBox="0 0 42 42" fill="none" xmlns="http://www.w3.org/2000/svg">
<g id="u1F646_u200D_u2640" clip-path="url(#clip0_216_1026)">
<path id="Vector" d="M10.4401 26.9609C10.4401 26.9609 9.17595 13.061 15.898 10.1147C15.898 10.1147 17.746 7.43612 21.8704 7.86452C25.9948 8.29292 29.1448 11.4702 30.2001 14.3462C30.9865 16.4882 31.7635 21.0242 31.6407 26.2805C31.626 26.8905 31.2984 27.4502 30.7766 27.7673C29.6384 28.4592 27.0018 29.3454 20.959 29.3454C11.0491 29.3454 10.4391 26.9619 10.4391 26.9619L10.4401 26.9609Z" fill="#FF8F00"/>
<g id="Group">
<g id="Group_2">
<path id="Vector_2" d="M12.4121 11.6697L13.986 10.2659C14.6832 9.64321 15.1253 8.78431 15.225 7.85506L15.372 6.48376L18.6491 5.07991C19.508 4.71241 19.9112 3.72121 19.5521 2.85916C19.2465 2.12416 18.4779 1.70311 17.6925 1.83121C15.2544 2.22916 10.1168 3.63511 6.95731 8.55856L12.4121 11.6697Z" fill="#FFC74D"/>
<path id="Vector_3" d="M29.9733 11.7327L28.3993 10.3288C27.7021 9.7062 27.2601 8.8473 27.1603 7.91805L27.0133 6.54675L23.7363 5.1429C22.8774 4.7754 22.4742 3.7842 22.8333 2.92215C23.1388 2.18715 23.9074 1.7661 24.6928 1.8942C27.1309 2.29215 32.2686 3.6981 35.428 8.62155L29.9733 11.7327Z" fill="#FFC74D"/>
<path id="Vector_4" d="M36.0738 9.12344C36.0308 9.05414 35.9877 8.98484 35.9436 8.91554C35.6528 8.45354 34.9934 8.30128 34.4904 8.57743L30.3597 10.5409C29.9156 10.7856 29.6751 11.2749 29.7759 11.76C29.8221 11.9847 29.9009 12.2367 30.0027 12.5128L30.1633 12.9192C30.4678 13.6584 30.8952 14.5341 31.3393 15.5043C31.3509 15.5316 31.3624 15.5589 31.374 15.5862C31.8066 16.7328 32.2172 18.124 32.4324 19.615C32.3873 25.2147 28.2555 29.8273 22.8743 30.6442L22.8711 31.4517C22.8711 31.564 22.806 31.6743 22.7052 31.7247C21.0252 32.5794 19.4418 31.962 18.9409 31.7205C18.838 31.6711 18.7782 31.5693 18.7782 31.4559L18.7813 30.5245C13.7823 29.4409 10.0233 25.0393 9.92355 19.7379C10.395 15.6376 12.4824 12.1894 12.4824 12.1894C12.768 11.7621 12.6304 11.2087 12.1726 10.9284L7.86765 8.27399C7.36995 7.96949 6.68745 8.10598 6.38085 8.57218C6.3357 8.64148 6.29055 8.71079 6.2454 8.78009C1.3314 16.3884 0.428398 25.2945 5.17545 32.9994C6.56355 35.2527 7.8729 37.7149 9.0237 39.7561C9.219 40.1026 9.58335 40.3084 9.98025 40.3084H32.5007C32.8965 40.3084 33.2588 40.1037 33.4551 39.7593C34.5597 37.821 35.8187 35.5015 37.149 33.3427C41.9517 25.5486 40.9007 16.9039 36.0738 9.12344Z" fill="#482EC4"/>
</g>
</g>
<path id="Vector_5" d="M24.0849 16.8871C20.4466 16.3464 18.0799 13.9366 17.3218 13.0546C17.2189 12.9349 17.0247 12.9874 16.9963 13.1428C16.8199 14.1067 16.1931 16.5606 14.1981 18.3393C14.1981 18.3393 13.8631 18.5955 13.4883 19.0984C12.937 19.8376 12.7207 20.7784 12.8772 21.6877C13.5586 25.6578 16.8777 28.6713 20.8708 28.6713C24.6246 28.6713 27.7819 26.0085 28.7143 22.3923C29.1784 19.7064 27.5509 17.4037 24.0859 16.8882L24.0849 16.8871Z" fill="#FFC74D"/>
<path id="Vector_6" d="M18.9409 31.7226C19.4418 31.963 21.0252 32.5815 22.7052 31.7268C22.806 31.6753 22.8711 31.5661 22.8711 31.4538L22.8742 30.6463L22.8826 28.1274H18.7897L18.7813 30.5266L18.7782 31.458C18.7782 31.5724 18.838 31.6732 18.9409 31.7226Z" fill="#FFC74D"/>
<g id="Group_3">
<path id="Vector_7" d="M18.4223 20.9622C18.9215 20.9622 19.3263 20.4766 19.3263 19.8776C19.3263 19.2785 18.9215 18.7929 18.4223 18.7929C17.923 18.7929 17.5182 19.2785 17.5182 19.8776C17.5182 20.4766 17.923 20.9622 18.4223 20.9622Z" fill="black"/>
<path id="Vector_8" d="M23.1945 20.9622C23.6938 20.9622 24.0986 20.4766 24.0986 19.8776C24.0986 19.2785 23.6938 18.7929 23.1945 18.7929C22.6952 18.7929 22.2905 19.2785 22.2905 19.8776C22.2905 20.4766 22.6952 20.9622 23.1945 20.9622Z" fill="black"/>
</g>
<path id="Vector_9" d="M21.9744 24.5238C22.1813 24.5238 22.3283 24.7223 22.2726 24.9218C22.0983 25.5549 21.5187 26.0201 20.8299 26.0201C20.1411 26.0201 19.5615 25.5549 19.3872 24.9218C19.3326 24.7223 19.4796 24.5238 19.6854 24.5238H21.9744Z" fill="#5C2F17"/>
</g>
<defs>
<clipPath id="clip0_216_1026">
<rect width="42" height="42" fill="white"/>
</clipPath>
</defs>
</svg>
