<svg width="11" height="3" viewBox="0 0 11 3" fill="none" xmlns="http://www.w3.org/2000/svg">
<g id="Group">
<path id="Vector" d="M1.71561 0.538452C2.28076 0.538452 2.73831 0.996527 2.73831 1.56115C2.73831 1.83224 2.63071 2.09235 2.4385 2.28457C2.24681 2.47626 1.98669 2.58438 1.71509 2.58438C1.14994 2.58438 0.692383 2.1263 0.692383 1.56168C0.692383 0.997049 1.15046 0.538974 1.71509 0.538974L1.71561 0.538452Z" fill="#333D4B"/>
<path id="Vector_2" d="M9.28515 2.58386C9.84998 2.58386 10.3079 2.12598 10.3079 1.56115C10.3079 0.996332 9.84998 0.538452 9.28515 0.538452C8.72033 0.538452 8.26245 0.996332 8.26245 1.56115C8.26245 2.12598 8.72033 2.58386 9.28515 2.58386Z" fill="#333D4B"/>
<path id="Vector_3" d="M5.50024 2.58386C6.06506 2.58386 6.52294 2.12598 6.52294 1.56115C6.52294 0.996332 6.06506 0.538452 5.50024 0.538452C4.93542 0.538452 4.47754 0.996332 4.47754 1.56115C4.47754 2.12598 4.93542 2.58386 5.50024 2.58386Z" fill="#333D4B"/>
</g>
</svg>
