<svg viewBox="0 0 24 24" fill="none" xmlns="http://www.w3.org/2000/svg">
<g id="Group">
<path id="Vector" d="M11.8616 20.9184H6.38914C5.97074 20.9184 5.59004 20.5998 5.41037 20.0991C5.2307 19.5984 5.28535 19.007 5.54983 18.5779L8.90077 13.1399H6.21135C5.61328 13.1399 5.1283 12.4978 5.1283 11.706C5.1283 10.9142 5.61328 10.272 6.21135 10.272H11.1831C11.6015 10.272 11.9822 10.5906 12.1619 11.0913C12.3416 11.592 12.2869 12.1834 12.0224 12.6126L8.67147 18.0505H11.8622C12.4603 18.0505 12.9453 18.6926 12.9453 19.4845C12.9453 20.2763 12.4597 20.9184 11.8616 20.9184Z" fill="#6391FF"/>
<path id="Vector_2" d="M4.16386 24H0.88014C0.581106 24 0.309086 23.7721 0.180928 23.4153C0.0527707 23.0576 0.0917206 22.6351 0.280816 22.3282L2.12653 19.3331H0.773342C0.346151 19.3331 0 18.8748 0 18.3092C0 17.7436 0.346151 17.2853 0.773342 17.2853H3.75615C4.05518 17.2853 4.3272 17.5132 4.45536 17.87C4.58351 18.2277 4.54456 18.6502 4.35547 18.9571L2.50975 21.9522H4.16386C4.59105 21.9522 4.9372 22.4105 4.9372 22.9761C4.9372 23.5417 4.59105 24 4.16386 24Z" fill="#6391FF"/>
<path id="Vector_3" d="M22.7618 15.8788H13.8957C13.4176 15.8788 12.9823 15.5145 12.7775 14.9431C12.5726 14.3709 12.6342 13.6947 12.9364 13.204L19.054 3.27707H13.6086C12.9251 3.27707 12.3704 2.54348 12.3704 1.63854C12.3704 0.733599 12.9245 0 13.6086 0H21.6618C22.1399 0 22.5752 0.364304 22.78 0.935713C22.9848 1.50795 22.9233 2.18416 22.6211 2.67489L16.5034 12.6018H22.7618C23.4453 12.6018 24 13.3354 24 14.2403C24 15.1452 23.4459 15.8788 22.7618 15.8788Z" fill="#6391FF"/>
</g>
</svg>
