<svg viewBox="0 0 16 16" fill="none" xmlns="http://www.w3.org/2000/svg">
<g id="Frame" clip-path="url(#clip0_770_2789)">
<path id="Vector" d="M3.51735 9.83772C2.5927 8.64362 2.82174 6.94348 4.02911 6.04043C5.23648 5.13738 6.96456 5.37348 7.88922 6.56802C8.81387 7.76212 8.40947 9.19011 7.2021 10.0932C5.99473 10.9962 4.44201 11.0323 3.51735 9.83772Z" fill="#FFC74D"/>
<path id="Vector_2" d="M1.05652 3.99519C0.576978 3.99519 0.188232 3.61312 0.188232 3.14182C0.188232 2.67052 0.576978 2.28845 1.05652 2.28845C1.53607 2.28845 1.92481 2.67052 1.92481 3.14182C1.92481 3.61312 1.53607 3.99519 1.05652 3.99519Z" fill="#FFC74D"/>
<path id="Vector_3" d="M5.22949 3.3418H6.08033C6.28074 3.3418 6.46325 3.45567 6.54825 3.63373L8.19044 7.06391L4.61082 10.6396L3.46473 10.1274C2.35085 9.62972 1.43022 8.75086 0.985563 7.62446C0.884911 7.3699 0.809756 7.10391 0.7771 6.83529L5.22949 3.3418Z" fill="#FFC74D"/>
<path id="Vector_4" d="M3.36661 7.36948C3.35812 7.11492 3.21139 6.89905 3.00069 6.78298C3.24673 6.67702 3.42209 6.43961 3.4279 6.15823C3.43551 5.80914 3.18052 5.51721 2.84188 5.45742C3.16129 5.40071 3.41045 5.13516 3.42656 4.80322C3.44535 4.4172 3.1416 4.08966 2.74884 4.07119L0.984521 3.94369L0.767113 0.619472C0.745193 0.284016 1.01584 0 1.35805 0H5.14345C5.4557 0 5.71426 0.238292 5.73439 0.544731L5.91735 3.34181H4.60709C4.19151 3.34181 3.91953 3.77311 4.10473 4.1389C4.4031 4.72935 5.02312 5.13516 5.73976 5.13516H6.03545L6.22512 8.03291C6.24704 8.36837 5.9764 8.65239 5.63419 8.65239H1.84879C1.56249 8.65239 1.33076 8.44883 1.27708 8.17976L2.67861 8.09139C3.07182 8.07908 3.37914 7.75593 3.36661 7.36948Z" fill="#4E5968"/>
<path id="Vector_5" d="M3.42648 4.80272C3.41037 5.13466 3.1612 5.40065 2.8418 5.45692C2.80557 5.45077 2.76888 5.44461 2.73086 5.44374L0.946863 5.36108C0.863657 5.35932 0.784926 5.37427 0.709772 5.39669C0.386792 5.29909 0.157752 4.99837 0.174304 4.65148C0.193987 4.2404 0.549177 3.92253 0.967888 3.94188L0.984886 3.9432L2.7492 4.0707C3.14197 4.08916 3.44482 4.4167 3.42648 4.80272Z" fill="#FFC74D"/>
<path id="Vector_6" d="M0.172899 6.0913C0.180057 5.76112 0.405517 5.48897 0.709709 5.39708C0.784863 5.37422 0.864042 5.35971 0.9468 5.36147L2.73079 5.44413C2.76882 5.44501 2.8055 5.45116 2.84173 5.45732C3.18082 5.51711 3.43536 5.80948 3.42775 6.15812C3.42194 6.4395 3.24658 6.67692 3.00054 6.78287C2.89139 6.72308 2.76614 6.68835 2.63193 6.6923H1.16868C1.01345 6.69758 0.870752 6.74814 0.753549 6.83079C0.414464 6.75078 0.165295 6.44786 0.172899 6.0913Z" fill="#FFC74D"/>
<path id="Vector_7" d="M1.16922 6.69276H2.63247C2.76667 6.68836 2.89193 6.72266 3.00108 6.78289C3.21178 6.89896 3.3585 7.11483 3.367 7.36939C3.37953 7.7554 3.07131 8.07899 2.6781 8.0913L1.27658 8.17967L1.21798 8.18319C0.799268 8.19638 0.449002 7.87367 0.435581 7.46215C0.427082 7.2032 0.554573 6.97106 0.754087 6.83125C0.871738 6.7486 1.01399 6.6976 1.16922 6.69276Z" fill="#FFC74D"/>
<path id="Vector_8" d="M4.10423 4.13889C3.91903 3.7731 4.19102 3.3418 4.6066 3.3418H6.10787L6.39015 5.13514H5.73882C5.02262 5.13514 4.40306 4.72934 4.10423 4.13889Z" fill="#FFC74D"/>
<path id="Vector_9" d="M11.178 15.7752H15.9999V10.4994H11.8513C11.2344 10.4994 10.6506 10.2241 10.2645 9.75107L8.27302 7.31055L4.08545 10.611L6.49752 13.5673C7.64137 14.9702 9.34753 15.7752 11.178 15.7752Z" fill="#4E5968"/>
<path id="Vector_10" d="M0.942573 16C0.701244 16 0.460387 15.9097 0.27609 15.7285C-0.0920301 15.3667 -0.0920301 14.7803 0.27609 14.4185L14.2185 0.715802C14.5866 0.35401 15.1833 0.35401 15.5514 0.715802C15.9196 1.07759 15.9196 1.66406 15.5514 2.02585L1.60905 15.7285C1.42476 15.9097 1.1839 16 0.942573 16Z" fill="#EF4452"/>
</g>
<defs>
<clipPath id="clip0_770_2789">
<rect width="16" height="16" fill="white"/>
</clipPath>
</defs>
</svg>
