<svg width="43" height="43" viewBox="0 0 43 43" fill="none" xmlns="http://www.w3.org/2000/svg">
<g id="Group">
<path id="Vector" d="M21.5 42.9375C33.3396 42.9375 42.9375 33.3396 42.9375 21.5C42.9375 9.6604 33.3396 0.0625 21.5 0.0625C9.6604 0.0625 0.0625 9.6604 0.0625 21.5C0.0625 33.3396 9.6604 42.9375 21.5 42.9375Z" fill="#FFC84D"/>
<path id="Vector_2" d="M33.2049 23.2285C34.1028 23.2285 34.828 24.0321 34.6626 24.9141C33.679 30.1792 28.1603 34.2106 21.5 34.2106C14.8397 34.2106 9.32107 30.1792 8.33739 24.9141C8.17202 24.0321 8.89844 23.2285 9.79514 23.2285H33.2049Z" fill="#FF6D00"/>
<path id="Vector_3" d="M21.5 26.3314C25.8671 26.3314 29.9084 25.1799 33.2049 23.2285H9.7951C13.0916 25.1799 17.1329 26.3314 21.5 26.3314Z" fill="white"/>
<path id="Vector_4" d="M11.9376 18.0675C11.6351 18.217 11.2872 17.9548 11.3545 17.6241C11.7282 15.7878 13.3084 14.4084 15.201 14.4084C17.0937 14.4084 18.6739 15.7878 19.0475 17.6241C19.1149 17.9548 18.767 18.217 18.4644 18.0675C17.8042 17.7417 16.6796 17.3313 15.201 17.3313C13.7225 17.3313 12.5979 17.7417 11.9376 18.0675Z" fill="black"/>
<path id="Vector_5" d="M31.0623 18.0675C31.3649 18.217 31.7128 17.9548 31.6454 17.6241C31.2718 15.7878 29.6916 14.4084 27.7989 14.4084C25.9063 14.4084 24.3261 15.7878 23.9524 17.6241C23.8851 17.9548 24.233 18.217 24.5355 18.0675C25.1958 17.7417 26.3204 17.3313 27.7989 17.3313C29.2775 17.3313 30.4021 17.7417 31.0623 18.0675Z" fill="black"/>
<path id="Vector_6" d="M35.2433 6.83801C35.2433 6.83801 31.4053 10.9552 31.4053 14.2762C31.4053 16.3955 33.124 18.1092 35.2433 18.1092C37.3625 18.1092 39.0812 16.3955 39.0812 14.2762C39.0812 10.9552 35.2433 6.83801 35.2433 6.83801Z" fill="white"/>
</g>
</svg>
