<svg width="42" height="42" viewBox="0 0 42 42" fill="none" xmlns="http://www.w3.org/2000/svg">
<g id="u1F64B_u1F3FB" clip-path="url(#clip0_220_1388)">
<g id="Group">
<path id="Vector" d="M16.6183 9.46256C16.0198 9.06881 15.2145 9.23471 14.8207 9.83321L13.4106 11.3505L13.0557 9.62951L12.2157 4.69451V4.69346C12.1107 4.07711 11.5374 3.66131 10.9347 3.76421C10.332 3.86711 9.92879 4.44881 10.0338 5.06516L10.7562 9.31136L10.2081 9.42476L9.03104 4.58006C8.88404 3.97316 8.28239 3.59831 7.68914 3.74216C7.09484 3.88601 6.73364 4.49501 6.88064 5.10296L8.04614 9.90041L7.59674 10.122L6.01649 6.14141C5.79074 5.57231 5.14709 5.29406 4.57904 5.51981C4.01099 5.74556 3.73379 6.38921 3.95954 6.95831L5.60489 11.1027L5.05469 11.3736L3.67499 8.50076C3.40409 7.93586 2.73734 7.69226 2.18609 7.95686C1.63484 8.22146 1.40909 8.89346 1.67999 9.45836L4.27559 14.8627L4.28504 14.8564C5.17439 17.3512 7.78259 18.8769 10.4506 18.3267C11.9101 18.0253 13.1092 17.1612 13.8684 16.0072L16.9911 11.2623C17.3848 10.6638 17.2189 9.85841 16.6204 9.46466L16.6183 9.46256Z" fill="#FFCBA7"/>
<g id="Group_2">
<path id="Vector_2" d="M28.7815 26.0241L28.7143 26.4147C28.5106 27.596 27.3882 28.3887 26.2059 28.185C25.0246 27.9813 24.2319 26.8578 24.4356 25.6766L24.5028 25.287C23.9778 25.245 23.4486 25.2093 22.9036 25.1988L22.1802 25.1316C15.9138 24.1824 14.9383 18.4484 14.7525 16.5888C14.7241 16.3053 14.4847 16.0964 14.2002 16.1037L4.79954 16.3284C4.49399 16.3358 4.24619 16.5899 4.26614 16.8944C4.57589 21.4986 7.53794 29.1258 14.89 32.8239C15.0391 32.8995 15.1368 33.0497 15.1378 33.2166L15.1872 38.9108C15.1893 39.1596 15.3909 39.3591 15.6397 39.3591H40.2328C40.2328 33.1148 35.8648 27.9614 28.7794 26.0252L28.7815 26.0241Z" fill="#AAB6C6"/>
<g id="Group_3">
<path id="Vector_3" d="M35.7104 21.4514C34.4262 23.2448 32.5142 24.5006 30.3617 24.9847L34.1396 25.7774C34.9649 25.9507 35.7944 25.4981 36.0936 24.7096L37.3442 21.4231C36.8265 21.5438 36.2742 21.5701 35.7104 21.4514Z" fill="#333333"/>
<path id="Vector_4" d="M19.5614 18.0599H19.5509C18.8222 17.9024 18.1891 17.5496 17.7008 17.075L17.8478 21.0303C17.8772 21.8168 18.4379 22.4825 19.2086 22.6442L23.0149 23.4432C21.2467 22.137 20.0098 20.2229 19.5614 18.0599Z" fill="#333333"/>
<path id="Vector_5" d="M19.8261 13.4955L27.0249 8.19619C27.0249 8.19619 32.9091 15.3656 37.6446 16.0365C37.7485 16.0512 37.8756 16.0407 38.0026 16.0145C38.3365 15.9084 38.6515 15.6638 38.8752 15.7499C38.8846 15.753 38.8962 15.7499 38.9056 15.7541C40.2685 9.70503 36.0885 3.65494 29.7675 3.02074C24.906 2.53354 20.287 5.59849 18.8391 10.2647C18.6921 10.7393 18.5797 11.2149 18.501 11.6895C18.501 11.6895 18.5398 11.6927 18.5934 11.7032C18.8286 11.7483 19.4859 12.0045 19.8261 13.4955Z" fill="#333333"/>
<path id="Vector_6" d="M38.8762 15.75C38.6525 15.6639 38.3375 15.9085 38.0036 16.0146C37.8755 16.0398 37.7495 16.0513 37.6456 16.0366C32.9101 15.3657 27.0259 8.19629 27.0259 8.19629L19.8271 13.4956C19.4858 12.0057 18.8285 11.7495 18.5944 11.7033C17.662 12.1443 16.9459 12.9601 16.7275 14.007C16.4849 15.1494 16.8902 16.2823 17.7019 17.0751C18.1891 17.5507 18.8233 17.9035 19.552 18.06H19.5625C20.0119 20.223 21.2477 22.1371 23.0159 23.4423C23.522 23.8161 24.0659 24.1479 24.655 24.4125L24.508 25.284L24.4345 25.6725C24.235 26.859 25.0225 27.9825 26.209 28.182C27.385 28.392 28.5085 27.594 28.7185 26.418L28.7815 26.0295L28.9285 25.2C29.4167 25.1716 29.8934 25.0908 30.3628 24.9847C32.5153 24.5007 34.4273 23.2449 35.7115 21.4515C36.2753 21.5701 36.8276 21.5449 37.3453 21.4242C38.62 21.126 39.6563 20.1789 39.9325 18.88C40.1845 17.7051 39.7372 16.5438 38.8772 15.751L38.8762 15.75Z" fill="#FFCBA7"/>
</g>
<g id="Group_4">
<path id="Vector_7" d="M26.9268 15.4381C27.0576 14.815 26.7427 14.2214 26.2234 14.1124C25.7041 14.0034 25.1771 14.4202 25.0463 15.0433C24.9155 15.6665 25.2304 16.26 25.7497 16.369C26.269 16.478 26.796 16.0612 26.9268 15.4381Z" fill="black"/>
<path id="Vector_8" d="M31.8929 16.4806C32.0237 15.8574 31.7088 15.2639 31.1895 15.1549C30.6702 15.0459 30.1432 15.4627 30.0124 16.0858C29.8816 16.709 30.1965 17.3025 30.7158 17.4115C31.2351 17.5205 31.7621 17.1037 31.8929 16.4806Z" fill="black"/>
</g>
<path id="Vector_9" d="M28.706 20.458C28.917 20.5021 29.0252 20.7373 28.9265 20.9295C28.6125 21.5395 27.9195 21.8913 27.215 21.7432C26.5104 21.5952 26.018 20.9956 25.9749 20.31C25.9613 20.0947 26.1545 19.9225 26.3655 19.9677L28.7049 20.4591L28.706 20.458Z" fill="#5C2F17"/>
</g>
</g>
</g>
<defs>
<clipPath id="clip0_220_1388">
<rect width="42" height="42" fill="white"/>
</clipPath>
</defs>
</svg>
