<svg viewBox="0 0 24 24" fill="none" xmlns="http://www.w3.org/2000/svg">
<g id="Group">
<g id="Group_2">
<path id="Vector" d="M9.24893 17.6592H14.7511C15.1865 17.6592 15.541 17.3047 15.541 16.8699V9.4848L8.45898 16.5669V16.8693C8.45898 17.3047 8.8135 17.6592 9.24893 17.6592Z" fill="#333D4B"/>
<path id="Vector_2" d="M14.7511 6.34081H9.24893C8.8135 6.34081 8.45898 6.69532 8.45898 7.13075V13.6587L15.4046 6.71315C15.264 6.49441 15.0302 6.34081 14.7518 6.34081H14.7511Z" fill="#333D4B"/>
<path id="Vector_3" d="M16.4324 16.8699C16.4324 17.797 15.6781 18.5506 14.7511 18.5506H9.24889C8.49803 18.5506 7.86855 18.0528 7.65323 17.3733L5.51038 19.5161C7.25415 21.024 9.51975 21.9429 12 21.9429C17.4823 21.9429 21.9428 17.4823 21.9428 12C21.9428 9.51978 21.024 7.25349 19.5161 5.51041L16.4324 8.59406V16.8699Z" fill="#333D4B"/>
<path id="Vector_4" d="M7.56761 7.13074C7.56761 6.20366 8.32189 5.44937 9.24898 5.44937H14.7511C15.275 5.44937 15.7372 5.69486 16.0458 6.07132L18.0151 4.10194C16.3427 2.82514 14.2615 2.05714 11.9994 2.05714C6.51709 2.05714 2.05652 6.51772 2.05652 12C2.05652 14.2622 2.82452 16.3426 4.10132 18.0158L7.56692 14.5502V7.13143L7.56761 7.13074Z" fill="#333D4B"/>
</g>
<g id="Group_3">
<path id="Vector_5" d="M14.751 5.44937H9.24888C8.32179 5.44937 7.5675 6.20366 7.5675 7.13074V14.5495L8.45893 13.6581V7.13006C8.45893 6.69463 8.81345 6.34011 9.24888 6.34011H14.751C15.0301 6.34011 15.2633 6.49371 15.4038 6.71246L16.0457 6.07063C15.7371 5.69417 15.2749 5.44937 14.751 5.44937Z" fill="white"/>
<path id="Vector_6" d="M9.24898 18.5506H14.7511C15.6782 18.5506 16.4325 17.7963 16.4325 16.8699V8.59406L15.5411 9.48548V16.8706C15.5411 17.3061 15.1866 17.6599 14.7511 17.6599H9.24898C8.81355 17.6599 8.45903 17.3054 8.45903 16.8706V16.5682L7.65332 17.3739C7.86863 18.0542 8.49812 18.5513 9.24898 18.5513V18.5506Z" fill="white"/>
</g>
<path id="Vector_7" d="M12 0C5.376 0 0 5.36914 0 12C0 18.6309 5.376 24 12 24C18.624 24 24 18.6309 24 12C24 5.36914 18.624 0 12 0ZM12 2.05714C14.2629 2.05714 16.3406 2.82514 18.0137 4.10057L15.4011 6.71314L8.46171 13.6594L7.57029 14.5509L4.10057 18.0137C2.82514 16.3406 2.05714 14.2629 2.05714 12C2.05714 6.51429 6.51429 2.05714 12 2.05714ZM12 21.9429C9.51771 21.9429 7.25486 21.024 5.51314 19.5154L7.65257 17.376L8.46171 16.5669L15.5383 9.48343L16.4297 8.592L19.5154 5.51314C21.024 7.25486 21.9429 9.51771 21.9429 12C21.9429 17.4857 17.4857 21.9429 12 21.9429Z" fill="#EF4452"/>
</g>
</svg>
