<svg viewBox="0 0 24 24" fill="none" xmlns="http://www.w3.org/2000/svg">
<g id="u1F559" clip-path="url(#clip0_725_150)">
<g id="Group">
<path id="Vector" d="M12 3.29999C7.203 3.29999 3.3 7.20299 3.3 12C3.3 16.797 7.203 20.7 12 20.7C16.797 20.7 20.7 16.797 20.7 12C20.7 7.20299 16.797 3.29999 12 3.29999ZM12.9 12C12.9 12.018 12.8958 12.0354 12.8946 12.0534C12.8928 12.0858 12.8904 12.1176 12.885 12.15C12.8802 12.1794 12.8724 12.2076 12.8652 12.2358C12.858 12.2634 12.8502 12.2904 12.84 12.3174C12.828 12.3486 12.8136 12.3786 12.7986 12.408C12.7908 12.4236 12.786 12.4398 12.777 12.4548C12.7734 12.4608 12.768 12.4656 12.7638 12.4716C12.726 12.5328 12.6828 12.5904 12.6318 12.6408C12.6246 12.648 12.6156 12.6534 12.6078 12.6606C12.5634 12.7014 12.5154 12.7368 12.4638 12.768C12.4452 12.7788 12.4266 12.7884 12.408 12.7986C12.3624 12.822 12.315 12.8406 12.2652 12.8562C12.2466 12.8622 12.228 12.8688 12.2088 12.8736C12.1434 12.8892 12.0768 12.8988 12.0066 12.8994C12.0042 12.8994 12.0018 12.9006 11.9994 12.9006C11.9952 12.9006 11.991 12.8988 11.9868 12.8988C11.919 12.8976 11.853 12.888 11.79 12.873C11.7702 12.8682 11.7516 12.861 11.7324 12.855C11.6784 12.8382 11.6268 12.8166 11.5776 12.7902C11.5674 12.7848 11.556 12.783 11.5452 12.777L7.161 10.2102C6.732 9.95939 6.588 9.40799 6.8388 8.97899C7.0896 8.54999 7.6404 8.40479 8.07 8.65679L11.0994 10.4304V6.19679C11.0994 5.69939 11.502 5.29679 11.9994 5.29679C12.4968 5.29679 12.8994 5.69939 12.8994 6.19679L12.9 12Z" fill="#E5E8EB"/>
<path id="Vector_2" d="M12 1.5C6.201 1.5 1.5 6.201 1.5 12C1.5 17.799 6.201 22.5 12 22.5C17.799 22.5 22.5 17.799 22.5 12C22.5 6.201 17.799 1.5 12 1.5ZM12 20.7C7.203 20.7 3.3 16.797 3.3 12C3.3 7.203 7.203 3.3 12 3.3C16.797 3.3 20.7 7.203 20.7 12C20.7 16.797 16.797 20.7 12 20.7Z" fill="#A3ADB7"/>
<path id="Vector_3" d="M11.1 12V10.4304L8.07061 8.65679C7.64101 8.40479 7.09021 8.54999 6.83941 8.97899C6.58861 9.40799 6.73261 9.95939 7.16161 10.2102L11.5458 12.777C11.556 12.783 11.5674 12.7848 11.5782 12.7902C11.2956 12.6384 11.1 12.3438 11.1 12Z" fill="#FF2A4B"/>
<path id="Vector_4" d="M12 5.29681C11.5026 5.29681 11.1 5.69941 11.1 6.19681V12C11.1 12.3438 11.2944 12.6384 11.5776 12.7902C11.6268 12.8166 11.6778 12.8382 11.7324 12.855C11.7516 12.861 11.7702 12.8682 11.79 12.873C11.8536 12.888 11.919 12.8982 11.9868 12.8988C11.9916 12.8988 11.9958 12.9 12 12.9C12.0024 12.9 12.0042 12.8994 12.0066 12.8994C12.0762 12.8994 12.1434 12.8892 12.2088 12.8736C12.228 12.8688 12.246 12.8622 12.2652 12.8562C12.315 12.8406 12.3624 12.822 12.408 12.7986C12.4272 12.789 12.4458 12.7794 12.4638 12.768C12.5154 12.7368 12.5634 12.7008 12.6078 12.6606C12.6156 12.6534 12.624 12.648 12.6318 12.6408C12.6828 12.5904 12.726 12.5328 12.7638 12.4716C12.7764 12.4512 12.7872 12.4296 12.798 12.408C12.813 12.3786 12.8274 12.3486 12.8394 12.3174C12.8496 12.291 12.8574 12.2634 12.8646 12.2358C12.8724 12.2076 12.8796 12.1794 12.8844 12.15C12.8898 12.1182 12.8922 12.0858 12.894 12.0534C12.8952 12.0354 12.8994 12.0186 12.8994 12V6.19681C12.8994 5.69941 12.4974 5.29681 12 5.29681Z" fill="#313D4C"/>
</g>
</g>
<defs>
<clipPath id="clip0_725_150">
<rect width="24" height="24" fill="white"/>
</clipPath>
</defs>
</svg>
