<svg width="12" height="12" viewBox="0 0 12 12" fill="none" xmlns="http://www.w3.org/2000/svg">
<g id="u26D4" clip-path="url(#clip0_432_16)">
<path id="Vector" d="M6 11.25C8.8995 11.25 11.25 8.8995 11.25 6C11.25 3.10051 8.8995 0.75 6 0.75C3.10051 0.75 0.75 3.10051 0.75 6C0.75 8.8995 3.10051 11.25 6 11.25Z" fill="#EF4452"/>
<path id="Vector_2" d="M8.84998 4.94995H3.14998C2.98429 4.94995 2.84998 5.08427 2.84998 5.24995V6.74995C2.84998 6.91564 2.98429 7.04995 3.14998 7.04995H8.84998C9.01566 7.04995 9.14998 6.91564 9.14998 6.74995V5.24995C9.14998 5.08427 9.01566 4.94995 8.84998 4.94995Z" fill="white"/>
</g>
<defs>
<clipPath id="clip0_432_16">
<rect width="12" height="12" fill="white"/>
</clipPath>
</defs>
</svg>
