<svg width="29" height="35" viewBox="0 0 29 35" fill="none" xmlns="http://www.w3.org/2000/svg">
<g id="Frame">
<path id="Vector" d="M9.35973 23.4817C12.1288 23.4817 14.3736 21.288 14.3736 18.5818C14.3736 15.8757 12.1288 13.6819 9.35973 13.6819C6.59064 13.6819 4.34586 15.8757 4.34586 18.5818C4.34586 21.288 6.59064 23.4817 9.35973 23.4817Z" fill="#EF4452"/>
<path id="Vector_2" d="M9.35968 24.9807C2.62077 24.9807 0 29.4714 0 31.5599C0 33.6483 5.57963 34.2045 9.35968 34.2045C13.1397 34.2045 18.7194 33.6483 18.7194 31.5599C18.7194 29.4714 16.0986 24.9807 9.35968 24.9807Z" fill="#EF4452"/>
<path id="Vector_3" d="M23.9173 9.09417C23.3994 9.09417 22.9798 8.68408 22.9798 8.17797C22.9798 6.74615 23.8633 6.05314 24.5083 5.5474C25.0119 5.15234 25.3021 4.90716 25.406 4.46263C25.4904 4.10201 25.4266 3.79857 25.211 3.53434C24.9313 3.19132 24.4115 2.96117 23.9173 2.96117C23.2734 2.96117 22.7113 3.36796 22.5189 3.97411C22.4743 4.11374 22.4518 4.25997 22.4518 4.40839C22.4518 4.91449 22.0321 5.32458 21.5143 5.32458C20.9964 5.32458 20.5768 4.91449 20.5768 4.40839C20.5768 4.07526 20.6278 3.74653 20.7279 3.43063C21.1655 2.05414 22.4469 1.12915 23.9169 1.12915C24.9834 1.12915 26.0405 1.61327 26.6765 2.39203C27.2461 3.0898 27.4438 3.97008 27.2338 4.87052C26.9795 5.95932 26.2599 6.5237 25.6813 6.97703C25.0933 7.43842 24.8544 7.64695 24.8544 8.17834C24.8544 8.68445 24.4352 9.09417 23.9173 9.09417Z" fill="#EF4452"/>
<path id="Vector_4" d="M23.9293 10.0679C23.1901 10.0679 22.5909 10.6572 22.5909 11.3843C22.5909 12.1113 23.1901 12.7006 23.9293 12.7006C24.6684 12.7006 25.2676 12.1113 25.2676 11.3843C25.2676 10.6572 24.6684 10.0679 23.9293 10.0679Z" fill="#EF4452"/>
<path id="Vector_5" d="M17.9593 10.0679C17.2201 10.0679 16.6209 10.6572 16.6209 11.3843C16.6209 12.1113 17.2201 12.7006 17.9593 12.7006C18.6984 12.7006 19.2976 12.1113 19.2976 11.3843C19.2976 10.6572 18.6984 10.0679 17.9593 10.0679Z" fill="#EF4452"/>
<path id="Vector_6" d="M17.9596 8.63353C17.4418 8.63353 17.0221 8.22345 17.0221 7.71734V2.17547C17.0221 1.66937 17.4418 1.25928 17.9596 1.25928C18.4775 1.25928 18.8971 1.66937 18.8971 2.17547V7.71734C18.8971 8.22345 18.4775 8.63353 17.9596 8.63353Z" fill="#EF4452"/>
</g>
</svg>
