<svg width="48" height="48" viewBox="0 0 48 48" fill="none" xmlns="http://www.w3.org/2000/svg">
<g id="Frame 159">
<g id="Circle">
<path d="M23.9983 43.9967C38 43.9967 44.9967 34.5954 44.9967 22.9983C44.9967 11.4013 38 2 23.9983 2C9.99665 2 3 11.4013 3 22.9983C3 34.5954 9.99665 43.9967 23.9983 43.9967Z" fill="url(#paint0_radial_592_6619)"/>
<path d="M23.9983 43.9967C38 43.9967 44.9967 34.5954 44.9967 22.9983C44.9967 11.4013 38 2 23.9983 2C9.99665 2 3 11.4013 3 22.9983C3 34.5954 9.99665 43.9967 23.9983 43.9967Z" fill="url(#paint1_radial_592_6619)"/>
<path d="M23.9983 43.9967C38 43.9967 44.9967 34.5954 44.9967 22.9983C44.9967 11.4013 38 2 23.9983 2C9.99665 2 3 11.4013 3 22.9983C3 34.5954 9.99665 43.9967 23.9983 43.9967Z" fill="url(#paint2_radial_592_6619)" fill-opacity="0.6"/>
<path d="M23.9983 43.9967C38 43.9967 44.9967 34.5954 44.9967 22.9983C44.9967 11.4013 38 2 23.9983 2C9.99665 2 3 11.4013 3 22.9983C3 34.5954 9.99665 43.9967 23.9983 43.9967Z" fill="url(#paint3_radial_592_6619)"/>
<path d="M23.9983 43.9967C38 43.9967 44.9967 34.5954 44.9967 22.9983C44.9967 11.4013 38 2 23.9983 2C9.99665 2 3 11.4013 3 22.9983C3 34.5954 9.99665 43.9967 23.9983 43.9967Z" fill="url(#paint4_radial_592_6619)"/>
<path d="M23.9983 43.9967C38 43.9967 44.9967 34.5954 44.9967 22.9983C44.9967 11.4013 38 2 23.9983 2C9.99665 2 3 11.4013 3 22.9983C3 34.5954 9.99665 43.9967 23.9983 43.9967Z" fill="url(#paint5_radial_592_6619)"/>
<path d="M23.9983 43.9967C38 43.9967 44.9967 34.5954 44.9967 22.9983C44.9967 11.4013 38 2 23.9983 2C9.99665 2 3 11.4013 3 22.9983C3 34.5954 9.99665 43.9967 23.9983 43.9967Z" fill="url(#paint6_radial_592_6619)"/>
<path d="M23.9983 43.9967C38 43.9967 44.9967 34.5954 44.9967 22.9983C44.9967 11.4013 38 2 23.9983 2C9.99665 2 3 11.4013 3 22.9983C3 34.5954 9.99665 43.9967 23.9983 43.9967Z" fill="url(#paint7_radial_592_6619)"/>
<path d="M23.9983 43.9967C38 43.9967 44.9967 34.5954 44.9967 22.9983C44.9967 11.4013 38 2 23.9983 2C9.99665 2 3 11.4013 3 22.9983C3 34.5954 9.99665 43.9967 23.9983 43.9967Z" fill="url(#paint8_radial_592_6619)"/>
<path d="M23.9983 43.9967C38 43.9967 44.9967 34.5954 44.9967 22.9983C44.9967 11.4013 38 2 23.9983 2C9.99665 2 3 11.4013 3 22.9983C3 34.5954 9.99665 43.9967 23.9983 43.9967Z" fill="url(#paint9_radial_592_6619)"/>
<path d="M23.9983 43.9967C38 43.9967 44.9967 34.5954 44.9967 22.9983C44.9967 11.4013 38 2 23.9983 2C9.99665 2 3 11.4013 3 22.9983C3 34.5954 9.99665 43.9967 23.9983 43.9967Z" fill="url(#paint10_radial_592_6619)"/>
<path d="M23.9983 43.9967C38 43.9967 44.9967 34.5954 44.9967 22.9983C44.9967 11.4013 38 2 23.9983 2C9.99665 2 3 11.4013 3 22.9983C3 34.5954 9.99665 43.9967 23.9983 43.9967Z" fill="url(#paint11_radial_592_6619)"/>
<path d="M23.9983 43.9967C38 43.9967 44.9967 34.5954 44.9967 22.9983C44.9967 11.4013 38 2 23.9983 2C9.99665 2 3 11.4013 3 22.9983C3 34.5954 9.99665 43.9967 23.9983 43.9967Z" fill="url(#paint12_radial_592_6619)"/>
<path d="M23.9983 43.9967C38 43.9967 44.9967 34.5954 44.9967 22.9983C44.9967 11.4013 38 2 23.9983 2C9.99665 2 3 11.4013 3 22.9983C3 34.5954 9.99665 43.9967 23.9983 43.9967Z" fill="url(#paint13_radial_592_6619)"/>
<path d="M23.9983 43.9967C38 43.9967 44.9967 34.5954 44.9967 22.9983C44.9967 11.4013 38 2 23.9983 2C9.99665 2 3 11.4013 3 22.9983C3 34.5954 9.99665 43.9967 23.9983 43.9967Z" fill="url(#paint14_radial_592_6619)"/>
<path d="M23.9983 43.9967C38 43.9967 44.9967 34.5954 44.9967 22.9983C44.9967 11.4013 38 2 23.9983 2C9.99665 2 3 11.4013 3 22.9983C3 34.5954 9.99665 43.9967 23.9983 43.9967Z" fill="url(#paint15_radial_592_6619)"/>
</g>
<path id="Eye" fill-rule="evenodd" clip-rule="evenodd" d="M34.1579 14.8473C33.845 14.428 33.3264 13.9926 32.3082 14.0001C31.2781 14.0077 30.7663 14.4484 30.4657 14.8569C30.2996 15.0826 30.1904 15.3149 30.1238 15.4924C30.0912 15.5793 30.0709 15.6474 30.0601 15.6872C30.0552 15.7049 30.0524 15.7166 30.0513 15.7212C29.8857 16.5247 29.1037 17.0473 28.2962 16.8904C27.483 16.7324 26.9518 15.945 27.1099 15.1318C27.1652 14.8999 27.1652 14.8999 27.1652 14.8999C27.1975 14.7813 27.2457 14.6231 27.3151 14.4382C27.4525 14.0723 27.6809 13.5796 28.0495 13.0787C28.8182 12.0341 30.1639 11.0159 32.2861 11.0002C34.4203 10.9844 35.7825 12.008 36.5624 13.0535C36.9369 13.5554 37.1716 14.0508 37.3136 14.4184C37.3854 14.6041 37.4357 14.7631 37.4695 14.8821C37.6692 15.5854 37.3855 16.6751 36.3632 16.8869C35.5574 17.0539 34.7686 16.5405 34.5935 15.7385C34.5923 15.7337 34.5891 15.721 34.5836 15.7014C34.5717 15.6597 34.5498 15.589 34.5152 15.4994C34.4444 15.3163 34.3298 15.0778 34.1579 14.8473Z" fill="url(#paint16_radial_592_6619)"/>
<path id="Eye_2" fill-rule="evenodd" clip-rule="evenodd" d="M17.611 14.8473C17.2981 14.428 16.7795 13.9926 15.7614 14.0001C14.7312 14.0077 14.2194 14.4484 13.9189 14.8569C13.7527 15.0826 13.6436 15.3149 13.5769 15.4924C13.5443 15.5793 13.524 15.6474 13.5132 15.6872C13.5084 15.7049 13.5056 15.7166 13.5045 15.7212C13.3388 16.5247 12.5568 17.0473 11.7493 16.8904C10.9361 16.7324 10.4049 15.945 10.563 15.1318C10.6183 14.8999 10.6183 14.8999 10.6183 14.8999C10.6506 14.7813 10.6989 14.6231 10.7682 14.4382C10.9056 14.0723 11.134 13.5796 11.5026 13.0787C12.2714 12.0341 13.617 11.0159 15.7392 11.0002C17.8734 10.9844 19.2356 12.008 20.0156 13.0535C20.39 13.5554 20.6247 14.0508 20.7667 14.4184C20.8385 14.6041 20.8889 14.7631 20.9226 14.8821C21.1223 15.5854 20.8387 16.6751 19.8163 16.8869C19.0105 17.0539 18.2218 16.5405 18.0466 15.7385C18.0454 15.7337 18.0422 15.721 18.0367 15.7014C18.0248 15.6597 18.0029 15.589 17.9683 15.4994C17.8975 15.3163 17.7829 15.0778 17.611 14.8473Z" fill="url(#paint17_radial_592_6619)"/>
<path id="Mouth" d="M24 38C9 38 9 23 9 23H39C39 23 39 38 24 38Z" fill="url(#paint18_radial_592_6619)"/>
<g id="Teeth">
<path d="M11.7588 29.2942L10.5 23H37.5L36.2412 29.2942C36.1009 29.9953 35.4853 30.5 34.7703 30.5H13.2297C12.5147 30.5 11.8991 29.9953 11.7588 29.2942Z" fill="url(#paint19_radial_592_6619)"/>
<path d="M11.7588 29.2942L10.5 23H37.5L36.2412 29.2942C36.1009 29.9953 35.4853 30.5 34.7703 30.5H13.2297C12.5147 30.5 11.8991 29.9953 11.7588 29.2942Z" fill="url(#paint20_linear_592_6619)"/>
</g>
<path id="Intersect" fill-rule="evenodd" clip-rule="evenodd" d="M12.5143 33.0732C14.7006 35.7936 18.2471 38 24 38C29.752 38 33.2983 35.7943 35.4847 33.0745L35.7604 31.6961C35.8842 31.0773 35.4109 30.5 34.7798 30.5H13.2195C12.5884 30.5 12.1151 31.0773 12.2389 31.6961L12.5143 33.0732Z" fill="url(#paint21_linear_592_6619)"/>
<g id="Vector 776">
<path d="M37.1884 30.0725L39.6764 34.3223L36.1667 35.3204C33.7424 34.5182 32.3144 32.9762 31.4536 31.3913C31.0905 30.7229 31.0935 29.4951 32.5363 29.4951H36.1814C36.5957 29.4951 36.979 29.7149 37.1884 30.0725Z" fill="#4686EC"/>
<path d="M37.1884 30.0725L39.6764 34.3223L36.1667 35.3204C33.7424 34.5182 32.3144 32.9762 31.4536 31.3913C31.0905 30.7229 31.0935 29.4951 32.5363 29.4951H36.1814C36.5957 29.4951 36.979 29.7149 37.1884 30.0725Z" fill="url(#paint22_radial_592_6619)"/>
<path d="M37.1884 30.0725L39.6764 34.3223L36.1667 35.3204C33.7424 34.5182 32.3144 32.9762 31.4536 31.3913C31.0905 30.7229 31.0935 29.4951 32.5363 29.4951H36.1814C36.5957 29.4951 36.979 29.7149 37.1884 30.0725Z" fill="url(#paint23_linear_592_6619)"/>
</g>
<g id="Vector 777">
<path d="M39.3923 30.0725L36.9043 34.3223L40.414 35.3204C42.8383 34.5182 44.2663 32.9762 45.1271 31.3913C45.4902 30.7229 45.4872 29.4951 44.0444 29.4951H40.3993C39.985 29.4951 39.6017 29.7149 39.3923 30.0725Z" fill="#4686EC"/>
<path d="M39.3923 30.0725L36.9043 34.3223L40.414 35.3204C42.8383 34.5182 44.2663 32.9762 45.1271 31.3913C45.4902 30.7229 45.4872 29.4951 44.0444 29.4951H40.3993C39.985 29.4951 39.6017 29.7149 39.3923 30.0725Z" fill="url(#paint24_radial_592_6619)"/>
<path d="M39.3923 30.0725L36.9043 34.3223L40.414 35.3204C42.8383 34.5182 44.2663 32.9762 45.1271 31.3913C45.4902 30.7229 45.4872 29.4951 44.0444 29.4951H40.3993C39.985 29.4951 39.6017 29.7149 39.3923 30.0725Z" fill="url(#paint25_linear_592_6619)"/>
</g>
<path id="Vector 778" d="M39.3923 30.0725L36.9043 34.3223L40.414 35.3204C42.8383 34.5182 44.2663 32.9762 45.1271 31.3913C45.4902 30.7229 45.4872 29.4951 44.0444 29.4951H40.3993C39.985 29.4951 39.6017 29.7149 39.3923 30.0725Z" fill="url(#paint26_linear_592_6619)"/>
<g id="Ellipse 169">
<circle cx="38.3624" cy="39.7456" r="5.8622" fill="url(#paint27_linear_592_6619)"/>
<circle cx="38.3624" cy="39.7456" r="5.8622" fill="url(#paint28_linear_592_6619)"/>
</g>
<ellipse id="Ellipse 170" cx="38.3624" cy="39.7456" rx="5.06909" ry="5.06909" fill="url(#paint29_linear_592_6619)"/>
<g id="Ellipse 171">
<ellipse cx="38.3624" cy="39.7456" rx="4.42529" ry="4.42529" fill="url(#paint30_linear_592_6619)"/>
<ellipse cx="38.3624" cy="39.7456" rx="4.42529" ry="4.42529" fill="url(#paint31_radial_592_6619)"/>
<ellipse cx="38.3624" cy="39.7456" rx="4.42529" ry="4.42529" fill="url(#paint32_radial_592_6619)"/>
<ellipse cx="38.3624" cy="39.7456" rx="4.42529" ry="4.42529" fill="url(#paint33_radial_592_6619)"/>
</g>
<path id="Shape" d="M39.1863 38.8956L39.7974 37.8395C39.8983 37.6615 39.8983 37.4479 39.7974 37.2699C39.6965 37.0919 39.5067 36.9851 39.3049 36.9851H37.5012C37.1867 36.9851 36.9316 37.2402 36.9316 37.5547C36.9316 37.8692 37.1867 38.1243 37.5012 38.1243H37.8884C38.0805 38.1243 38.2008 38.332 38.1052 38.4987L37.8809 38.8897C37.8038 38.9846 37.7563 39.1092 37.7563 39.2397C37.7563 39.5542 38.0115 39.8093 38.3259 39.8093C38.6819 39.8093 38.9727 40.1001 38.9727 40.4561C38.9727 40.8121 38.6819 41.1028 38.3259 41.1028C38.053 41.1028 37.8097 40.9307 37.7207 40.6756C37.6139 40.3789 37.2936 40.2306 36.9969 40.3315C36.7002 40.4383 36.546 40.7587 36.6528 41.0553C36.9079 41.7614 37.5784 42.236 38.3259 42.236C39.3049 42.236 40.1059 41.441 40.1059 40.4561C40.1 39.7797 39.7321 39.1982 39.1863 38.8956Z" fill="#6C3F48"/>
</g>
<defs>
<radialGradient id="paint0_radial_592_6619" cx="0" cy="0" r="1" gradientUnits="userSpaceOnUse" gradientTransform="translate(38.25 12.5) rotate(131.878) scale(58.423)">
<stop stop-color="#FFF478"/>
<stop offset="0.474827" stop-color="#FFB02E"/>
<stop offset="1" stop-color="#F70A8D"/>
</radialGradient>
<radialGradient id="paint1_radial_592_6619" cx="0" cy="0" r="1" gradientUnits="userSpaceOnUse" gradientTransform="translate(24 17.75) rotate(101.31) scale(26.7699 34.2871)">
<stop offset="0.787821" stop-color="#F59639" stop-opacity="0"/>
<stop offset="0.972509" stop-color="#FF7DCE"/>
</radialGradient>
<radialGradient id="paint2_radial_592_6619" cx="0" cy="0" r="1" gradientUnits="userSpaceOnUse" gradientTransform="translate(27 20) rotate(135) scale(61.5183)">
<stop offset="0.314853" stop-opacity="0"/>
<stop offset="1"/>
</radialGradient>
<radialGradient id="paint3_radial_592_6619" cx="0" cy="0" r="1" gradientUnits="userSpaceOnUse" gradientTransform="translate(24 24.5) rotate(77.692) scale(42.2204)">
<stop offset="0.507903" stop-color="#7D6133" stop-opacity="0"/>
<stop offset="1" stop-color="#715B32"/>
</radialGradient>
<radialGradient id="paint4_radial_592_6619" cx="0" cy="0" r="1" gradientUnits="userSpaceOnUse" gradientTransform="translate(24.75 23.75) rotate(55.7131) scale(19.9703 14.4755)">
<stop stop-color="#FFB849"/>
<stop offset="1" stop-color="#FFB847" stop-opacity="0"/>
</radialGradient>
<radialGradient id="paint5_radial_592_6619" cx="0" cy="0" r="1" gradientUnits="userSpaceOnUse" gradientTransform="translate(30.75 26) rotate(9.86581) scale(17.5089)">
<stop stop-color="#FFA64B"/>
<stop offset="0.900412" stop-color="#FFAE46" stop-opacity="0"/>
</radialGradient>
<radialGradient id="paint6_radial_592_6619" cx="0" cy="0" r="1" gradientUnits="userSpaceOnUse" gradientTransform="translate(26.25 21.5) rotate(43.9708) scale(88.5794)">
<stop offset="0.185425" stop-opacity="0"/>
<stop offset="1" stop-opacity="0.4"/>
</radialGradient>
<radialGradient id="paint7_radial_592_6619" cx="0" cy="0" r="1" gradientUnits="userSpaceOnUse" gradientTransform="translate(13.9535 18.6128) rotate(-10.3912) scale(10.6064 7.82798)">
<stop stop-color="#F1A227"/>
<stop offset="1" stop-color="#F5A72C" stop-opacity="0"/>
</radialGradient>
<radialGradient id="paint8_radial_592_6619" cx="0" cy="0" r="1" gradientUnits="userSpaceOnUse" gradientTransform="translate(28.4754 15.3922) rotate(103.681) scale(3.09762 2.28617)">
<stop stop-color="#E7982E"/>
<stop offset="1" stop-color="#E39632" stop-opacity="0"/>
</radialGradient>
<radialGradient id="paint9_radial_592_6619" cx="0" cy="0" r="1" gradientUnits="userSpaceOnUse" gradientTransform="translate(35.0477 16.0348) scale(2.0755)">
<stop stop-color="#D28118"/>
<stop offset="1" stop-color="#D68623" stop-opacity="0"/>
</radialGradient>
<radialGradient id="paint10_radial_592_6619" cx="0" cy="0" r="1" gradientUnits="userSpaceOnUse" gradientTransform="translate(33.3123 14.2789) rotate(45.9878) scale(3.36161 1.15173)">
<stop stop-color="#D28118"/>
<stop offset="1" stop-color="#D68623" stop-opacity="0"/>
</radialGradient>
<radialGradient id="paint11_radial_592_6619" cx="0" cy="0" r="1" gradientUnits="userSpaceOnUse" gradientTransform="translate(31.3659 13.7052) rotate(9.61849) scale(3.17465 1.30322)">
<stop stop-color="#D28118"/>
<stop offset="1" stop-color="#D68623" stop-opacity="0"/>
</radialGradient>
<radialGradient id="paint12_radial_592_6619" cx="0" cy="0" r="1" gradientUnits="userSpaceOnUse" gradientTransform="translate(18.0712 14.3958) rotate(65.4048) scale(3.61797 1.81327)">
<stop stop-color="#BE7227"/>
<stop offset="1" stop-color="#C67A2A" stop-opacity="0"/>
</radialGradient>
<radialGradient id="paint13_radial_592_6619" cx="0" cy="0" r="1" gradientUnits="userSpaceOnUse" gradientTransform="translate(16.319 13.3646) rotate(29.8052) scale(2.84532 2.10214)">
<stop stop-color="#D07E2D"/>
<stop offset="1" stop-color="#D98833" stop-opacity="0"/>
</radialGradient>
<radialGradient id="paint14_radial_592_6619" cx="0" cy="0" r="1" gradientUnits="userSpaceOnUse" gradientTransform="translate(14.6564 13.3646) rotate(-8.79514) scale(3.10468 2.37576)">
<stop stop-color="#D88431"/>
<stop offset="1" stop-color="#CF8231" stop-opacity="0"/>
</radialGradient>
<radialGradient id="paint15_radial_592_6619" cx="0" cy="0" r="1" gradientUnits="userSpaceOnUse" gradientTransform="translate(11.5417 15.0749) rotate(-66.0375) scale(3.87827 2.66036)">
<stop stop-color="#DA8924"/>
<stop offset="1" stop-color="#DC8924" stop-opacity="0"/>
</radialGradient>
<radialGradient id="paint16_radial_592_6619" cx="0" cy="0" r="1" gradientUnits="userSpaceOnUse" gradientTransform="translate(32.3057 15.2539) rotate(90) scale(4.78125 6.46571)">
<stop offset="0.307692" stop-color="#452A3D"/>
<stop offset="0.626374" stop-color="#594052"/>
<stop offset="1" stop-color="#482C40"/>
</radialGradient>
<radialGradient id="paint17_radial_592_6619" cx="0" cy="0" r="1" gradientUnits="userSpaceOnUse" gradientTransform="translate(15.7588 15.2539) rotate(90) scale(4.78125 6.46571)">
<stop offset="0.307692" stop-color="#452A3D"/>
<stop offset="0.626374" stop-color="#594052"/>
<stop offset="1" stop-color="#482C40"/>
</radialGradient>
<radialGradient id="paint18_radial_592_6619" cx="0" cy="0" r="1" gradientUnits="userSpaceOnUse" gradientTransform="translate(22.5 36.5) rotate(-90) scale(13.5 27)">
<stop stop-color="#F70A8D"/>
<stop offset="1" stop-color="#89029C"/>
</radialGradient>
<radialGradient id="paint19_radial_592_6619" cx="0" cy="0" r="1" gradientUnits="userSpaceOnUse" gradientTransform="translate(32.25 23) rotate(138.576) scale(17.0037)">
<stop stop-color="white"/>
<stop offset="1" stop-color="#ECCDFF"/>
</radialGradient>
<linearGradient id="paint20_linear_592_6619" x1="24" y1="28.5547" x2="24" y2="30.5" gradientUnits="userSpaceOnUse">
<stop stop-color="#F4DFFF" stop-opacity="0"/>
<stop offset="0.865521" stop-color="#FFB8FF"/>
<stop offset="1" stop-color="#DA7CE9"/>
</linearGradient>
<linearGradient id="paint21_linear_592_6619" x1="25.5911" y1="30.5" x2="23.6959" y2="36.9257" gradientUnits="userSpaceOnUse">
<stop stop-color="white"/>
<stop offset="1" stop-color="#ECCDFF"/>
</linearGradient>
<radialGradient id="paint22_radial_592_6619" cx="0" cy="0" r="1" gradientUnits="userSpaceOnUse" gradientTransform="translate(36.6448 34.9089) rotate(-123.321) scale(2.68587 10.0306)">
<stop stop-color="#3669D9"/>
<stop offset="1" stop-color="#3669D9" stop-opacity="0"/>
</radialGradient>
<linearGradient id="paint23_linear_592_6619" x1="32.8401" y1="29.1805" x2="33.8875" y2="31.7882" gradientUnits="userSpaceOnUse">
<stop stop-color="#3D89EC"/>
<stop offset="1" stop-color="#3D89EC" stop-opacity="0"/>
</linearGradient>
<radialGradient id="paint24_radial_592_6619" cx="0" cy="0" r="1" gradientUnits="userSpaceOnUse" gradientTransform="translate(39.9359 34.9089) rotate(-57.2648) scale(1.77873 3.90164)">
<stop stop-color="#3669D9"/>
<stop offset="1" stop-color="#3669D9" stop-opacity="0"/>
</radialGradient>
<linearGradient id="paint25_linear_592_6619" x1="43.7406" y1="29.1805" x2="42.6932" y2="31.7882" gradientUnits="userSpaceOnUse">
<stop stop-color="#3D89EC"/>
<stop offset="1" stop-color="#3D89EC" stop-opacity="0"/>
</linearGradient>
<linearGradient id="paint26_linear_592_6619" x1="38.1883" y1="32.1211" x2="38.3853" y2="32.2298" gradientUnits="userSpaceOnUse">
<stop stop-color="#1A6DD8"/>
<stop offset="1" stop-color="#1A6DD8" stop-opacity="0"/>
</linearGradient>
<linearGradient id="paint27_linear_592_6619" x1="42.8841" y1="36.7151" x2="37.4304" y2="41.7015" gradientUnits="userSpaceOnUse">
<stop stop-color="#F6BC7F"/>
<stop offset="1" stop-color="#A76740"/>
</linearGradient>
<linearGradient id="paint28_linear_592_6619" x1="36.314" y1="45.8927" x2="37.636" y2="38.2262" gradientUnits="userSpaceOnUse">
<stop stop-color="#B05B5B"/>
<stop offset="1" stop-color="#B05B5B" stop-opacity="0"/>
</linearGradient>
<linearGradient id="paint29_linear_592_6619" x1="42.9811" y1="38.8598" x2="38.3624" y2="38.8598" gradientUnits="userSpaceOnUse">
<stop stop-color="#CD8858"/>
<stop offset="1" stop-color="#D28D59"/>
</linearGradient>
<linearGradient id="paint30_linear_592_6619" x1="35.5849" y1="40.8955" x2="42.9496" y2="38.6671" gradientUnits="userSpaceOnUse">
<stop stop-color="#D38E5F"/>
<stop offset="1" stop-color="#BE794E"/>
</linearGradient>
<radialGradient id="paint31_radial_592_6619" cx="0" cy="0" r="1" gradientUnits="userSpaceOnUse" gradientTransform="translate(40.0417 39.0747) rotate(156.644) scale(6.64943 5.66604)">
<stop offset="0.837399" stop-color="#E5AC75" stop-opacity="0"/>
<stop offset="1" stop-color="#E5AC75"/>
</radialGradient>
<radialGradient id="paint32_radial_592_6619" cx="0" cy="0" r="1" gradientUnits="userSpaceOnUse" gradientTransform="translate(37.7972 40.2704) rotate(-41.2938) scale(5.22992 5.02174)">
<stop offset="0.909611" stop-color="#B36441" stop-opacity="0"/>
<stop offset="1" stop-color="#B36441"/>
</radialGradient>
<radialGradient id="paint33_radial_592_6619" cx="0" cy="0" r="1" gradientUnits="userSpaceOnUse" gradientTransform="translate(38.2348 39.377) rotate(37.9308) scale(4.9236 5.57961)">
<stop offset="0.925972" stop-color="#AB662B" stop-opacity="0"/>
<stop offset="1" stop-color="#AB662B"/>
</radialGradient>
</defs>
</svg>
