<svg viewBox="0 0 24 24" fill="none" xmlns="http://www.w3.org/2000/svg">
<g id="Vector">
<path d="M12 24C18.6274 24 24 18.6274 24 12C24 5.37258 18.6274 0 12 0C5.37258 0 0 5.37258 0 12C0 18.6274 5.37258 24 12 24Z" fill="#FFC84D"/>
<path d="M8.86073 11.147C9.66132 11.147 10.3103 10.498 10.3103 9.6974C10.3103 8.89681 9.66132 8.2478 8.86073 8.2478C8.06014 8.2478 7.41113 8.89681 7.41113 9.6974C7.41113 10.498 8.06014 11.147 8.86073 11.147Z" fill="black"/>
<path d="M15.1392 11.147C15.9398 11.147 16.5888 10.498 16.5888 9.6974C16.5888 8.89681 15.9398 8.2478 15.1392 8.2478C14.3386 8.2478 13.6896 8.89681 13.6896 9.6974C13.6896 10.498 14.3386 11.147 15.1392 11.147Z" fill="black"/>
<path d="M11.9999 15.0987C9.94965 15.0987 8.43216 14.7305 7.52908 14.4261C7.12862 14.291 6.79811 14.7874 7.09365 15.0898C7.98713 16.0046 9.89685 16.7966 12.0006 16.7966C14.1044 16.7966 16.0141 16.0046 16.9076 15.0898C17.2031 14.7874 16.8726 14.2917 16.4722 14.4261C15.5684 14.7305 14.0509 15.0987 12.0013 15.0987H11.9999Z" fill="#FF6D00"/>
</g>
</svg>
