<svg width="24" height="24" viewBox="0 0 24 24" fill="none" xmlns="http://www.w3.org/2000/svg">
<g id="&#236;&#182;&#156;&#236;&#132;&#157;&#236;&#157;&#180;&#235;&#170;&#168;&#236;&#167;&#128;" clip-path="url(#clip0_283_1653)">
<path id="Vector" d="M17.1 2.1001H6.9C4.24903 2.1001 2.1 4.24913 2.1 6.9001V17.1001C2.1 19.7511 4.24903 21.9001 6.9 21.9001H17.1C19.751 21.9001 21.9 19.7511 21.9 17.1001V6.9001C21.9 4.24913 19.751 2.1001 17.1 2.1001Z" fill="#FFCD00"/>
<path id="Vector_2" d="M17.127 14.6586V7.63325C17.127 7.21325 16.7868 6.87305 16.3668 6.87305H9.3414C8.9922 6.87305 8.817 7.29545 9.0642 7.54265L10.782 9.26045C10.9524 9.43085 10.9524 9.70745 10.782 9.87785L6.9822 13.6776C6.8376 13.8222 6.8376 14.0568 6.9822 14.202L9.798 17.0178C9.9426 17.1624 10.1772 17.1624 10.3224 17.0178L14.1222 13.218C14.2926 13.0476 14.5692 13.0476 14.7396 13.218L16.4574 14.9358C16.7046 15.183 17.127 15.0078 17.127 14.6586Z" fill="#313D4C"/>
</g>
<defs>
<clipPath id="clip0_283_1653">
<rect width="24" height="24" fill="white"/>
</clipPath>
</defs>
</svg>
