<svg width="26" height="26" viewBox="0 0 26 26" fill="none" xmlns="http://www.w3.org/2000/svg">
<g id="&#237;&#156;&#180;&#235;&#140;&#128;&#237;&#143;&#176;&#236;&#160;&#156;&#236;&#182;&#156;NEW/&#236;&#136;&#152;&#235;&#138;&#165;&#236;&#132;&#160;&#235;&#176;&#176;&#235;&#167;&#136;&#237;&#129;&#172;">
<circle id="Ellipse 29" cx="13" cy="13" r="12.5" fill="#F3F4F6" stroke="#1D1D1F"/>
<g id="&#235;&#161;&#156;&#234;&#179;&#160;_2">
<path id="Vector" d="M18.9027 10.2386V8.72078L13.2389 5.27051L7.18864 8.71375L18.8746 16.4189L18.9027 16.3697V14.8835L12.1005 10.4002L13.1511 9.78186L18.9027 13.3867V11.8548L13.1722 8.26753L10.8954 9.60618L9.66567 8.79456L13.2143 6.77429L18.9027 10.2386Z" fill="#1D1D1F"/>
<path id="Vector_2" d="M7.02708 9.79235V11.2751L13.8292 15.7618L12.7787 16.3802L7.02708 12.7753V14.3072L12.7576 17.8945L15.0344 16.5559L16.2641 17.3675L12.7155 19.3878L7.02708 15.9234V17.4413L12.6944 20.8915L18.7411 17.4483L7.05871 9.74316L7.02708 9.79235Z" fill="#1D1D1F"/>
</g>
</g>
</svg>
