<svg width="15" height="15" viewBox="0 0 15 15" fill="none" xmlns="http://www.w3.org/2000/svg">
<circle cx="7.5" cy="7.5" r="6.5" stroke="#EF4452" stroke-width="2"/>
<g clip-path="url(#clip0_0_1)">
<path d="M10.5828 11.2504C10.3982 11.2504 10.2136 11.18 10.0728 11.0393L4.01511 4.98157C3.73328 4.70003 3.73328 4.2434 4.01511 3.96186C4.29665 3.68003 4.75357 3.68003 5.03482 3.96186L11.0925 10.0196C11.3743 10.3011 11.3743 10.7577 11.0925 11.0393C10.9517 11.18 10.7674 11.2504 10.5828 11.2504Z" fill="#EF4452"/>
<path d="M4.52511 11.2502C4.3405 11.2502 4.15588 11.1798 4.01511 11.0391C3.73328 10.7575 3.73328 10.3009 4.01511 10.0194L10.0728 3.96137C10.3543 3.67954 10.8113 3.67954 11.0925 3.96137C11.3743 4.24291 11.3743 4.69954 11.0925 4.98108L5.03482 11.0388C4.89405 11.1795 4.70944 11.2499 4.52482 11.2499L4.52511 11.2502Z" fill="#EF4452"/>
</g>
<defs>
<clipPath id="clip0_0_1">
<rect width="11.5385" height="11.5385" fill="white" transform="translate(1.73077 1.73096)"/>
</clipPath>
</defs>
</svg>
