<svg width="14" height="12" viewBox="0 0 14 12" fill="none" xmlns="http://www.w3.org/2000/svg">
<path id="Vector" d="M7.30798 0.417942L8.73601 3.16691C8.85083 3.3883 9.07329 3.54152 9.33011 3.57704L12.5235 4.01804C13.1708 4.10739 13.4292 4.86307 12.9608 5.2969L10.6501 7.43657C10.4643 7.60881 10.3793 7.85712 10.4231 8.1004L10.9685 11.1217C11.0792 11.7342 10.4024 12.2014 9.82337 11.9122L6.9673 10.4855C6.73729 10.3707 6.46271 10.3707 6.2327 10.4855L3.37663 11.9122C2.79763 12.2014 2.12081 11.7342 2.23148 11.1217L2.77686 8.1004C2.82067 7.85712 2.73607 7.60917 2.54987 7.43657L0.239176 5.2969C-0.229157 4.86307 0.0291815 4.10739 0.676538 4.01804L3.86989 3.57704C4.12709 3.54152 4.34917 3.3883 4.46399 3.16691L5.89202 0.417942C6.18133 -0.139314 7.01791 -0.139314 7.3076 0.417942H7.30798Z" fill="#FFCD00"/>
</svg>
