<svg width="22" height="22" viewBox="0 0 22 22" fill="none" xmlns="http://www.w3.org/2000/svg">
<g id="Group">
<path id="Vector" d="M11 2.30005C6.203 2.30005 2.3 6.20305 2.3 11C2.3 15.797 6.203 19.7 11 19.7C15.797 19.7 19.7 15.797 19.7 11C19.7 6.20305 15.797 2.30005 11 2.30005ZM11.9 11C11.9 11.0108 11.897 11.021 11.897 11.0318C11.8958 11.0642 11.8922 11.0954 11.8874 11.1272C11.8832 11.1554 11.8796 11.183 11.873 11.2106C11.8664 11.2382 11.8568 11.2652 11.8478 11.2922C11.8382 11.3204 11.8286 11.3486 11.816 11.3756C11.8046 11.4008 11.7902 11.4248 11.7758 11.4494C11.7608 11.4752 11.7464 11.5004 11.729 11.5244C11.7122 11.5478 11.6936 11.5688 11.6744 11.5904C11.6552 11.6126 11.6354 11.6348 11.6138 11.6546C11.594 11.6732 11.5718 11.69 11.5496 11.7074C11.5244 11.7272 11.4986 11.7464 11.471 11.7632C11.4614 11.7692 11.4542 11.7764 11.4446 11.7818C11.4338 11.7878 11.4224 11.7896 11.4116 11.795C11.3648 11.8196 11.3156 11.8394 11.264 11.855C11.2448 11.861 11.2256 11.8682 11.2064 11.873C11.1446 11.8874 11.0804 11.8964 11.0144 11.8976C11.0096 11.8976 11.0054 11.8994 11.0006 11.8994C10.9982 11.8994 10.9958 11.8988 10.9934 11.8982C10.9226 11.8982 10.8548 11.8874 10.7894 11.8718C10.7702 11.867 10.7522 11.8604 10.733 11.8544C10.6826 11.8388 10.634 11.819 10.5878 11.795C10.5692 11.7854 10.5506 11.7764 10.5326 11.765C10.4768 11.7308 10.424 11.6918 10.3772 11.6468C10.373 11.6426 10.3682 11.6402 10.364 11.636C10.313 11.585 10.2704 11.5262 10.2326 11.4638C10.2284 11.4566 10.2218 11.4512 10.217 11.444L7.7036 7.02925C7.4576 6.59725 7.6088 6.04765 8.0408 5.80165C8.4728 5.55505 9.0224 5.70625 9.2684 6.13885L10.1 7.59925V5.19565C10.1 4.69825 10.5026 4.29565 11 4.29565C11.4974 4.29565 11.9 4.69825 11.9 5.19565V10.9988V11Z" fill="#EF4452"/>
<path id="Vector_2" d="M11 0.5C5.201 0.5 0.5 5.201 0.5 11C0.5 16.799 5.201 21.5 11 21.5C16.799 21.5 21.5 16.799 21.5 11C21.5 5.201 16.799 0.5 11 0.5ZM11 19.7C6.203 19.7 2.3 15.797 2.3 11C2.3 6.203 6.203 2.3 11 2.3C15.797 2.3 19.7 6.203 19.7 11C19.7 15.797 15.797 19.7 11 19.7Z" fill="#D12030"/>
<path id="Vector_3" d="M10.1 7.59991L9.2684 6.13951C9.0224 5.70751 8.4728 5.55631 8.0408 5.80231C7.6088 6.04831 7.4582 6.59791 7.7036 7.02991L10.217 11.4447C10.2212 11.4525 10.2278 11.4573 10.2326 11.4645C10.1498 11.3283 10.0994 11.1699 10.0994 10.9989V7.59871L10.1 7.59991Z" fill="white"/>
<path id="Vector_4" d="M11 4.29688C10.5026 4.29688 10.1 4.69948 10.1 5.19688V11.0001C10.1 11.1711 10.1504 11.3295 10.2332 11.4657C10.271 11.5281 10.3136 11.5863 10.3646 11.6379C10.3688 11.6421 10.3736 11.6445 10.3778 11.6487C10.4246 11.6937 10.4774 11.7327 10.5332 11.7669C10.5512 11.7777 10.5698 11.7873 10.5884 11.7969C10.6346 11.8209 10.6826 11.8401 10.7336 11.8563C10.7522 11.8623 10.7708 11.8689 10.79 11.8737C10.856 11.8893 10.9238 11.9001 10.994 11.9001C10.9958 11.9001 10.9982 11.9007 11 11.9007C11.0048 11.9007 11.0096 11.8995 11.0144 11.8995C11.0804 11.8983 11.1446 11.8893 11.2064 11.8749C11.2262 11.8701 11.2448 11.8629 11.264 11.8569C11.3156 11.8413 11.3648 11.8209 11.4116 11.7969C11.4314 11.7867 11.4518 11.7765 11.471 11.7645C11.4986 11.7477 11.5238 11.7285 11.5496 11.7087C11.5712 11.6919 11.5934 11.6751 11.6138 11.6559C11.6354 11.6355 11.6546 11.6139 11.6744 11.5917C11.693 11.5701 11.7122 11.5485 11.729 11.5257C11.7464 11.5017 11.7608 11.4765 11.7758 11.4507C11.7896 11.4267 11.804 11.4027 11.816 11.3769C11.8286 11.3499 11.8382 11.3217 11.8478 11.2935C11.8568 11.2665 11.8664 11.2401 11.873 11.2119C11.8796 11.1849 11.8838 11.1567 11.8874 11.1285C11.8922 11.0973 11.8958 11.0655 11.897 11.0331C11.897 11.0223 11.9 11.0121 11.9 11.0013V5.19807C11.9 4.70067 11.4974 4.29807 11 4.29807V4.29688Z" fill="#313D4C"/>
</g>
</svg>
