<svg width="42" height="42" viewBox="0 0 42 42" fill="none" xmlns="http://www.w3.org/2000/svg">
<g id="u1F64B_u1F3FC_u200D_u2642" clip-path="url(#clip0_220_1355)">
<g id="Group">
<path id="Vector" d="M16.6183 9.46256C16.0198 9.06881 15.2145 9.23471 14.8207 9.83321L13.4106 11.3505L13.0557 9.62951L12.2157 4.69451V4.69346C12.1107 4.07711 11.5374 3.66131 10.9347 3.76421C10.332 3.86711 9.92879 4.44881 10.0338 5.06516L10.7562 9.31136L10.2081 9.42476L9.03104 4.58006C8.88404 3.97316 8.28239 3.59831 7.68914 3.74216C7.09484 3.88601 6.73364 4.49501 6.88064 5.10296L8.04614 9.90041L7.59674 10.122L6.01649 6.14141C5.79074 5.57231 5.14709 5.29406 4.57904 5.51981C4.01099 5.74556 3.73379 6.38921 3.95954 6.95831L5.60489 11.1027L5.05469 11.3736L3.67499 8.50076C3.40409 7.93586 2.73734 7.69226 2.18609 7.95686C1.63484 8.22146 1.40909 8.89346 1.67999 9.45836L4.27559 14.8627L4.28504 14.8564C5.17439 17.3512 7.78259 18.8769 10.4506 18.3267C11.9101 18.0253 13.1092 17.1612 13.8684 16.0072L16.9911 11.2623C17.3848 10.6638 17.2189 9.85841 16.6204 9.46466L16.6183 9.46256Z" fill="#FFB481"/>
<g id="Group_2">
<path id="Vector_2" d="M28.7815 26.0241L28.7143 26.4147C28.5106 27.596 27.3882 28.3887 26.2059 28.185C25.0246 27.9813 24.2319 26.8578 24.4356 25.6766L24.5028 25.287C23.9778 25.245 23.4486 25.2093 22.9036 25.1988L22.1802 25.1316C15.9138 24.1824 14.9383 18.4484 14.7525 16.5888C14.7241 16.3053 14.4847 16.0964 14.2002 16.1037L4.79954 16.3284C4.49399 16.3358 4.24619 16.5899 4.26614 16.8944C4.57589 21.4986 7.53794 29.1258 14.89 32.8239C15.0391 32.8995 15.1368 33.0497 15.1378 33.2166L15.1872 38.9108C15.1893 39.1596 15.3909 39.3591 15.6397 39.3591H40.2328C40.2328 33.1148 35.8648 27.9614 28.7794 26.0252L28.7815 26.0241Z" fill="#3E5AF3"/>
<path id="Vector_3" d="M28.3794 25.2199C33.3665 25.2199 37.4094 21.177 37.4094 16.1899C37.4094 11.2028 33.3665 7.15991 28.3794 7.15991C23.3922 7.15991 19.3494 11.2028 19.3494 16.1899C19.3494 21.177 23.3922 25.2199 28.3794 25.2199Z" fill="#FFB481"/>
<g id="Group_3">
<path id="Vector_4" d="M23.801 15.4877C24.1857 13.6551 22.9135 11.837 20.9595 11.4268C19.0055 11.0166 17.1096 12.1696 16.7249 14.0022C16.3402 15.8347 17.6123 17.6528 19.5663 18.0631C21.5203 18.4733 23.4162 17.3202 23.801 15.4877Z" fill="#FFB481"/>
<path id="Vector_5" d="M39.9317 18.8744C40.3164 17.0418 39.0442 15.2237 37.0902 14.8135C35.1362 14.4033 33.2403 15.5564 32.8556 17.3889C32.4709 19.2215 33.7431 21.0396 35.6971 21.4498C37.6511 21.86 39.547 20.7069 39.9317 18.8744Z" fill="#FFB481"/>
</g>
<path id="Vector_6" d="M26.2059 28.1849C27.3872 28.3886 28.5096 27.5959 28.7144 26.4146L28.7816 26.024L29.105 24.1498L24.8273 23.4116L24.5039 25.2859L24.4367 25.6754C24.233 26.8567 25.0257 27.9802 26.207 28.1839L26.2059 28.1849Z" fill="#FFB481"/>
<path id="Vector_7" d="M38.9056 15.7541C40.2685 9.70504 36.0885 3.65494 29.7675 3.02074C24.906 2.53354 20.287 5.59849 18.8391 10.2647C18.6921 10.7393 18.5797 11.2149 18.501 11.6895C18.501 11.6895 19.4082 11.6654 19.8261 13.4945L27.0249 8.19514C27.0249 8.19514 32.9091 15.3645 37.6446 16.0355C37.7485 16.0502 37.8756 16.0397 38.0026 16.0134C38.3512 15.9032 38.6809 15.6344 38.9056 15.7541Z" fill="#FFDA86"/>
<g id="Group_4">
<path id="Vector_8" d="M26.9268 15.4381C27.0576 14.815 26.7427 14.2214 26.2234 14.1124C25.7041 14.0034 25.1771 14.4202 25.0463 15.0433C24.9155 15.6665 25.2304 16.26 25.7497 16.369C26.269 16.478 26.796 16.0612 26.9268 15.4381Z" fill="black"/>
<path id="Vector_9" d="M31.8929 16.4806C32.0237 15.8574 31.7088 15.2639 31.1895 15.1549C30.6702 15.0459 30.1432 15.4627 30.0124 16.0858C29.8816 16.709 30.1965 17.3025 30.7158 17.4115C31.2351 17.5205 31.7621 17.1037 31.8929 16.4806Z" fill="black"/>
</g>
<path id="Vector_10" d="M28.706 20.458C28.917 20.5021 29.0252 20.7373 28.9265 20.9295C28.6125 21.5395 27.9195 21.8913 27.215 21.7432C26.5104 21.5952 26.018 20.9956 25.9749 20.31C25.9613 20.0947 26.1545 19.9225 26.3655 19.9677L28.7049 20.4591L28.706 20.458Z" fill="#5C2F17"/>
</g>
</g>
</g>
<defs>
<clipPath id="clip0_220_1355">
<rect width="42" height="42" fill="white"/>
</clipPath>
</defs>
</svg>
