<svg width="42" height="42" viewBox="0 0 42 42" fill="none" xmlns="http://www.w3.org/2000/svg">
<g id="u1F646_u1F3FB_u200D_u2642" clip-path="url(#clip0_217_1152)">
<g id="Group">
<path id="Vector" d="M12.4121 11.6696L13.986 10.2658C14.6832 9.64315 15.1253 8.78425 15.225 7.855L15.372 6.4837L18.6491 5.07985C19.508 4.71235 19.9112 3.72115 19.5521 2.8591C19.2465 2.1241 18.4779 1.70305 17.6925 1.83115C15.2544 2.2291 10.1168 3.63505 6.95734 8.5585L12.4121 11.6696Z" fill="#FFCBA7"/>
<path id="Vector_2" d="M29.9733 11.7326L28.3994 10.3288C27.7022 9.70614 27.2601 8.84724 27.1604 7.91799L27.0134 6.54669L23.7363 5.14284C22.8774 4.77534 22.4742 3.78414 22.8333 2.92209C23.1389 2.18709 23.9075 1.76604 24.6929 1.89414C27.131 2.29209 32.2686 3.69804 35.4281 8.62149L29.9733 11.7326Z" fill="#FFCBA7"/>
<g id="Group_2">
<g id="Group_3">
<path id="Vector_3" d="M21.2037 28.834C25.7873 28.834 29.5029 25.1183 29.5029 20.5348C29.5029 15.9513 25.7873 12.2356 21.2037 12.2356C16.6202 12.2356 12.9045 15.9513 12.9045 20.5348C12.9045 25.1183 16.6202 28.834 21.2037 28.834Z" fill="#FFCBA7"/>
<g id="Group_4">
<path id="Vector_4" d="M13.629 23.8832C15.4638 23.8832 16.9512 22.4879 16.9512 20.7668C16.9512 19.0457 15.4638 17.6504 13.629 17.6504C11.7942 17.6504 10.3068 19.0457 10.3068 20.7668C10.3068 22.4879 11.7942 23.8832 13.629 23.8832Z" fill="#FFCBA7"/>
<path id="Vector_5" d="M28.7774 23.8832C30.6122 23.8832 32.0996 22.4879 32.0996 20.7668C32.0996 19.0457 30.6122 17.6504 28.7774 17.6504C26.9426 17.6504 25.4552 19.0457 25.4552 20.7668C25.4552 22.4879 26.9426 23.8832 28.7774 23.8832Z" fill="#FFCBA7"/>
</g>
<path id="Vector_6" d="M19.4166 31.4718C19.8902 31.6996 21.3885 32.2845 22.9772 31.476C23.0727 31.4277 23.1336 31.3237 23.1336 31.2177L23.1357 30.6055L23.1441 28.0708H19.2717L19.2633 30.6139L19.2612 31.2219C19.2612 31.33 19.3179 31.4256 19.4156 31.4728L19.4166 31.4718Z" fill="#FFCBA7"/>
<path id="Vector_7" d="M30.5886 18.1545C30.6726 12.4561 25.7702 7.8036 19.9647 8.4273C15.5001 8.90714 11.9238 12.5359 11.5028 17.0068C11.4597 17.4615 11.4492 17.9109 11.4681 18.3519C11.4681 18.3519 12.2798 18.1587 13.0011 19.7253L18.4758 13.5996C18.4758 13.5996 25.1223 18.9367 29.5082 18.6459C29.6048 18.6396 29.7161 18.606 29.8263 18.5587C30.1182 18.3939 30.3639 18.0883 30.5886 18.1545Z" fill="#333333"/>
<g id="Group_5">
<path id="Vector_8" d="M18.8717 21.1921C19.3594 21.1921 19.7547 20.7178 19.7547 20.1327C19.7547 19.5476 19.3594 19.0732 18.8717 19.0732C18.384 19.0732 17.9886 19.5476 17.9886 20.1327C17.9886 20.7178 18.384 21.1921 18.8717 21.1921Z" fill="black"/>
<path id="Vector_9" d="M23.5347 21.1921C24.0224 21.1921 24.4178 20.7178 24.4178 20.1327C24.4178 19.5476 24.0224 19.0732 23.5347 19.0732C23.047 19.0732 22.6517 19.5476 22.6517 20.1327C22.6517 20.7178 23.047 21.1921 23.5347 21.1921Z" fill="black"/>
</g>
</g>
<path id="Vector_10" d="M22.2852 24.6624C22.4805 24.6624 22.6201 24.8503 22.5676 25.0383C22.4028 25.6378 21.8536 26.0778 21.2026 26.0778C20.5516 26.0778 20.0025 25.6378 19.8376 25.0383C19.7862 24.8493 19.9248 24.6624 20.1201 24.6624H22.2852Z" fill="#5C2F17"/>
<path id="Vector_11" d="M36.0738 9.12337C36.0308 9.05407 35.9877 8.98477 35.9436 8.91547C35.6528 8.45347 34.9934 8.30122 34.4904 8.57737L30.3597 10.5409C29.9156 10.7855 29.6751 11.2748 29.7759 11.7599C29.8221 11.9846 29.9009 12.2366 30.0027 12.5128L30.1634 12.9191C30.4679 13.6583 30.8952 14.534 31.3394 15.5042C31.3509 15.5315 31.3625 15.5588 31.374 15.5861C31.8066 16.7327 32.2172 18.124 32.4324 19.615C32.3883 25.1233 28.3889 29.6803 23.1357 30.6053L23.1336 31.2175C23.1336 31.3246 23.0717 31.4275 22.9772 31.4758C21.3875 32.2843 19.8902 31.7005 19.4166 31.4716C19.319 31.4243 19.2623 31.3288 19.2623 31.2206L19.2644 30.6127C14.027 29.7149 10.0265 25.2083 9.92356 19.7378C10.395 15.6376 12.4824 12.1894 12.4824 12.1894C12.768 11.762 12.6305 11.2087 12.1727 10.9283L7.86766 8.27392C7.36996 7.96942 6.68746 8.10592 6.38086 8.57212C6.33571 8.64142 6.29056 8.71072 6.24541 8.78002C1.33141 16.3883 0.428414 25.2944 5.17546 32.9993C6.56356 35.2526 7.87291 37.7149 9.02371 39.7561C9.21901 40.1026 9.58336 40.3084 9.98026 40.3084H32.5007C32.8965 40.3084 33.2588 40.1036 33.4551 39.7592C34.5597 37.8209 35.8187 35.5015 37.149 33.3427C41.9517 25.5485 40.9007 16.9039 36.0738 9.12337Z" fill="#5268E9"/>
</g>
</g>
</g>
<defs>
<clipPath id="clip0_217_1152">
<rect width="42" height="42" fill="white"/>
</clipPath>
</defs>
</svg>
