<svg width="12" height="12" viewBox="0 0 12 12" fill="none" xmlns="http://www.w3.org/2000/svg">
<g id="u1F4CE" clip-path="url(#clip0_348_2299)">
<g id="Group">
<path id="Vector" d="M9.15929 6.33724C9.06329 6.33724 8.96729 6.30064 8.89409 6.22744C8.74769 6.08104 8.74769 5.84374 8.89409 5.69704L10.0035 4.58764C10.5714 4.01974 10.5666 3.09154 9.99329 2.51794C9.71639 2.24104 9.34769 2.08774 8.95439 2.08624H8.94809C8.55869 2.08624 8.19509 2.23564 7.92329 2.50744L6.93479 3.49594C6.78839 3.64234 6.55109 3.64234 6.40439 3.49594C6.25769 3.34954 6.25799 3.11224 6.40439 2.96554L7.39289 1.97704C7.80629 1.56364 8.35829 1.33594 8.94809 1.33594H8.95739C9.54959 1.33834 10.1055 1.56964 10.5234 1.98754C11.3895 2.85334 11.3937 4.25764 10.5336 5.11804L9.42419 6.22744C9.35099 6.30064 9.25559 6.33724 9.15929 6.33724Z" fill="#A3ADB7"/>
<path id="Vector_2" d="M3.7716 10.6641C2.9871 10.6641 2.2515 10.3605 1.7004 9.80906C0.537596 8.64686 0.537596 6.78836 1.68 5.64626L5.319 2.00726C5.4654 1.86086 5.7027 1.86086 5.8494 2.00726C5.9961 2.15366 5.9958 2.39096 5.8494 2.53766L2.2104 6.17666C1.8009 6.58616 1.5753 7.13336 1.5753 7.71776C1.5753 8.30216 1.8009 8.84906 2.2104 9.25886C2.6406 9.68876 3.1878 9.91436 3.7719 9.91436C4.356 9.91436 4.9032 9.68876 5.313 9.27926L8.8944 5.69786C9.0408 5.55146 9.2781 5.55146 9.4248 5.69786C9.5715 5.84426 9.5712 6.08156 9.4248 6.22826L5.8434 9.80966C5.292 10.3611 4.5564 10.6647 3.7722 10.6647L3.7716 10.6641Z" fill="#A3ADB7"/>
<path id="Vector_3" d="M3.7683 9.20077C3.3693 9.20077 2.9946 9.04627 2.7138 8.76547C2.4327 8.48467 2.2785 8.10997 2.2785 7.71097C2.2785 7.31197 2.433 6.93727 2.7138 6.65647L6.405 2.96527C6.5514 2.81887 6.7887 2.81887 6.9354 2.96527C7.0821 3.11167 7.0818 3.34897 6.9354 3.49567L3.2442 7.18687C3.105 7.32607 3.0285 7.51207 3.0285 7.71097C3.0285 7.90987 3.105 8.09587 3.2442 8.23507C3.5229 8.51377 4.0143 8.51317 4.2924 8.23507L7.9197 4.60777C8.0661 4.46137 8.3034 4.46137 8.4501 4.60777C8.5968 4.75417 8.5965 4.99147 8.4501 5.13817L4.8228 8.76547C4.542 9.04657 4.1676 9.20077 3.7683 9.20077Z" fill="#A3ADB7"/>
</g>
</g>
<defs>
<clipPath id="clip0_348_2299">
<rect width="12" height="12" fill="white"/>
</clipPath>
</defs>
</svg>
