<svg xmlns="http://www.w3.org/2000/svg" viewBox="0 0 121.81 127.03"><defs><style>.clsflat4-1{fill:#dce3f3;}.clsflat4-2{fill:#231518;}.clsflat4-3{fill:#19479c;}</style></defs><g id="레이어_2" data-name="레이어 2"><g id="레이어_1-2" data-name="레이어 1"><circle class="clsflat4-1" cx="31.27" cy="28.75" r="5.13"/><circle class="clsflat4-1" cx="49.66" cy="11.42" r="5.13"/><circle class="clsflat4-1" cx="66.28" cy="23.44" r="5.13"/><circle class="clsflat4-1" cx="83.96" cy="6.47" r="5.13"/><path class="clsflat4-2" d="M85.45,0a20.08,20.08,0,0,1,3.16,1.64,6.09,6.09,0,0,1,1.84,6.69,6.38,6.38,0,0,1-5.2,4.25,6.13,6.13,0,0,1-3.83-.73.57.57,0,0,0-.82.12q-4.06,4.09-8.15,8.15a.64.64,0,0,0-.14.89,6.29,6.29,0,1,1-11.64,1.56,1.07,1.07,0,0,0-.45-1.34C58.08,19.65,56,18,53.87,16.4c-.18-.14-.59-.23-.72-.13a6.44,6.44,0,0,1-7.5.43c-.11.1-.24.2-.36.32-2.7,2.7-5.4,5.41-8.11,8.09a.71.71,0,0,0-.16,1A6,6,0,0,1,36.37,33a5.9,5.9,0,0,1-6.59,2.16,5.92,5.92,0,0,1-4.53-5.18,5.92,5.92,0,0,1,2.65-6.07,5.93,5.93,0,0,1,6.43-.39.77.77,0,0,0,1.08-.16q4-4,8-8a.7.7,0,0,0,.14-1A6.29,6.29,0,1,1,55.12,13.2a.92.92,0,0,0,.38,1.22c2.25,1.68,4.46,3.41,6.51,5a28,28,0,0,1,3.44-1.53,5.43,5.43,0,0,1,4.28.57.62.62,0,0,0,.89-.09c2.75-2.79,5.53-5.55,8.3-8.32a2.17,2.17,0,0,0,.2-.26A6.31,6.31,0,0,1,78.27,5,6.25,6.25,0,0,1,83,.16L83.52,0ZM49.08,15.13a3.74,3.74,0,1,0,.07-7.48,3.74,3.74,0,1,0-.07,7.48ZM66.68,27.7a3.67,3.67,0,0,0,3.84-3.54,3.74,3.74,0,0,0-3.59-3.91A3.79,3.79,0,0,0,63,24,3.71,3.71,0,0,0,66.68,27.7ZM84.39,10.08a3.74,3.74,0,1,0-3.7-3.77A3.7,3.7,0,0,0,84.39,10.08Zm-49.19,19a3.75,3.75,0,1,0-3.76,3.71A3.69,3.69,0,0,0,35.2,29.06Z"/><path class="clsflat4-2" d="M65.14,52.43V43.31h11V57A23.17,23.17,0,0,1,79,59.68V42.37c0-1.47-.47-1.93-2-1.93H64.56c-1.94,0-2.31.37-2.31,2.35v9.5l.37,0A21,21,0,0,1,65.14,52.43Z"/><path class="clsflat4-2" d="M45.69,29.4H56.63V53.15a20.5,20.5,0,0,1,2.92-.63V28.68c0-1.69-.42-2.1-2.11-2.1H45c-1.79,0-2.15.35-2.15,2.12V64.58a24.53,24.53,0,0,1,2.86-4.23Z"/><path class="clsflat4-2" d="M84.58,69V23.87h11V66.5a19.72,19.72,0,0,1,2.87-.58V23.45c0-.32,0-.65,0-1A1.37,1.37,0,0,0,96.89,21q-6.84,0-13.68,0a1.36,1.36,0,0,0-1.47,1.48c0,.27,0,.54,0,.81v40.1A24.31,24.31,0,0,1,84.22,69Z"/><path class="clsflat4-2" d="M26.24,48.91h11V69h2.83q0-10.5,0-21c0-1.53-.45-2-2-2q-6.23,0-12.45,0c-1.86,0-2.25.38-2.25,2.22V63.13a20.48,20.48,0,0,1,2.85,1Z"/><polygon class="clsflat4-3" points="36.75 106.37 45.24 114.5 45.94 126.53 76 126.53 76.36 114.15 83.78 105.66 69.99 97.53 60.09 106.02 52.66 98.59 41.35 102.83 36.75 106.37"/><polygon class="clsflat4-3" points="12.58 109.41 2.17 115.82 8.17 122.23 9.78 127.03 29.8 127.03 29.8 110.21 25 109.01 18.99 114.62 12.58 109.41"/><polygon class="clsflat4-3" points="92.69 103 89.49 106.2 89.49 126.63 112.32 126.63 111.92 117.42 118.33 110.61 105.11 103 98.7 109.41 92.69 103"/><path class="clsflat4-2" d="M26.8,76.81a1.2,1.2,0,0,1-.48-1.38,7.24,7.24,0,0,0-3.26-7.62,7.19,7.19,0,0,0-8.28,0,7.36,7.36,0,0,0-3.19,7.64A1.17,1.17,0,0,1,11,76.84,12.26,12.26,0,0,0,6,85.24a47,47,0,0,0-.22,6.28,11.26,11.26,0,0,0,3.67,8.72,5.81,5.81,0,0,1,2,5.47A2.47,2.47,0,0,1,10,108c-1.39.67-2.73,1.45-4.15,2C3,111.23.85,113.1,0,116.22v10.65H3.57c0-1.18,0-2.35,0-3.53V118.4c1,1,1.68,1.77,2.45,2.49a4.85,4.85,0,0,1,1.62,3.91c0,.69,0,1.38,0,2.07h3.55c0-.61,0-1.22,0-1.83a8.49,8.49,0,0,0-2.91-7C7.15,117,6,115.9,4.75,114.68l8.17-4.14c1.12,1.16,2.35,2.34,3.46,3.62a2.91,2.91,0,0,1,.72,1.73c0,3.66,0,7.32,0,11h3.59q0-5.5,0-11a2.13,2.13,0,0,1,.34-1.3c1.29-1.39,2.65-2.71,4-4,.43.24.77.45,1.12.63s.77.4,1.17.58c1.21.54,2.19.33,2.68-.58a1.76,1.76,0,0,0-1.06-2.6,3.6,3.6,0,0,1-2.53-4.35,6.17,6.17,0,0,1,0-1.06,3.47,3.47,0,0,1,.75-1.58A14.76,14.76,0,0,0,31,96.74c1.51-3.1,1.24-6.41,1.16-9.68A12.67,12.67,0,0,0,26.8,76.81ZM16.51,71.05a3.67,3.67,0,0,1,4.21-.42,3.7,3.7,0,0,1,2.11,3.76H15.08A3.59,3.59,0,0,1,16.51,71.05Zm6.24,36.68c-1.23,1.28-2.48,2.55-3.81,3.9-1.27-1.3-2.44-2.48-3.58-3.69A1.6,1.6,0,0,1,15,107c-.05-1,0-2,0-2.78h7.84c.07.82.16,1.84.21,2.86A1,1,0,0,1,22.75,107.73Zm-4-6.92a9.49,9.49,0,0,1-9.39-9.68l5.43-2.74c2.22,1.12,4.26,2.54,6.51,3.17s4.72.5,7.11.7C28.29,96.88,23.88,100.93,18.76,100.81ZM28.5,88a10.75,10.75,0,0,1-10.27-2,11.52,11.52,0,0,1-1.29-1.23c-1.36-1.41-2.08-1.4-3.62-.12a30.74,30.74,0,0,1-2.92,2,4.66,4.66,0,0,1-1,.35c-.06-4.87,4.47-9.44,9.91-9.2A9.65,9.65,0,0,1,28.5,88Z"/><path class="clsflat4-2" d="M81.46,100.73q-4.77-2.12-9.53-4.25c-1.82-.83-2.31-4.17-.84-5.52a13,13,0,0,0,4.28-7c.46-2.35.46-4.79.73-7.18a2.82,2.82,0,0,1,.64-1.5A4.47,4.47,0,0,0,78,72.08,15.33,15.33,0,0,0,68,57.93c-3-1.12-6.15-1-9.27-.9a14.83,14.83,0,0,0-12.57,7.12c-2.42,3.73-2.61,7.9-2.21,12.14A7.35,7.35,0,0,0,45,78.47a4.87,4.87,0,0,1,.68,1.61A14.72,14.72,0,0,0,50,90.21a4.53,4.53,0,0,1,1.45,3.73,2.58,2.58,0,0,1-1.76,2.62c-3.12,1.34-6.21,2.77-9.32,4.14a9.56,9.56,0,0,0-6.1,9.44q0,8.37,0,16.73H37.9V109.33l.33-.12c1.3,1.32,2.57,2.67,3.91,4a5,5,0,0,1,1.68,4c0,3.23,0,6.47,0,9.71h3.68q0-4.89,0-9.76a8.46,8.46,0,0,0-2.72-6.46c-1.73-1.64-3.38-3.34-5.26-5.21a18,18,0,0,1,1.93-1.22q4.69-2.14,9.44-4.18a1.47,1.47,0,0,1,1.27.28c2.06,2,4,4,6.1,6a2.61,2.61,0,0,1,.84,2.08c0,6.15,0,12.3,0,18.45h3.67c0-6.21,0-12.41,0-18.62a2.47,2.47,0,0,1,.54-1.57c2.08-2.18,4.22-4.31,6.39-6.39a1.45,1.45,0,0,1,1.29-.23c3.09,1.31,6.16,2.68,9.22,4.07a20.36,20.36,0,0,1,2.09,1.31l-5.45,5.42a7.06,7.06,0,0,0-2.39,4.89c0,3.7-.06,7.41-.07,11.12H78c0-3.34,0-6.67,0-10a3.78,3.78,0,0,1,.51-2.25c1.58-1.88,3.34-3.62,5-5.42l.33.16v17.52H87.5q0-8.4,0-16.78A9.53,9.53,0,0,0,81.46,100.73Zm-14.36-3c-.07.13-.22.22-.33.34L60.87,104c-2.1-2.12-4.09-4.11-6-6.13a1.16,1.16,0,0,1-.34-.89c.19-1,.5-2,.73-2.85a38.49,38.49,0,0,0,5.64.8,39.85,39.85,0,0,0,5.7-.79c.23.85.52,1.86.76,2.89A1.31,1.31,0,0,1,67.1,97.72Zm-1.21-7.58c-5.72,3-13.61-.07-15.7-6.18a32.17,32.17,0,0,1-.79-3.81,1.35,1.35,0,0,1,.9-1.67,10.17,10.17,0,0,0,2-1.41,1.82,1.82,0,0,0,.4-2.62,1.86,1.86,0,0,0-2.57-.22c-.59.39-1.17.81-1.77,1.19a4,4,0,0,1-.76.3c-1.07-7.07,1.86-13.22,9-14.75,4.06-.87,8.32-1,12.11,1.36s5.55,5.78,5.6,10.28c-5.85,1-11.42,1-16.48-2.48-.42-.3-.79-.65-1.19-1-1.11-.9-2.09-.91-2.83,0s-.57,1.79.4,2.71a17.39,17.39,0,0,0,6.94,4,24.81,24.81,0,0,0,8.08,1c1,0,2,0,3,0C73.22,82.62,70.87,87.52,65.89,90.14Z"/><path class="clsflat4-2" d="M121.8,114.6a7.88,7.88,0,0,0-4.83-7.86c-3-1.46-6-3-9-4.51-1.32-.67-2.11-3.65-1.11-4.65a12.22,12.22,0,0,0,3.56-9.6c0-.25.35-.64.63-.77a1.86,1.86,0,0,0,1.24-1.84c0-1.38,0-2.77,0-4.16A11,11,0,0,0,104,70.9a25.11,25.11,0,0,0-6.83-.52,11.1,11.1,0,0,0-10.28,6.46c-1.45,2.88-1.21,6-1,9.08A1.42,1.42,0,0,0,86.7,87c1.09.25,1,1,1,1.8a11.27,11.27,0,0,0,3.11,8.34,3.67,3.67,0,0,1-.39,5c-1,.83-1.29,1.79-.7,2.66s1.44,1,2.63.38l.62-.31c1.13,1.16,2.23,2.36,3.41,3.47a2.6,2.6,0,0,1,.87,2.07c0,5.5,0,11,0,16.52h3.6q0-8.33,0-16.63a2.12,2.12,0,0,1,.28-1.33c1.28-1.43,2.66-2.79,3.91-4.09l10.66,5.37c-1,1-1.84,1.77-2.67,2.62a7,7,0,0,0-2.38,4.78c-.05,3.09-.06,6.18-.05,9.28h3.64c0-2.29,0-4.58-.14-6.86-.21-3.3,1.72-5,4-7,.06.6.13,1,.13,1.43,0,1.91,0,3.81,0,5.71v6.73h3.55C121.76,122.78,121.74,118.69,121.8,114.6ZM89.58,83.48c-.87-5.2,2.79-9.31,7.08-9.43,2.4-.06,4.84-.37,7.16.53,3.42,1.32,5.22,4.72,4.77,9a28.8,28.8,0,0,1-11.87-3.16c-1.61-.84-1.83-.77-3.28.36C92.25,81.76,91,82.55,89.58,83.48Zm12.59,19.24c-1.07.94-2,2-3.09,3.14-1.35-1.34-2.7-2.56-3.86-3.93-.32-.38-.11-1.22-.15-2a11.91,11.91,0,0,0,7.75.07A2.2,2.2,0,0,1,102.17,102.72Zm.52-6.65a7.72,7.72,0,0,1-11.37-6.23c-.15-2-.08-3.64,2.28-4.71a4.64,4.64,0,0,1,4-.32c2.58.93,5.31,1.45,8,2.14.37.09.75.16,1.14.24C107,91,106.18,94.14,102.69,96.07Z"/></g></g></svg>