<svg xmlns="http://www.w3.org/2000/svg" viewBox="0 0 112.96 107.21"><defs><style>.clsflat1-1{fill:#19479c;}.clsflat1-2{fill:#231518;}.clsflat1-3{fill:#dde5f4;}.clsflat1-4{fill:#fff;}</style></defs><g id="레이어_2" data-name="레이어 2"><g id="레이어_1-2" data-name="레이어 1"><path class="clsflat1-1" d="M19.91,23.25,77.76,92.81S107.38,66,84,34.27C84,34.27,64.68-.85,19.91,23.25Z"/><path class="clsflat1-2" d="M57.33,32.26A1.76,1.76,0,0,1,56,29.38L80.14.62A1.77,1.77,0,0,1,81.48,0h25.65a1.75,1.75,0,0,1,0,3.5H82.3L58.67,31.63A1.71,1.71,0,0,1,57.33,32.26Z"/><path class="clsflat1-2" d="M107.13,9.33H85.29a1.75,1.75,0,0,1,0-3.5h21.84a1.75,1.75,0,0,1,0,3.5Z"/><path class="clsflat1-2" d="M107.13,15.05H85.29a1.75,1.75,0,0,1,0-3.5h21.84a1.75,1.75,0,0,1,0,3.5Z"/><path class="clsflat1-2" d="M107.13,20.76H85.29a1.75,1.75,0,0,1,0-3.5h21.84a1.75,1.75,0,0,1,0,3.5Z"/><path class="clsflat1-3" d="M49.65,59,3.2,66.45S8.77,106.09,49,106.71c0,0,22.91-2.48,28.49-13.63Z"/><path class="clsflat1-2" d="M47.19,107.21A47.2,47.2,0,1,1,94.38,60,47.24,47.24,0,0,1,47.19,107.21Zm0-90.89A43.7,43.7,0,1,0,90.88,60,43.74,43.74,0,0,0,47.19,16.32Z"/><path class="clsflat1-2" d="M2.41,67.58a1.75,1.75,0,0,1-.29-3.47l46.52-8a1.75,1.75,0,1,1,.59,3.45l-46.52,8Z"/><path class="clsflat1-2" d="M77,94.94a1.74,1.74,0,0,1-1.37-.66L19.89,24a1.75,1.75,0,0,1,2.75-2.18L78.39,92.1a1.75,1.75,0,0,1-.28,2.46A1.72,1.72,0,0,1,77,94.94Z"/><circle class="clsflat1-4" cx="91.39" cy="52.2" r="20.14"/><path class="clsflat1-2" d="M101.43,67.75a4.13,4.13,0,0,0-1.27.53,18.31,18.31,0,0,1-24.33-6.17,17.48,17.48,0,0,1-2.65-12.63,17.94,17.94,0,0,1,7.95-12.42A17.42,17.42,0,0,1,90,34a18.4,18.4,0,0,1,7.36,1,21,21,0,0,1,4.33,2.19,1.7,1.7,0,1,0,1.8-2.88,21,21,0,0,0-18-3c-8.21,2.38-13.33,7.89-15.41,16.2-.18.74-.28,1.49-.42,2.23v4.92c.14.74.24,1.5.42,2.23,2.09,8.32,7.24,13.75,15.45,16.23a34.17,34.17,0,0,0,3.94.71l.37.08h3a1.72,1.72,0,0,1,.28-.08,20.67,20.67,0,0,0,6.66-1.64,26,26,0,0,0,2.78-1.43,1.68,1.68,0,0,0-1.06-3.1Z"/><path class="clsflat1-2" d="M92.19,56.74a1,1,0,0,1-1.54.14c-.11-.09-.21-.19-.31-.29l-8.39-8a1.71,1.71,0,1,0-2.36,2.46l8.61,8.17a6.23,6.23,0,0,0,.7.57,4.37,4.37,0,0,0,2.49.77,4.12,4.12,0,0,0,2.77-1,5.64,5.64,0,0,0,.76-.78c1.58-2,3.16-3.94,4.75-5.91L112.49,37a1.71,1.71,0,1,0-2.64-2.16L95.91,52.12C94.68,53.66,93.44,55.21,92.19,56.74Z"/><path class="clsflat1-2" d="M112.28,46.9a1.66,1.66,0,0,0-1.54-1.3A1.74,1.74,0,0,0,109,47.89c.27,1.44.46,2.89.68,4.34h-.12a19.38,19.38,0,0,1-1,5.82,22.55,22.55,0,0,1-2.17,4.44,1.67,1.67,0,0,0,.48,2.31,1.71,1.71,0,0,0,2.41-.54c.32-.5.63-1,.92-1.52a21.71,21.71,0,0,0,2-15.85Z"/></g></g></svg>