<svg xmlns="http://www.w3.org/2000/svg" viewBox="0 0 212.85 212.85"><defs><style>.clsflat3-1{fill:#fff;}.clsflat3-2{fill:#dce3f3;}.clsflat3-3{fill:#231518;}.clsflat3-4{fill:#19479c;}</style></defs><g id="레이어_2" data-name="레이어 2"><g id="레이어_1-2" data-name="레이어 1"><circle class="clsflat3-1" cx="106.42" cy="106.42" r="106.42"/><path class="clsflat3-2" d="M66.67,136.81s-.62-22.73,11.11-17.67c0,0,8,2.66,13.78-1.11,0,0,11,5.37,8.94,18.27Z"/><path class="clsflat3-2" d="M112.19,136.81s-.62-24.39,11.11-19c0,0,8,2.85,13.78-1.19A18.84,18.84,0,0,1,146,136.27Z"/><path class="clsflat3-3" d="M156.42,138.86H55.84a7.94,7.94,0,0,1-8-7.86V65.78a7.94,7.94,0,0,1,8-7.87H69.1a1.75,1.75,0,0,1,0,3.5H55.84a4.44,4.44,0,0,0-4.49,4.37V131a4.44,4.44,0,0,0,4.49,4.36H156.42A4.43,4.43,0,0,0,160.9,131V65.78a4.43,4.43,0,0,0-4.48-4.37h-21.5a1.75,1.75,0,0,1,0-3.5h21.5a7.93,7.93,0,0,1,8,7.87V131A7.93,7.93,0,0,1,156.42,138.86Z"/><circle class="clsflat3-1" cx="84.91" cy="109.58" r="10.85"/><circle class="clsflat3-1" cx="128.81" cy="110.16" r="10.85"/><path class="clsflat3-3" d="M147.55,137.47a2.42,2.42,0,0,1-2.49,1.35q-16.31,0-32.6,0c-1.84,0-2.47-.62-2.47-2.43,0-2.32,0-4.64,0-7,.11-5.67,2.77-9.76,7.78-12.35l.49-.27a12.51,12.51,0,1,1,21,0,14.5,14.5,0,0,1,5,3.7,13.4,13.4,0,0,1,3.11,6.63,1.75,1.75,0,0,0,.17.43ZM143.73,135c0-2,.05-4,0-5.93a9.62,9.62,0,0,0-6.72-8.9,1.65,1.65,0,0,0-1.19.15,12.43,12.43,0,0,1-14.08,0,1.58,1.58,0,0,0-1.11-.15,9.39,9.39,0,0,0-4.76,3.31c-2.78,3.49-1.89,7.57-2,11.54Zm-15-33.58a8.58,8.58,0,0,0-8.58,8.59,8.62,8.62,0,1,0,8.58-8.59Z"/><path class="clsflat3-3" d="M73,116.79a12.5,12.5,0,1,1,21,0l.7.38a13.46,13.46,0,0,1,7.58,12.21c.05,2.41,0,4.83,0,7.25a1.94,1.94,0,0,1-2.22,2.2H66.93c-1.57,0-2.24-.68-2.24-2.27,0-2.36,0-4.71,0-7.06.07-5.72,2.74-9.83,7.8-12.43ZM98.28,135a61.26,61.26,0,0,0,0-6.92,9.13,9.13,0,0,0-6.6-7.93,1.48,1.48,0,0,0-1.11.13,12.4,12.4,0,0,1-14.15,0,1.38,1.38,0,0,0-1-.14,9.11,9.11,0,0,0-6.43,6.67,23.09,23.09,0,0,0-.41,4.72c-.06,1.15,0,2.32,0,3.48ZM83.43,101.37a8.62,8.62,0,0,0-8.6,8.59,8.63,8.63,0,1,0,17.25,0A8.58,8.58,0,0,0,83.43,101.37Z"/><path class="clsflat3-4" d="M168.58,136.68H43.67A2.75,2.75,0,0,0,41.25,138a2.31,2.31,0,0,0-.2,2l2.49,7.41a2.78,2.78,0,0,0,2.63,1.81H165.26a2.78,2.78,0,0,0,2.54-1.59l3.32-7.41a2.33,2.33,0,0,0-.05-2.06A2.77,2.77,0,0,0,168.58,136.68Z"/><path class="clsflat3-3" d="M173.64,138.27a5.89,5.89,0,0,0-5.06-2.71H43.67a5.86,5.86,0,0,0-4.9,2.48,4.69,4.69,0,0,0-.51,4.45l2.49,6.29a5.75,5.75,0,0,0,5.42,3.44H165.26a5.87,5.87,0,0,0,5.19-2.95l3.32-6.3A4.7,4.7,0,0,0,173.64,138.27Zm-1.19,4-3.33,6.3a4.32,4.32,0,0,1-3.86,2.15H46.17a4.24,4.24,0,0,1-4-2.49l-2.5-6.3c-.94-2.38,1.11-4.87,4-4.87H168.58C171.68,137.06,173.73,139.83,172.45,142.27Z"/><path class="clsflat3-3" d="M168.58,137.06H43.67c-2.91,0-5,2.49-4,4.87l2.5,6.3a4.24,4.24,0,0,0,4,2.49H165.26a4.32,4.32,0,0,0,3.86-2.15l3.33-6.3C173.73,139.83,171.68,137.06,168.58,137.06Zm2.54,4.51-3.32,6.3a2.84,2.84,0,0,1-2.54,1.35H46.17a2.79,2.79,0,0,1-2.63-1.54l-2.49-6.3a1.7,1.7,0,0,1,.2-1.66,2.89,2.89,0,0,1,2.42-1.16H168.58a2.86,2.86,0,0,1,2.49,1.26A1.71,1.71,0,0,1,171.12,141.57Z"/><path class="clsflat3-3" d="M135.7,69.65a15.43,15.43,0,0,0-7.45-9.31,19,19,0,0,0-5.63-2.22c-.51-.12-.58-.32-.53-.77a15.8,15.8,0,0,0-1.38-8.65,19.5,19.5,0,0,0-8.79-9,24.39,24.39,0,0,0-9.58-2.84,3,3,0,0,1-.43-.11H98l-2.18.33A22.73,22.73,0,0,0,82.4,44a16.15,16.15,0,0,0-4.19,15.35A17.43,17.43,0,0,0,84,68.63a1.4,1.4,0,0,1,.6,1.18c0,3.23,0,6.46,0,9.69v.59l.15.07a6.08,6.08,0,0,1,.39-.47c2.1-2.1,4.2-4.19,6.28-6.3a.74.74,0,0,1,.85-.2c1,.28,1.94.54,2.92.72s2.24.34,3.39.5c0,.23.06.45.1.67A13.7,13.7,0,0,0,104.3,84c6.25,4.55,13.11,5.4,20.41,3a.73.73,0,0,1,1,.24c2.21,2.51,4.44,5,6.66,7.49a1.84,1.84,0,0,1,.19.4l.18-.15v-.62c0-4,0-8.09,0-12.14a1.58,1.58,0,0,1,.33-.91A14.5,14.5,0,0,0,135.72,76c.15-.58.26-1.17.39-1.75V71.52C136,70.9,135.87,70.27,135.7,69.65Zm-44.3-.43a.67.67,0,0,0-.88.18C89.74,70.23,88.92,71,88,72c0-1.44,0-2.71,0-4a1,1,0,0,0-.48-.93,14.8,14.8,0,0,1-5.9-8.2,12.79,12.79,0,0,1,3-12.17,18.56,18.56,0,0,1,10.66-6,21.73,21.73,0,0,1,14,1.56,16.15,16.15,0,0,1,8.31,8.07A13,13,0,0,1,115,64.79a19.4,19.4,0,0,1-11.26,5.83A22.11,22.11,0,0,1,91.4,69.22Zm38.65,10.22a2.74,2.74,0,0,0-.8,2.11c.07,1.46,0,2.92,0,4.48-.17-.15-.28-.23-.37-.33-.82-.9-1.63-1.8-2.43-2.72a.5.5,0,0,0-.72-.17,17.84,17.84,0,0,1-6.16,1.88c-6,.57-11.38-.85-15.45-5.65a9.2,9.2,0,0,1-2.08-4.6c1.77-.38,3.52-.63,5.2-1.12a21.09,21.09,0,0,0,12.47-9.12A25.09,25.09,0,0,0,121,61.72c.12-.26.23-.41.54-.34A15.09,15.09,0,0,1,130.68,67,9.54,9.54,0,0,1,130.05,79.44Z"/><path class="clsflat3-3" d="M88,57.24h3.35V53.9H88Z"/><path class="clsflat3-3" d="M98.3,57.25h3.33V53.88H98.3Z"/><path class="clsflat3-3" d="M111.89,53.88h-3.34v3.35h3.34Z"/><path class="clsflat3-3" d="M106.7,73.85h2.93V70.93H106.7Z"/><path class="clsflat3-3" d="M115.69,73.86h2.92v-3h-2.92Z"/><path class="clsflat3-3" d="M127.58,70.91h-2.93v2.93h2.93Z"/></g></g></svg>