<svg xmlns="http://www.w3.org/2000/svg" viewBox="0 0 212.85 212.85"><defs><style>.clsflat2-1{fill:#fff;}.clsflat2-2{fill:#19479c;}.clsflat2-3{fill:#231518;}</style></defs><g id="레이어_2" data-name="레이어 2"><g id="레이어_1-2" data-name="레이어 1"><circle class="clsflat2-1" cx="106.42" cy="106.42" r="106.42"/><path class="clsflat2-2" d="M68.69,52.1V86a8.67,8.67,0,0,0,8.68,8.68H83a3,3,0,0,1,1.83.62l16,12.11a1.44,1.44,0,0,0,2.3-1.15V97.68a3,3,0,0,1,3-3h23.4A8.67,8.67,0,0,0,138.24,86V52.1a3,3,0,0,0-3-3H71.72A3,3,0,0,0,68.69,52.1Z"/><path class="clsflat2-3" d="M102,106.13V96.2c0-2.06.48-2.55,2.5-2.55h26.23A5.48,5.48,0,0,0,136.39,88c0-4.11,0-8.21,0-12.32a1.76,1.76,0,0,1,1.21-1.84,1.66,1.66,0,0,1,2,.6A2.44,2.44,0,0,1,140,75.7c0,4.37.07,8.74,0,13.12a8.94,8.94,0,0,1-8.71,8.43c-8.1,0-16.21,0-24.31,0h-1.34v5.95c0,2.11,0,4.22,0,6.33a1.92,1.92,0,0,1-1.07,2,2,2,0,0,1-2.18-.45q-8.28-6.64-16.61-13.25a3.07,3.07,0,0,0-1.71-.59c-2.53-.06-5,0-7.58,0a9,9,0,0,1-8.84-8.89q0-10.68,0-21.37c0-1.54.63-2.32,1.84-2.29s1.76.78,1.77,2.25q0,10.29,0,20.58c0,3.88,2.22,6.11,6.09,6.11,2.6,0,5.2-.06,7.8,0a4.17,4.17,0,0,1,2.23.78C92.21,98.26,97,102.11,102,106.13Z"/><path class="clsflat2-3" d="M103.79,50.22H77.45c-4,0-6.19,2.19-6.19,6.23,0,.91,0,1.81,0,2.71a1.77,1.77,0,0,1-1.77,1.92,1.72,1.72,0,0,1-1.82-1.85,32.64,32.64,0,0,1,.23-5.52,8.79,8.79,0,0,1,8.72-7.09H131a9,9,0,0,1,9,9.05c0,4.07,0,8.14,0,12.21,0,1.46-.63,2.23-1.79,2.24s-1.82-.76-1.82-2.2c0-3.88,0-7.76,0-11.65s-2.23-6-6-6Z"/><path class="clsflat2-3" d="M162.94,112.1c3.12,3.76,3,7-.41,10.35-5.12,5.11-10.28,10.18-15.34,15.36A27.13,27.13,0,0,1,129.6,146c-1.87.17-3.73.49-5.6.67-1.35.13-2.18-.51-2.28-1.61s.7-1.82,2-2c3.06-.42,6.12-.77,9.16-1.31a20.68,20.68,0,0,0,11.07-5.93c5.45-5.42,10.88-10.88,16.32-16.31a3.16,3.16,0,0,0,1.2-2.89,2.88,2.88,0,0,0-4.83-1.61c-3,2.46-6,5-9.05,7.5-2.78,2.31-5.53,4.66-8.35,6.92a3.31,3.31,0,0,1-1.92.71c-11.2,0-22.39,0-33.59,0-1.42,0-2.21-.66-2.2-1.82s.79-1.79,2.24-1.79h14a8.47,8.47,0,0,0,1,0,2.67,2.67,0,0,0,.44-5.27,2.6,2.6,0,0,0-.78-.13c-5.23,0-10.47,0-15.7.19a22.52,22.52,0,0,0-8.8,2.26c-8.38,3.89-16,8.89-22.17,15.85a61.54,61.54,0,0,0-10.72,16.76c-.23.55-.44,1.12-.7,1.66A1.83,1.83,0,1,1,57,156.47a64,64,0,0,1,6.77-12.73c7.61-11.12,17.92-18.87,30.23-24.08a27.67,27.67,0,0,1,10.68-2.1c4.48,0,9,0,13.45,0a22.09,22.09,0,0,1,3.28.64c.36.07.86.13,1.08-.06,3.18-2.66,6.33-5.36,9.48-8a.5.5,0,0,0,.11-.19,2.94,2.94,0,0,0-4.58-.57c-2,1.65-4.08,3.35-6.11,5a1.8,1.8,0,0,1-2.2.22,1.61,1.61,0,0,1-.82-1.93,2.92,2.92,0,0,1,.88-1.25c1.93-1.63,3.88-3.23,5.84-4.82a6.72,6.72,0,0,1,9.55.52l.41.38c.72-.6,1.5-1.14,2.15-1.8a7,7,0,0,1,10.93.93c2-1.7,4-3.42,6-5.11a6.75,6.75,0,0,1,11.07,3.74,6.45,6.45,0,0,1-1,5.17C163.8,111,163.38,111.51,162.94,112.1Zm-38.46,14.5c3.84,0,7.53,0,11.22,0a3.22,3.22,0,0,0,2.32-.86c5.34-4.48,10.7-8.93,16-13.4a6.42,6.42,0,0,1,4.2-1.69,2.24,2.24,0,0,0,2-1.15,5.27,5.27,0,0,0,.87-1.18,4.92,4.92,0,0,0,.44-2.34c-.5-2.51-3.2-3.25-5.27-1.5q-11,9.36-22.06,18.72c-1.07.91-2.15.92-2.88.08s-.54-2,.5-2.85q2.5-2.11,5-4.24l8.32-7.08c-1.1-2.08-3.16-2.66-4.83-1.27-5.14,4.3-10.23,8.67-15.32,13a1.11,1.11,0,0,0-.35.92A6.85,6.85,0,0,1,124.48,126.6Z"/><path class="clsflat2-3" d="M118.14,145.93a1.79,1.79,0,0,1-1.69,1.8c-2,.29-4,.52-6,.79s-3.89.42-5.8.83A10.51,10.51,0,0,0,96.78,156c-.27.66-.51,1.34-.81,2a1.81,1.81,0,0,1-2.4,1.07,1.84,1.84,0,0,1-1-2.36c2.21-6.82,6.85-10.62,13.56-11.31,3.22-.34,6.42-.82,9.62-1.26C117.13,143.92,118.16,144.68,118.14,145.93Z"/><path class="clsflat2-3" d="M116.41,70.13H104.22c-1.44,0-2.21-.65-2.2-1.82s.78-1.79,2.24-1.79h24.5c1.44,0,2.21.66,2.2,1.83s-.78,1.78-2.24,1.78Z"/><path class="clsflat2-3" d="M114.58,77.36c-3.46,0-6.92,0-10.38,0-1.44,0-2.2-.66-2.18-1.85s.78-1.76,2.15-1.76h21c1.43,0,2.19.67,2.17,1.85s-.78,1.76-2.14,1.76C121.66,77.37,118.12,77.36,114.58,77.36Z"/><path class="clsflat2-3" d="M119.2,59.28h9.59c1.43,0,2.2.67,2.17,1.85s-.79,1.76-2.15,1.76H109.62c-1.43,0-2.2-.67-2.17-1.86s.78-1.75,2.15-1.75Z"/><path class="clsflat2-3" d="M111,84.6c-2.29,0-4.58,0-6.88,0-1.34,0-2.1-.67-2.11-1.8s.75-1.81,2.09-1.81H118c1.35,0,2.11.66,2.11,1.79s-.76,1.81-2.09,1.82C115.68,84.61,113.35,84.6,111,84.6Z"/><ellipse class="clsflat2-1" cx="86.98" cy="64.62" rx="9.42" ry="7.78"/><rect class="clsflat2-1" x="78.11" y="73.33" width="18.71" height="5.63" rx="2.82"/><rect class="clsflat2-1" x="83.15" y="78.96" width="8.85" height="6.04" rx="3.02"/><rect class="clsflat2-1" x="78.05" y="71.14" width="18.55" height="7.26" rx="3.63"/><ellipse class="clsflat2-1" cx="87.76" cy="64.42" rx="10.08" ry="8.87"/><ellipse class="clsflat2-1" cx="87.65" cy="82.51" rx="4.94" ry="3.06"/><path class="clsflat2-3" d="M78.78,71.19a10.89,10.89,0,1,1,17.52,0,5.82,5.82,0,0,1,2.1,4.39,5.23,5.23,0,0,1-2.9,4.76,1.21,1.21,0,0,0-.75,1.2,7.16,7.16,0,0,1-7.19,6.69,7.27,7.27,0,0,1-7.27-6.66,1.6,1.6,0,0,0-.6-1.12c-3.51-2.06-4-6-1.18-8.93C78.59,71.43,78.65,71.34,78.78,71.19ZM89.42,70.1c1.58,0,3,.31,4.09-1.38a7.29,7.29,0,0,0-.87-9.12,7.19,7.19,0,0,0-11.67,8c1,2.33,2.13,2.88,4.71,2.4.14-1.49.28-2.91-1.2-4a1.66,1.66,0,0,1,0-2.51A1.83,1.83,0,0,1,87,63.38l.6.45c.19-.17.33-.31.48-.42a1.82,1.82,0,0,1,2.62.1A1.68,1.68,0,0,1,90.56,66C89.13,67.11,89.26,68.51,89.42,70.1Zm-1.89,7.27c1.69,0,3.39,0,5.08,0,1.31,0,2.17-.76,2.16-1.82s-.87-1.79-2.18-1.79c-3.36,0-6.71,0-10.06,0-1.33,0-2.18.71-2.21,1.76s.85,1.84,2.24,1.85C84.21,77.38,85.87,77.37,87.53,77.37ZM84,81a3.6,3.6,0,0,0,3.63,3.56A3.48,3.48,0,0,0,91.05,81Z"/></g></g></svg>