<svg xmlns="http://www.w3.org/2000/svg" viewBox="0 0 113.62 113.61"><defs><style>.clsflat5-1{fill:#19479c;}.clsflat5-2{fill:#dce3f3;}.clsflat5-3{fill:#231518;}</style></defs><g id="레이어_2" data-name="레이어 2"><g id="레이어_1-2" data-name="레이어 1"><path class="clsflat5-1" d="M36.49,39.51,41.91,42l5.43,7.23,3.25.72,5.06-11.56S67.22,7.7,29.62,2.28c0,0-23.85,1.81-27.11,24.22,0,0-4.33,16.26,10.13,24.94,0,0,2.53-11.57,12.65-10.12,0,0-18.08-16.27,3.61-22.78C28.9,18.54,54.57,21.07,36.49,39.51Z"/><path class="clsflat5-1" d="M88.18,93l9.76,4.33,3.25,8.32,9-13.38s3.62-12.65-3.61-23.85c0,0-10.12-19.88-34-10.49,0,0-19.52,2.53-17.35,27.48,0,0,.72,11.92,10.48,18.79,0,0,1.45-11.2,13.37-9.4a13.23,13.23,0,0,1-7.22-13.73s2.89-11.21,11.2-9.76c0,0,10.84-.72,11.57,9C94.69,80.36,96.5,90.84,88.18,93Z"/><circle class="clsflat5-2" cx="92.06" cy="27.5" r="9.83"/><circle class="clsflat5-2" cx="21.3" cy="85.72" r="9.83"/><path class="clsflat5-3" d="M33.28,0A57.11,57.11,0,0,1,39,1.27C50.35,5,57.34,12.75,60.11,24.37c.08.32.49.79.74.79,5.84,0,11.69,0,17.62,0a13.34,13.34,0,0,1,6.73-9.27,12.72,12.72,0,0,1,8.37-1.43A13.29,13.29,0,0,1,104.5,25.92,13.39,13.39,0,0,1,93.66,40.47v7.61c0,1.85.06,3.71,0,5.55a1.42,1.42,0,0,0,1.09,1.59,30,30,0,0,1,16.37,15.87,10,10,0,0,1,.4,1,2.22,2.22,0,0,1-1.24,2.66,2.16,2.16,0,0,1-2.73-.78,7.9,7.9,0,0,1-.54-1.09,25.85,25.85,0,0,0-49.25,6.52,25.4,25.4,0,0,0,5.89,20.65c.26.31.55.59.95,1a13.36,13.36,0,0,1,8.78-8.23c-3.57-3.93-5-8.43-3.68-13.59a13.62,13.62,0,0,1,5.47-8A14,14,0,0,1,93,72.64a13.58,13.58,0,0,1,4.35,10.09,14.2,14.2,0,0,1-4.16,10.12,13.46,13.46,0,0,1,8.88,8.53c1.43-2.09,2.74-3.9,3.91-5.79a22.29,22.29,0,0,0,1.48-3.21c.65-1.51,1.76-2.15,3-1.68s1.82,1.74,1.18,3.29c-4.3,10.56-12,17.18-23.24,19.15a30.13,30.13,0,0,1-34.17-21,24,24,0,0,1-.74-3c-.1-.57-.34-.72-.86-.72-5.81,0-11.61,0-17.52,0a13.39,13.39,0,0,1-6.82,9.33,12.81,12.81,0,0,1-8.27,1.38,13.17,13.17,0,0,1-.1-26V58.87A29.66,29.66,0,0,1,9.54,52.41C2.33,45.44-.92,36.92.22,27,1.77,13.54,11.17,3.42,24.39.56c1-.21,1.94-.37,2.9-.56ZM89.15,53.48V40.41A13.39,13.39,0,0,1,78.48,29.78H60.69c-.08,9.61-3.58,17.62-10.92,23.79s-15.88,8.1-25.32,6.57V73.23A13.31,13.31,0,0,1,35.11,83.82H52.94C53,74.23,56.53,66.25,63.81,60.1S79.68,51.94,89.15,53.48ZM11.66,48a13.25,13.25,0,0,1,8.7-8.15A14.12,14.12,0,0,1,39,18.72a13.57,13.57,0,0,1,5.28,9.06,13.83,13.83,0,0,1-3.77,11.83A34.19,34.19,0,0,1,45.55,43a35,35,0,0,1,3.68,4.83c8.33-8.08,10.24-24.27-.13-35.2a25.78,25.78,0,0,0-38,.45C.94,24.48,3.54,40.37,11.66,48ZM39.94,29.79a9.63,9.63,0,1,0-9.64,9.66A9.7,9.7,0,0,0,39.94,29.79ZM83.25,92.37a9.58,9.58,0,1,0-9.58-9.6A9.6,9.6,0,0,0,83.25,92.37Zm-53-36.19a26.25,26.25,0,0,0,14-4A1.43,1.43,0,0,0,45,50.32a8.43,8.43,0,0,0-8.19-6.39q-6.42,0-12.85,0a8.41,8.41,0,0,0-8.3,6.51,1.26,1.26,0,0,0,.65,1.63A25.88,25.88,0,0,0,30.22,56.18ZM83.29,96.94h0c-2.21,0-4.43,0-6.64,0a8.29,8.29,0,0,0-8,6.2,1.5,1.5,0,0,0,.74,2,26.12,26.12,0,0,0,11.84,3.92,25.31,25.31,0,0,0,16.28-4.23,1.39,1.39,0,0,0,.46-1.17A8.26,8.26,0,0,0,90.17,97C87.88,96.9,85.58,96.94,83.29,96.94Zm8.12-60.89a8.61,8.61,0,1,0-8.62-8.59A8.63,8.63,0,0,0,91.41,36.05ZM22.21,77.57a8.61,8.61,0,1,0,8.62,8.59A8.64,8.64,0,0,0,22.21,77.57Z"/><path class="clsflat5-3" d="M113.62,83.44a7.25,7.25,0,0,1-1.9,1.48,2.07,2.07,0,0,1-2.47-1.5,2.26,2.26,0,0,1,1.11-2.62,2.2,2.2,0,0,1,2.84.67c.15.2.28.42.42.64Z"/></g></g></svg>