<svg xmlns="http://www.w3.org/2000/svg" viewBox="0 0 107.38 103.4"><defs><style>.cls3-1,.cls3-3{fill:#fff;}.cls3-1,.cls3-5{stroke:#000;stroke-linecap:round;stroke-linejoin:round;stroke-width:2.5px;}.cls3-2{fill:#d7e1f3;}.cls3-4{fill:#f7b4c4;}.cls3-5{fill:none;}.cls3-6{fill:#005dde;}</style></defs><title>Asset 5</title><g id="Layer_2" data-name="Layer 2"><g id="Icons"><path class="cls3-1" d="M18.84,29.67H88.37a6.51,6.51,0,0,1,6.51,6.51V92.32a0,0,0,0,1,0,0H12.33a0,0,0,0,1,0,0V36.18A6.51,6.51,0,0,1,18.84,29.67Z"/><rect class="cls3-2" x="17.59" y="38.9" width="72.04" height="53.41"/><path class="cls3-3" d="M51.06,50.42a7.61,7.61,0,0,1,5.08-7.18,7.62,7.62,0,1,0,0,14.36A7.62,7.62,0,0,1,51.06,50.42Z"/><ellipse class="cls3-4" cx="56.14" cy="50.42" rx="5.09" ry="7.18"/><path class="cls3-3" d="M51.93,62.33H46.86a9.92,9.92,0,0,0-9.92,9.92v19H42v-19A9.92,9.92,0,0,1,51.93,62.33Z"/><path class="cls3-4" d="M60.36,62.33H51.93A9.92,9.92,0,0,0,42,72.25v19H70.28v-19A9.92,9.92,0,0,0,60.36,62.33Z"/><circle class="cls3-5" cx="53.61" cy="50.42" r="7.62"/><path class="cls3-5" d="M36.94,91.23v-19a9.92,9.92,0,0,1,9.92-9.92h13.5a9.92,9.92,0,0,1,9.92,9.92v19"/><path class="cls3-1" d="M6.7,90.56h93.82a0,0,0,0,1,0,0v4.86a6.73,6.73,0,0,1-6.73,6.73H13.43A6.73,6.73,0,0,1,6.7,95.42V90.56a0,0,0,0,1,0,0Z"/><path class="cls3-1" d="M39.15,15.8H5.52a4.27,4.27,0,0,0-4.27,4.27V34.72A4.27,4.27,0,0,0,5.52,39H31.38l8.35,8.35V38.93a4.25,4.25,0,0,0,3.69-4.21V20.07A4.27,4.27,0,0,0,39.15,15.8Z"/><rect class="cls3-6" x="4.94" y="19.49" width="34.79" height="15.81"/><path class="cls3-1" d="M101.86,1.25H68.24A4.28,4.28,0,0,0,64,5.52V20.17a4.28,4.28,0,0,0,4.28,4.27H94.1l8.34,8.35V24.38a4.25,4.25,0,0,0,3.69-4.21V5.52A4.27,4.27,0,0,0,101.86,1.25Z"/><line class="cls3-5" x1="9.38" y1="22.6" x2="23.23" y2="22.6"/><line class="cls3-5" x1="9.38" y1="27.14" x2="31.89" y2="27.14"/><line class="cls3-5" x1="9.38" y1="31.68" x2="23.23" y2="31.68"/><line class="cls3-5" x1="72.25" y1="7.99" x2="86.1" y2="7.99"/><line class="cls3-5" x1="72.25" y1="12.53" x2="94.75" y2="12.53"/><line class="cls3-5" x1="72.25" y1="17.08" x2="86.1" y2="17.08"/></g></g></svg>