<svg xmlns="http://www.w3.org/2000/svg" viewBox="0 0 107.38 102.27"><defs><style>.cls4-1,.cls4-5{fill:#fff;}.cls4-2{fill:#d7e1f3;}.cls4-3{fill:none;}.cls4-3,.cls4-5,.cls4-6{stroke:#000;stroke-linecap:round;stroke-linejoin:round;stroke-width:2.5px;}.cls4-4{fill:#f7b4c4;}.cls4-6{fill:#005dde;}</style></defs><title>Asset 10</title><g id="Layer_2" data-name="Layer 2"><g id="Icons"><path class="cls4-1" d="M17,14.71a8.42,8.42,0,0,1,5.62-7.93,8.43,8.43,0,1,0,0,15.87A8.43,8.43,0,0,1,17,14.71Z"/><path class="cls4-2" d="M28.19,14.71a8.42,8.42,0,0,0-5.62-7.93,8.41,8.41,0,0,0,0,15.87A8.43,8.43,0,0,0,28.19,14.71Z"/><path class="cls4-1" d="M17.91,27.88h-5.6a11,11,0,0,0-11,11v21h5.6v-21A11,11,0,0,1,17.91,27.88Z"/><path class="cls4-2" d="M27.23,27.88H17.91a11,11,0,0,0-11,11v21H38.2v-21A11,11,0,0,0,27.23,27.88Z"/><circle class="cls4-3" cx="19.77" cy="14.71" r="8.42"/><path class="cls4-3" d="M1.34,59.83v-21a11,11,0,0,1,11-11H27.23a11,11,0,0,1,11,11v21"/><path class="cls4-1" d="M84.79,14.71a8.42,8.42,0,0,1,5.62-7.93,8.32,8.32,0,0,0-2.8-.49,8.43,8.43,0,0,0,0,16.85,8.32,8.32,0,0,0,2.8-.49A8.43,8.43,0,0,1,84.79,14.71Z"/><ellipse class="cls4-2" cx="90.41" cy="14.71" rx="5.62" ry="7.94"/><path class="cls4-1" d="M85.75,27.88h-5.6a11,11,0,0,0-11,11v21h5.6v-21A11,11,0,0,1,85.75,27.88Z"/><path class="cls4-2" d="M95.08,27.88H85.75a11,11,0,0,0-11,11v21H106v-21A11,11,0,0,0,95.08,27.88Z"/><circle class="cls4-3" cx="87.61" cy="14.71" r="8.42"/><path class="cls4-3" d="M69.19,59.83v-21a11,11,0,0,1,11-11H95.08a11,11,0,0,1,11,11v21"/><path class="cls4-1" d="M50.34,11.26A10,10,0,0,1,57,1.83a10,10,0,1,0-3.33,19.44A9.92,9.92,0,0,0,57,20.69,10,10,0,0,1,50.34,11.26Z"/><path class="cls4-4" d="M63.7,11.26A10,10,0,0,0,57,1.83a10,10,0,0,0,0,18.86A10,10,0,0,0,63.7,11.26Z"/><path class="cls4-1" d="M51.48,26.9H44.82a13,13,0,0,0-13,13V64.87h6.66V39.93A13,13,0,0,1,51.48,26.9Z"/><path class="cls4-4" d="M62.56,26.9H51.48a13,13,0,0,0-13,13V64.87H75.59V39.93A13,13,0,0,0,62.56,26.9Z"/><circle class="cls4-3" cx="53.69" cy="11.26" r="10.01"/><path class="cls4-3" d="M31.79,64.87V39.93a13,13,0,0,1,13-13H62.56a13,13,0,0,1,13,13V64.87"/><polyline class="cls4-5" points="15.91 101.02 7.19 101.02 7.19 80.33 15.91 80.33"/><polyline class="cls4-6" points="10.51 80.33 19.23 80.33 19.23 101.02 10.51 101.02"/><polyline class="cls4-5" points="36.15 101.02 27.43 101.02 27.43 57.83 36.15 57.83"/><polyline class="cls4-6" points="30.75 57.83 39.47 57.83 39.47 101.02 30.75 101.02"/><polyline class="cls4-5" points="56.39 101.02 47.67 101.02 47.67 75.48 56.39 75.48"/><polyline class="cls4-6" points="50.99 75.48 59.71 75.48 59.71 101.02 50.99 101.02"/><polyline class="cls4-5" points="76.63 101.02 67.91 101.02 67.91 48.49 76.63 48.49"/><polyline class="cls4-6" points="71.23 48.49 79.95 48.49 79.95 101.02 71.23 101.02"/><polyline class="cls4-5" points="96.87 101.02 88.15 101.02 88.15 58.52 96.87 58.52"/><polyline class="cls4-6" points="91.47 58.52 100.19 58.52 100.19 101.02 91.47 101.02"/><line class="cls4-3" x1="1.25" y1="101.02" x2="106.13" y2="101.02"/></g></g></svg>