<svg xmlns="http://www.w3.org/2000/svg" viewBox="0 0 107.38 100.19"><defs><style>.cls-1,.cls-4{fill:#fff;}.cls-2,.cls-6{fill:#d7e1f3;}.cls-3,.cls-8{fill:none;}.cls-3,.cls-4,.cls-6,.cls-7{stroke:#000;}.cls-3,.cls-4,.cls-6,.cls-7,.cls-8{stroke-linecap:round;stroke-linejoin:round;stroke-width:2.5px;}.cls-5,.cls-7{fill:#f7b4c4;}.cls-8{stroke:#fff;}</style></defs><title>Asset 11</title><g id="Layer_2" data-name="Layer 2"><g id="Icons"><path class="cls-1" d="M1.25,93.54a5.4,5.4,0,0,0,5.4,5.4H44.94a5.4,5.4,0,0,0,5.4-5.4V91H1.25Z"/><path class="cls-1" d="M50.34,6.65a5.4,5.4,0,0,0-5.4-5.4H6.65a5.4,5.4,0,0,0-5.4,5.4v5.51H50.34Z"/><polygon class="cls-2" points="50.34 12.16 1.25 12.16 1.25 91.01 50.34 91.01 50.34 12.9 50.34 12.16"/><path class="cls-3" d="M50.34,93.54a5.4,5.4,0,0,1-5.4,5.4H6.65a5.4,5.4,0,0,1-5.4-5.4V6.65a5.4,5.4,0,0,1,5.4-5.4H44.94a5.4,5.4,0,0,1,5.4,5.4V12.9"/><line class="cls-4" x1="19.1" y1="7.7" x2="32.49" y2="7.7"/><path class="cls-1" d="M106.13,93.54a5.4,5.4,0,0,1-5.4,5.4H62.44a5.4,5.4,0,0,1-5.4-5.4V91h49.09Z"/><path class="cls-1" d="M57,6.65a5.4,5.4,0,0,1,5.4-5.4h38.29a5.4,5.4,0,0,1,5.4,5.4v5.51H57Z"/><polygon class="cls-5" points="57.04 12.16 106.13 12.16 106.13 91.01 57.04 91.01 57.04 12.9 57.04 12.16"/><path class="cls-3" d="M57,93.54a5.4,5.4,0,0,0,5.4,5.4h38.29a5.4,5.4,0,0,0,5.4-5.4V6.65a5.4,5.4,0,0,0-5.4-5.4H62.44A5.4,5.4,0,0,0,57,6.65V12.9"/><line class="cls-4" x1="88.28" y1="7.7" x2="74.89" y2="7.7"/><polyline class="cls-6" points="25.65 43.6 67.07 43.6 67.07 50.8 81.73 36.14 67.07 21.48 67.07 28.68 25.65 28.68"/><line class="cls-3" x1="43.92" y1="36.14" x2="25.65" y2="36.14"/><polyline class="cls-7" points="81.73 63.67 40.32 63.67 40.32 56.46 25.65 71.13 40.32 85.79 40.32 78.58 81.73 78.58"/><line class="cls-3" x1="63.47" y1="71.13" x2="81.73" y2="71.13"/><path class="cls-8" d="M15.64,27.37a3.32,3.32,0,1,0-3.31,3.32A3.32,3.32,0,0,0,15.64,27.37Z"/><path class="cls-8" d="M15.64,51a3.32,3.32,0,1,0-3.31,3.31A3.31,3.31,0,0,0,15.64,51Z"/><path class="cls-8" d="M15.64,74.7A3.32,3.32,0,1,0,12.33,78,3.31,3.31,0,0,0,15.64,74.7Z"/><path class="cls-8" d="M98.37,27.37a3.32,3.32,0,1,0-3.32,3.32A3.32,3.32,0,0,0,98.37,27.37Z"/><path class="cls-8" d="M98.37,51a3.32,3.32,0,1,0-3.32,3.31A3.31,3.31,0,0,0,98.37,51Z"/><path class="cls-8" d="M98.37,74.7A3.32,3.32,0,1,0,95.05,78,3.31,3.31,0,0,0,98.37,74.7Z"/></g></g></svg>