<svg xmlns="http://www.w3.org/2000/svg" viewbox="0 0 107.38 104.97"><defs>
<style>
.cls1-1{fill:#fff;}.cls1-1,.cls1-2,.cls1-5{stroke:#000;}.cls1-1,.cls1-2,.cls1-5,.cls1-6{stroke-linecap:round;stroke-linejoin:round;stroke-width:2.5px;}.cls1-2{fill:#005dde;}.cls1-3{fill:#f7b4c4;}.cls1-4{fill:#d7e1f3;}.cls1-5,.cls1-6{fill:none;}.cls1-6{stroke:#dcdddd;}
</style>
</defs><title>Asset 3</title><g id="Layer_2" data-name="Layer 2"><g id="Icons"><path class="cls1-1" d="M77.7,90.61A44.78,44.78,0,1,0,14.37,27.27"/><path class="cls1-2" d="M14.37,27.27A44.63,44.63,0,0,0,1.25,58.94H46Z"/><path class="cls1-1" d="M1.25,58.94A44.79,44.79,0,0,0,77.7,90.61L46,58.94Z"/><path class="cls1-3" d="M46,99.88a40.59,40.59,0,0,0,26.1-9.4l-27.7-27.7H5.27A41,41,0,0,0,46,99.88Z"/><path class="cls1-4" d="M19.93,27.4,77.58,85A40.94,40.94,0,0,0,19.93,27.4Z"/><polyline class="cls1-5" points="57.39 23.54 79.69 1.25 106.13 1.25"/><line class="cls1-5" x1="87.62" y1="8.81" x2="106.13" y2="8.81"/><line class="cls1-5" x1="87.62" y1="14.85" x2="106.13" y2="14.85"/><line class="cls1-5" x1="87.62" y1="20.9" x2="106.13" y2="20.9"/><path class="cls1-6" d="M17.17,10.46a2.9,2.9,0,1,0-2.9,2.89A2.9,2.9,0,0,0,17.17,10.46Z"/><path class="cls1-6" d="M97.24,93.18a2.9,2.9,0,1,0-2.89,2.9A2.89,2.89,0,0,0,97.24,93.18Z"/><line class="cls1-6" x1="92.78" y1="32.78" x2="100.3" y2="32.78"/><line class="cls1-6" x1="96.54" y1="29.02" x2="96.54" y2="36.54"/></g></g></svg>