<svg xmlns="http://www.w3.org/2000/svg" viewBox="0 0 107.38 107.38"><defs><style>.cls2-1,.cls2-6{fill:none;}.cls2-1{stroke:#dcdddd;}.cls2-1,.cls2-2,.cls2-3,.cls2-6,.cls2-7{stroke-linecap:round;stroke-linejoin:round;stroke-width:2.5px;}.cls2-2,.cls2-4{fill:#fff;}.cls2-2,.cls2-3,.cls2-6,.cls2-7{stroke:#000;}.cls2-3{fill:#d7e1f3;}.cls2-5{fill:#005dde;}.cls2-7{fill:#f7b4c4;}</style></defs><title>ggg</title><g id="Layer_2" data-name="Layer 2"><g id="Icons"><path class="cls2-1" d="M15.57,83.75H62.19a0,0,0,0,1,0,0V98a0,0,0,0,1,0,0H15.57a7.13,7.13,0,0,1-7.13-7.13v0a7.13,7.13,0,0,1,7.13-7.13Z"/><rect class="cls2-2" x="1.25" y="1.25" width="93.6" height="75.07"/><polyline class="cls2-3" points="1.25 14.18 1.25 1.25 94.85 1.25 94.85 14.18"/><polygon class="cls2-4" points="61.82 25.56 33.23 33.23 25.56 61.82 69.87 106.13 106.13 69.87 61.82 25.56"/><polygon class="cls2-5" points="56.84 30.55 33.23 33.23 25.56 61.82 69.87 106.13 101.15 74.86 56.84 30.55"/><polygon class="cls2-6" points="61.82 25.56 33.23 33.23 25.56 61.82 69.87 106.13 106.13 69.87 61.82 25.56"/><path d="M46.59,46.59a2.94,2.94,0,1,0-4.16,0A2.94,2.94,0,0,0,46.59,46.59Z"/><path class="cls2-7" d="M84,64.32a9,9,0,0,0-12.73,0l-.62.62-.63-.62A9,9,0,0,0,57.33,77.05l.62.63L70.69,90.41,83.42,77.68l.62-.63A9,9,0,0,0,84,64.32Z"/><circle cx="8.23" cy="8.23" r="1.81"/><path d="M16.51,8.23A1.81,1.81,0,1,0,14.7,10,1.81,1.81,0,0,0,16.51,8.23Z"/><path d="M23,8.23A1.81,1.81,0,1,0,21.16,10,1.81,1.81,0,0,0,23,8.23Z"/><line class="cls2-6" x1="10.09" y1="22.04" x2="43.27" y2="22.04"/><line class="cls2-6" x1="10.09" y1="30.66" x2="22.04" y2="30.66"/><line class="cls2-6" x1="10.09" y1="39.29" x2="22.04" y2="39.29"/></g></g></svg>