<svg width="9" height="9" viewBox="0 0 9 9" fill="none" xmlns="http://www.w3.org/2000/svg">
<g id="Group 316">
<path id="Vector" d="M4.52169 0.619629C2.18828 0.619629 0.306503 2.12504 0.306503 3.95262C0.306503 5.13889 1.08932 6.17763 2.26355 6.77077L1.86612 8.25513C1.85863 8.27738 1.85748 8.30125 1.86279 8.32412C1.86811 8.34699 1.87969 8.36792 1.89623 8.38458C1.92035 8.40585 1.95139 8.41762 1.98355 8.41769C2.01021 8.41555 2.03551 8.40502 2.0558 8.38759L3.76597 7.23445C4.01841 7.2693 4.27288 7.28738 4.52771 7.28863C6.85811 7.28863 8.7429 5.78322 8.7429 3.95262C8.7429 2.12203 6.85209 0.619629 4.52169 0.619629Z" fill="#392020"/>
<path id="Vector_2" d="M1.78169 3.42577H1.32103C1.26393 3.42743 1.20754 3.41281 1.15844 3.38362C1.13665 3.36996 1.1179 3.35193 1.1034 3.33069C1.08889 3.30945 1.07893 3.28544 1.07414 3.26016C1.07268 3.24414 1.07268 3.22804 1.07414 3.21201C1.07271 3.18203 1.07853 3.15213 1.09111 3.12487C1.10369 3.09762 1.12266 3.07381 1.1464 3.05544C1.19889 3.01743 1.26225 2.99735 1.32705 2.99822H2.71505C2.7726 2.9962 2.82938 3.01198 2.87764 3.04339C2.89995 3.05644 2.91909 3.07431 2.93367 3.09565C2.94825 3.117 2.9579 3.14131 2.96194 3.16684C2.96341 3.18186 2.96341 3.197 2.96194 3.21201C2.96336 3.24243 2.95755 3.27274 2.94499 3.30048C2.93243 3.32822 2.91348 3.35256 2.88968 3.37156C2.83847 3.40953 2.77573 3.42869 2.71204 3.42577H2.26644V5.00948C2.26825 5.04322 2.26302 5.07695 2.2511 5.10857C2.23918 5.14019 2.22082 5.16899 2.19719 5.19314C2.17452 5.21623 2.14728 5.23432 2.1172 5.24625C2.08713 5.25818 2.05488 5.26366 2.02256 5.26238C1.96601 5.264 1.91067 5.24593 1.86599 5.21122C1.82346 5.17732 1.7946 5.12919 1.7847 5.07571C1.78173 5.05373 1.78173 5.03146 1.7847 5.00948L1.78169 3.42577Z" fill="#FEE500"/>
<path id="Vector_3" d="M3.09484 3.11583C3.10808 3.06629 3.13918 3.02338 3.18215 2.99539C3.22794 2.96944 3.28012 2.95692 3.3327 2.95926H3.44711C3.5029 2.95726 3.55815 2.97082 3.60668 2.9984C3.65811 3.03299 3.69466 3.08565 3.70905 3.14593L4.31122 4.84707C4.32683 4.89145 4.3399 4.93671 4.35036 4.98258C4.35139 5.00163 4.35139 5.02071 4.35036 5.03977C4.35138 5.06911 4.34598 5.09833 4.33454 5.12537C4.3231 5.15241 4.30589 5.17663 4.28412 5.19634C4.26303 5.21796 4.2377 5.235 4.20973 5.2464C4.18176 5.25779 4.15173 5.26329 4.12154 5.26257C4.0751 5.26719 4.02846 5.25605 3.98913 5.23092C3.9498 5.2058 3.92008 5.16816 3.90475 5.12408L3.7783 4.75375H2.98645L2.85999 5.12408C2.84504 5.16903 2.81495 5.2074 2.77488 5.23265C2.7348 5.25791 2.6872 5.26847 2.6402 5.26257C2.58929 5.2639 2.53942 5.24798 2.49869 5.2174C2.45901 5.18584 2.43224 5.14089 2.42342 5.09097C2.42182 5.07394 2.42182 5.05679 2.42342 5.03977C2.41825 5.00988 2.41825 4.97935 2.42342 4.94946C2.42342 4.91635 2.44449 4.88019 2.45654 4.84707L3.09484 3.11583ZM3.39592 3.51027L3.10989 4.41353H3.67894L3.39592 3.51027Z" fill="#FEE500"/>
<path id="Vector_4" d="M4.41931 3.21217C4.41626 3.1446 4.44007 3.07858 4.48555 3.02852C4.50867 3.00519 4.53643 2.98697 4.56703 2.97504C4.59763 2.96311 4.63039 2.95772 4.66319 2.95924C4.71959 2.95858 4.77463 2.97658 4.81976 3.01043C4.86157 3.04575 4.88935 3.09488 4.89804 3.14892C4.901 3.16989 4.901 3.1912 4.89804 3.21217V4.79588H5.72602C5.78341 4.79513 5.83982 4.81077 5.88861 4.84102C5.91053 4.85453 5.92936 4.87253 5.94389 4.89379C5.95841 4.91506 5.9683 4.93913 5.97291 4.96447C5.97291 4.96447 5.97291 4.99459 5.97291 5.00964C5.97434 5.03962 5.96852 5.06949 5.95594 5.09675C5.94336 5.124 5.9244 5.14785 5.90065 5.16621C5.84816 5.20423 5.7848 5.22427 5.72 5.2234H4.70233C4.63752 5.22757 4.57309 5.2107 4.51867 5.17525C4.46999 5.13885 4.43756 5.08479 4.42835 5.02471C4.42614 4.99163 4.42614 4.95841 4.42835 4.92533L4.41931 3.21217Z" fill="#FEE500"/>
<path id="Vector_5" d="M6.02716 3.21196C6.02536 3.14459 6.04901 3.07901 6.0934 3.0283C6.13852 2.9873 6.19641 2.96308 6.25729 2.95979C6.31817 2.9565 6.37833 2.97432 6.42761 3.01022C6.47034 3.04523 6.49917 3.09433 6.5089 3.14871C6.51038 3.16976 6.51038 3.19091 6.5089 3.21196V3.9496L7.27064 3.07042C7.29999 3.04043 7.33116 3.0123 7.36398 2.98615C7.3949 2.96773 7.43036 2.95832 7.46635 2.95902C7.51897 2.95873 7.57043 2.97449 7.61388 3.00419C7.63435 3.01798 7.65183 3.03576 7.66528 3.05645C7.67873 3.07715 7.68787 3.10033 7.69216 3.12463C7.69338 3.13059 7.69338 3.13676 7.69216 3.14272C7.6907 3.14966 7.6907 3.15683 7.69216 3.16378C7.69206 3.19546 7.68376 3.22659 7.66807 3.25412C7.6521 3.28326 7.63291 3.3105 7.61087 3.33538L7.11107 3.88337L7.71324 4.81673V4.84683C7.7445 4.88997 7.76888 4.93774 7.7855 4.98837V5.0034C7.78898 5.03828 7.78395 5.0735 7.77084 5.10601C7.75773 5.13853 7.73693 5.16736 7.71023 5.19007C7.66 5.22803 7.59855 5.24818 7.5356 5.24729C7.49377 5.24902 7.45222 5.23964 7.41516 5.22017C7.37506 5.19328 7.34202 5.15714 7.31882 5.1148L6.7588 4.21154L6.49083 4.49157V4.99436C6.49264 5.06173 6.46898 5.1273 6.42459 5.17801C6.4008 5.20127 6.3725 5.21943 6.34143 5.23134C6.31036 5.24325 6.27719 5.24869 6.24394 5.24729C6.18839 5.24846 6.13414 5.23036 6.09039 5.1961C6.04786 5.1622 6.019 5.1141 6.0091 5.06062C6.00612 5.03864 6.00612 5.01634 6.0091 4.99436L6.02716 3.21196Z" fill="#FEE500"/>
</g>
</svg>
