<svg width="93" height="28" viewBox="0 0 93 28" fill="none" xmlns="http://www.w3.org/2000/svg">
<g id="Group 376">
<path id="Union" fill-rule="evenodd" clip-rule="evenodd" d="M20.8089 6.05423V8.71761L10.8416 2.63871L4.62351 6.1837L6.77828 7.60787L10.7677 5.25892L20.8089 11.5536V14.2416L10.7308 7.91613L8.88996 9.00121L20.8089 16.868V19.4759L20.7597 19.5622L0.283184 6.0419L10.8847 0L20.8089 6.05423ZM0 10.5363V7.9346L0.0554084 7.84829L20.5257 21.3686L9.93042 27.4105L0 21.3563V18.6929L9.96736 24.7718L16.1854 21.2268L14.0306 19.8026L10.0412 22.1516L0 15.8569V13.1689L10.0782 19.4944L11.919 18.4093L0 10.5363Z" fill="url(#paint0_linear_541_2028)"/>
<path id="Vector" d="M40.8299 21.6707H34.8088V25.0308H31.7737V21.6707H25.7465V18.9457H40.836V21.6707H40.8299ZM30.0129 16.9728C28.7755 17.5524 27.4641 17.8298 26.0912 17.8236V15.0431C27.0578 15.0431 27.9936 14.8089 28.8924 14.3403C29.7974 13.8717 30.5547 13.2182 31.1642 12.3736C31.7737 11.529 32.1554 10.5734 32.3093 9.51294L35.3136 9.95067C35.1967 10.746 34.9627 11.5351 34.618 12.3304L40.7806 15.3576L39.4016 17.8421L33.202 14.5746C32.3154 15.598 31.2565 16.3995 30.0129 16.979V16.9728Z" fill="#A6ACB8"/>
<path id="Vector_2" d="M58.1543 18.3353H43.0647V16.0604H58.1543V18.3353ZM55.6116 19.6794C56.8183 20.1479 57.4216 20.8939 57.4216 21.9173C57.4216 22.9407 56.8183 23.6867 55.6116 24.1553C54.405 24.6239 52.7365 24.852 50.6064 24.852C48.4763 24.852 46.8078 24.6177 45.6012 24.1553C44.3945 23.6867 43.7912 22.9407 43.7912 21.9173C43.7912 20.8939 44.3945 20.1479 45.6012 19.6794C46.8078 19.2108 48.4763 18.9765 50.6064 18.9765C52.7365 18.9765 54.405 19.2108 55.6116 19.6794ZM46.9248 12.9654H57.4216V15.2219H43.9759V9.66089H46.9248V12.9654ZM47.9222 21.3563C47.2696 21.4734 46.9433 21.6584 46.9433 21.9173C46.9433 22.4044 48.1684 22.651 50.6126 22.651C53.0567 22.651 54.2818 22.4044 54.2818 21.9173C54.2818 21.6584 53.9555 21.4734 53.3029 21.3563C52.6504 21.2392 51.7577 21.1837 50.6126 21.1837C49.4675 21.1837 48.5748 21.2392 47.9222 21.3563Z" fill="#A6ACB8"/>
<path id="Vector_3" d="M63.2332 18.0332C62.3467 18.5819 61.3863 18.884 60.352 18.9395V16.196C61.1092 16.1035 61.7865 15.7644 62.3775 15.1726C62.9685 14.5869 63.4364 13.8224 63.775 12.8791C64.1136 11.942 64.286 10.9186 64.2983 9.80884L67.2657 9.98147C67.2657 11.2145 67.0749 12.3797 66.687 13.4586L70.8611 16.7632L69.045 18.7731L65.5173 15.8323C64.877 16.7385 64.1136 17.4722 63.2271 18.0209L63.2332 18.0332ZM75.0906 22.0406V24.6793H61.5402V19.4512H64.5446V22.0406H75.0906ZM71.9324 14.3958H69.242V11.6831H71.9324V9.74103H74.8813V20.8076H71.9324V14.3896V14.3958Z" fill="#A6ACB8"/>
<path id="Vector_4" d="M82.0598 10.0986H84.7502V23.9827H77.9781V10.0986H80.6685V14.5067H82.066V10.0986H82.0598ZM82.0598 21.3255V17.1454H80.6623V21.3255H82.0598ZM92.5567 9.74719V24.6793H89.7986V18.0332H88.5611V24.4142H85.8399V9.81501H88.5611V15.2342H89.7986V9.74103H92.5567V9.74719Z" fill="#A6ACB8"/>
<path id="Vector_5" d="M28.6399 4.31564V5.19727H30.6408C30.7454 5.19727 30.7885 5.27741 30.7885 5.37606C30.7885 5.4747 30.7454 5.54868 30.6408 5.54868H26.2266C26.1219 5.54868 26.0788 5.46853 26.0788 5.37606C26.0788 5.27125 26.1219 5.19727 26.2266 5.19727H28.2336V4.31564C28.2336 4.1985 28.3382 4.14301 28.4367 4.14301C28.5414 4.14301 28.6461 4.19234 28.6461 4.31564H28.6399ZM28.6399 1.37484V1.88655H30.1051C30.2036 1.88655 30.2467 1.97286 30.2467 2.06534C30.2467 2.15782 30.2036 2.24413 30.1051 2.24413H28.6399V2.39826C28.6399 2.87915 28.7507 3.0641 29.194 3.31688C29.5572 3.52649 29.8527 3.69295 30.2837 3.90874C30.3699 3.95189 30.3822 4.06903 30.3268 4.14918C30.2775 4.24782 30.179 4.28481 30.0928 4.24166C29.7419 4.06903 29.3848 3.86558 29.0462 3.67446C28.6153 3.43402 28.4737 3.26755 28.4306 3.11342C28.3936 3.27372 28.2397 3.43401 27.8149 3.68062C27.4763 3.87174 27.1192 4.06903 26.7683 4.24782C26.676 4.29098 26.5836 4.24782 26.5344 4.15534C26.4851 4.06903 26.4913 3.95189 26.5775 3.90874C27.0084 3.68679 27.3039 3.52649 27.6672 3.31688C28.1104 3.0641 28.2213 2.87298 28.2213 2.39826V2.24413H26.756C26.6575 2.24413 26.6144 2.15782 26.6144 2.06534C26.6144 1.97286 26.6575 1.88655 26.756 1.88655H28.2213V1.37484C28.2213 1.2577 28.3259 1.20221 28.4306 1.20221C28.5352 1.20221 28.6399 1.2577 28.6399 1.37484Z" fill="#A6ACB8"/>
<path id="Vector_6" d="M35.0736 3.56349C35.0736 4.12452 34.5934 4.45128 33.7807 4.49444V5.19727H35.7816C35.8862 5.19727 35.9293 5.27742 35.9293 5.37606C35.9293 5.4747 35.8862 5.54869 35.7816 5.54869H31.3674C31.2627 5.54869 31.2196 5.46854 31.2196 5.37606C31.2196 5.27125 31.2627 5.19727 31.3674 5.19727H33.3744V4.49444C32.5556 4.45128 32.0754 4.12452 32.0754 3.56349C32.0754 2.9593 32.6356 2.63254 33.5775 2.63254C34.5195 2.63254 35.0797 2.9593 35.0797 3.56349H35.0736ZM33.7807 1.33785V1.81873H35.3876C35.4861 1.81873 35.5353 1.90505 35.5353 1.99753C35.5353 2.09 35.4922 2.17632 35.3876 2.17632H31.7614C31.6567 2.17632 31.6136 2.09 31.6136 1.99753C31.6136 1.90505 31.6567 1.81873 31.7614 1.81873H33.3621V1.33785C33.3621 1.22071 33.4667 1.16522 33.5714 1.16522C33.676 1.16522 33.7807 1.22071 33.7807 1.33785ZM32.4694 3.56349C32.4694 3.94573 32.8326 4.16768 33.5714 4.16768C34.3102 4.16768 34.6734 3.93957 34.6734 3.56349C34.6734 3.18741 34.3102 2.96546 33.5714 2.96546C32.8326 2.96546 32.4694 3.19358 32.4694 3.56349Z" fill="#A6ACB8"/>
<path id="Vector_7" d="M39.6418 4.98148C39.6541 5.08012 39.6048 5.16027 39.5186 5.16644C38.5274 5.25275 37.5485 5.27741 36.5019 5.27741C36.3973 5.27741 36.3542 5.19726 36.3542 5.10478C36.3542 5.01231 36.3973 4.93216 36.5019 4.93216C36.9206 4.93216 37.3392 4.93216 37.7702 4.91983V4.26015C37.1484 4.20466 36.8036 3.88407 36.8036 3.41552C36.8036 2.9038 37.2284 2.55855 37.9733 2.55855C38.7183 2.55855 39.1431 2.9038 39.1431 3.41552C39.1431 3.87791 38.7922 4.20466 38.1765 4.26015V4.9075C38.5951 4.889 39.0323 4.86434 39.4878 4.82118C39.574 4.82118 39.6294 4.87667 39.6418 4.98148ZM38.1827 1.42415V1.84339H39.3216C39.4263 1.84339 39.4694 1.92354 39.4694 2.01601C39.4694 2.12082 39.4263 2.1948 39.3216 2.1948H36.582C36.4773 2.1948 36.4342 2.11466 36.4342 2.01601C36.4342 1.91737 36.4773 1.84339 36.582 1.84339H37.764V1.42415C37.764 1.30701 37.8687 1.25153 37.9733 1.25153C38.078 1.25153 38.1827 1.30085 38.1827 1.42415ZM37.1853 3.41552C37.1853 3.71761 37.4439 3.93956 37.9733 3.93956C38.5028 3.93956 38.7614 3.71761 38.7614 3.41552C38.7614 3.11342 38.5028 2.89764 37.9733 2.89764C37.4439 2.89764 37.1853 3.11959 37.1853 3.41552ZM40.4052 1.40566V3.15041H41.0516C41.1563 3.15041 41.1993 3.23673 41.1993 3.3292C41.1993 3.43401 41.1563 3.51416 41.0516 3.51416H40.4052V5.90009C40.4052 6.01723 40.3067 6.07272 40.202 6.07272C40.0973 6.07272 39.9988 6.0234 39.9988 5.90009V1.40566C39.9988 1.28852 40.0973 1.23303 40.202 1.23303C40.3067 1.23303 40.4052 1.28235 40.4052 1.40566Z" fill="#A6ACB8"/>
<path id="Vector_8" d="M46.2722 1.43032V4.63006C46.2722 4.74104 46.1737 4.79652 46.0813 4.79652C45.9767 4.79652 45.8843 4.7472 45.8843 4.63006V2.99012H45.0963V3.64363C45.0963 3.93339 44.9978 4.01971 44.7084 4.01971H43.4648C43.1693 4.01971 43.077 3.92723 43.077 3.64363V1.97902C43.077 1.68926 43.1755 1.60294 43.4648 1.60294H44.7084C45.0039 1.60294 45.0963 1.69542 45.0963 1.97902V2.62637H45.8843V1.42415C45.8843 1.31318 45.9828 1.25769 46.0813 1.25769C46.1798 1.25769 46.2722 1.30701 46.2722 1.42415V1.43032ZM43.4648 2.06534V3.56348C43.4648 3.64363 43.5018 3.66829 43.5695 3.66829H44.5915C44.6715 3.66829 44.6961 3.63746 44.6961 3.56348V2.06534C44.6961 1.98519 44.6653 1.96053 44.5915 1.96053H43.5695C43.4956 1.96053 43.4648 1.98519 43.4648 2.06534ZM44.3452 4.75953V5.86927C44.3452 5.94325 44.376 5.97408 44.456 5.97408H47.2757C47.3804 5.97408 47.4234 6.06039 47.4234 6.15287C47.4234 6.24535 47.3804 6.33166 47.2757 6.33166H44.3206C44.0251 6.33166 43.9327 6.23918 43.9327 5.95558V4.75953C43.9327 4.64239 44.0374 4.58691 44.142 4.58691C44.2467 4.58691 44.3514 4.63623 44.3514 4.75953H44.3452ZM47.2695 1.40566V4.87051C47.2695 4.98148 47.171 5.0308 47.0725 5.0308C46.974 5.0308 46.8817 4.98764 46.8817 4.87051V1.39949C46.8817 1.28852 46.9802 1.23303 47.0725 1.23303C47.1772 1.23303 47.2695 1.28235 47.2695 1.39949V1.40566Z" fill="#A6ACB8"/>
<path id="Vector_9" d="M52.084 1.72621C52.084 1.82486 52.0409 1.90501 51.9424 1.90501H49.2397C49.1596 1.90501 49.135 1.92967 49.135 2.00981V2.70032H51.887C51.9855 2.70032 52.0286 2.78663 52.0286 2.87294C52.0286 2.97159 51.9855 3.04557 51.887 3.04557H49.135V3.74224C49.135 3.81622 49.1658 3.84705 49.2397 3.84705H52.047C52.1455 3.84705 52.1886 3.92719 52.1886 4.01967C52.1886 4.11215 52.1455 4.19846 52.047 4.19846H50.6187V5.19723H52.6196C52.7242 5.19723 52.7673 5.27738 52.7673 5.37602C52.7673 5.47466 52.7242 5.54864 52.6196 5.54864H48.2054C48.1007 5.54864 48.0576 5.4685 48.0576 5.37602C48.0576 5.27121 48.1007 5.19723 48.2054 5.19723H50.2124V4.19846H49.1227C48.8272 4.19846 48.7348 4.10599 48.7348 3.82239V1.93583C48.7348 1.64607 48.8333 1.55359 49.1227 1.55359H51.9485C52.047 1.55359 52.0901 1.63374 52.0901 1.72621H52.084Z" fill="#A6ACB8"/>
<path id="Vector_10" d="M56.258 1.76941C56.258 1.86805 56.2149 1.9482 56.1164 1.9482H55.0759V2.34894C55.0759 2.74967 55.2114 3.02094 55.5069 3.26755C55.7593 3.48333 56.0363 3.69912 56.221 3.82859C56.3195 3.8964 56.3195 4.00121 56.258 4.08752C56.2026 4.16767 56.0917 4.1985 55.9994 4.12452C55.827 4.00121 55.5992 3.82242 55.3406 3.6128C55.039 3.37236 54.9097 3.1874 54.8851 3.0641C54.8543 3.19357 54.7188 3.37853 54.4233 3.62513C54.1709 3.84092 53.9062 4.04437 53.6722 4.20466C53.5737 4.27248 53.4752 4.24165 53.4198 4.16767C53.3583 4.08136 53.3459 3.97039 53.4506 3.90257C53.6969 3.72378 53.9985 3.4895 54.2509 3.27372C54.5465 3.02711 54.6819 2.75584 54.6819 2.3551V1.9482H53.6107C53.5122 1.9482 53.4691 1.86188 53.4691 1.76941C53.4691 1.6646 53.5122 1.59061 53.6107 1.59061H56.141C56.2395 1.59061 56.2826 1.67076 56.2826 1.76941H56.258ZM54.608 4.75337V5.8631C54.608 5.93709 54.6388 5.96791 54.7127 5.96791H57.3908C57.4954 5.96791 57.5385 6.05423 57.5385 6.1467C57.5385 6.23918 57.4954 6.3255 57.3908 6.3255H54.5772C54.2817 6.3255 54.1894 6.23302 54.1894 5.94942V4.75337C54.1894 4.63623 54.294 4.58074 54.3987 4.58074C54.5034 4.58074 54.608 4.63006 54.608 4.75337ZM57.3908 1.40566V4.85201C57.3908 4.96915 57.2861 5.02464 57.1876 5.02464C57.0768 5.02464 56.9783 4.97531 56.9783 4.85201V1.40566C56.9783 1.28852 57.0829 1.23303 57.1876 1.23303C57.2861 1.23303 57.3908 1.28235 57.3908 1.40566Z" fill="#A6ACB8"/>
<path id="Vector_11" d="M63.7689 1.59676C63.7689 1.6954 63.7258 1.76939 63.6273 1.76939H60.9553C60.8753 1.76939 60.8445 1.79405 60.8445 1.87419V2.74965C60.8445 2.8298 60.8753 2.85446 60.9553 2.85446H63.6827C63.7812 2.85446 63.8243 2.93461 63.8243 3.02709C63.8243 3.11957 63.7812 3.19971 63.6827 3.19971H62.3098V3.87789H64.3229C64.4214 3.87789 64.4645 3.95804 64.4645 4.05051C64.4645 4.14299 64.4214 4.22314 64.3229 4.22314H59.8964C59.7979 4.22314 59.7548 4.14299 59.7548 4.05051C59.7548 3.95804 59.7979 3.87789 59.8964 3.87789H61.9034V3.19971H60.8261C60.5305 3.19971 60.4382 3.10724 60.4382 2.81747V1.79405C60.4382 1.50428 60.5367 1.41797 60.8261 1.41797H63.6273C63.7258 1.41797 63.7689 1.49812 63.7689 1.59059V1.59676ZM63.7935 5.14176V6.30081C63.7935 6.41795 63.695 6.47344 63.5903 6.47344C63.4857 6.47344 63.3872 6.42412 63.3872 6.30081V5.21574C63.3872 5.13559 63.3502 5.11093 63.2825 5.11093H60.4998C60.4074 5.11093 60.3643 5.03078 60.3643 4.9383C60.3643 4.84583 60.4074 4.76568 60.4998 4.76568H63.4056C63.7011 4.76568 63.7935 4.85816 63.7935 5.14792V5.14176Z" fill="#A6ACB8"/>
<path id="Vector_12" d="M66.6379 1.35018V1.80024H67.7646C67.8692 1.80024 67.9123 1.88039 67.9123 1.97286C67.9123 2.06534 67.8692 2.15165 67.7646 2.15165H65.0434C64.9387 2.15165 64.8956 2.06534 64.8956 1.97286C64.8956 1.88039 64.9387 1.80024 65.0434 1.80024H66.2254V1.35018C66.2254 1.23304 66.3301 1.17755 66.4348 1.17755C66.5394 1.17755 66.6441 1.22687 66.6441 1.35018H66.6379ZM67.5983 3.40319C67.5983 3.9334 67.1612 4.28482 66.4286 4.28482C65.696 4.28482 65.2589 3.9334 65.2589 3.40319C65.2589 2.87298 65.696 2.52157 66.4286 2.52157C67.1612 2.52157 67.5983 2.87298 67.5983 3.40319ZM68.8481 5.14178V6.28234C68.8481 6.39948 68.7496 6.45497 68.6449 6.45497C68.5341 6.45497 68.4418 6.40565 68.4418 6.28234V5.21576C68.4418 5.14178 68.4048 5.11095 68.3371 5.11095H65.7452C65.6467 5.11095 65.6036 5.03081 65.6036 4.93833C65.6036 4.83352 65.6467 4.75954 65.7452 4.75954H68.4602C68.7557 4.75954 68.8481 4.85202 68.8481 5.13562V5.14178ZM65.6406 3.40319C65.6406 3.72995 65.9238 3.9519 66.4286 3.9519C66.9334 3.9519 67.2166 3.72995 67.2166 3.40319C67.2166 3.07644 66.9334 2.85449 66.4286 2.85449C65.9238 2.85449 65.6406 3.07644 65.6406 3.40319ZM68.8481 1.40566V2.60171H69.5684C69.6731 2.60171 69.7162 2.68803 69.7162 2.78667C69.7162 2.88531 69.6731 2.96546 69.5684 2.96546H68.8481V4.30331C68.8481 4.42045 68.7496 4.47594 68.6449 4.47594C68.5341 4.47594 68.4418 4.42662 68.4418 4.30331V1.40566C68.4418 1.28853 68.5403 1.23304 68.6449 1.23304C68.7496 1.23304 68.8481 1.28236 68.8481 1.40566Z" fill="#A6ACB8"/>
<path id="Vector_13" d="M73.9396 1.86188C73.9396 1.96053 73.8965 2.04067 73.7918 2.04067H72.9545V2.68802C72.9545 3.17507 73.0469 3.42168 73.3178 3.74844C73.5332 4.00738 73.7549 4.23549 73.9149 4.40811C73.9827 4.4821 73.9765 4.59307 73.8965 4.66705C73.8288 4.73487 73.7241 4.75337 73.6441 4.66705C73.5332 4.54991 73.3239 4.32797 73.1269 4.09369C72.856 3.78543 72.776 3.62513 72.7575 3.50183C72.7329 3.6313 72.6529 3.79776 72.382 4.10602C72.185 4.3403 71.9757 4.55608 71.7786 4.75337C71.6925 4.83968 71.5816 4.80885 71.5201 4.75337C71.4462 4.67938 71.4277 4.56841 71.5078 4.48826C71.7356 4.25398 71.9757 4.00121 72.1911 3.74227C72.462 3.42168 72.5544 3.16891 72.5544 2.68186V2.03451H71.674C71.5755 2.03451 71.5324 1.9482 71.5324 1.85572C71.5324 1.76324 71.5755 1.67693 71.674 1.67693H73.798C73.9026 1.67693 73.9457 1.75707 73.9457 1.85572L73.9396 1.86188ZM75.8111 1.40566V5.91859C75.8111 6.02956 75.7126 6.08505 75.6141 6.08505C75.5156 6.08505 75.4233 6.03573 75.4233 5.91859V3.37236H74.6722V5.67815C74.6722 5.78912 74.5737 5.84461 74.4752 5.84461C74.3767 5.84461 74.2843 5.79529 74.2843 5.67815V1.45498C74.2843 1.34401 74.3828 1.28852 74.4752 1.28852C74.5799 1.28852 74.6722 1.33784 74.6722 1.45498V3.00861H75.4233V1.39949C75.4233 1.28852 75.5218 1.23303 75.6141 1.23303C75.7065 1.23303 75.8111 1.28235 75.8111 1.39949V1.40566Z" fill="#A6ACB8"/>
<path id="Vector_14" d="M81.3027 4.42666C81.3027 4.5253 81.2596 4.59928 81.155 4.59928H79.1541V6.30088C79.1541 6.41802 79.0494 6.47351 78.9448 6.47351C78.8401 6.47351 78.7416 6.42418 78.7416 6.30088V4.59928H76.7346C76.6299 4.59928 76.5869 4.51913 76.5869 4.42666C76.5869 4.32185 76.6299 4.24787 76.7346 4.24787H81.1488C81.2535 4.24787 81.2966 4.32801 81.2966 4.42666H81.3027ZM79.1541 1.54134V1.89276C79.1541 2.29966 79.3511 2.55243 79.7328 2.74972C80.1576 2.97167 80.5024 3.13813 80.8225 3.29226C80.9272 3.33542 80.9333 3.46488 80.8902 3.53887C80.8471 3.63134 80.761 3.68683 80.6501 3.63751C80.2807 3.46488 79.936 3.29226 79.5789 3.10114C79.1603 2.87919 78.9879 2.67574 78.9509 2.52777C78.914 2.6819 78.7416 2.88535 78.323 3.1073C77.9659 3.29842 77.6088 3.47721 77.2518 3.64368C77.1471 3.693 77.0486 3.63135 77.0116 3.54503C76.9747 3.45872 76.9747 3.33542 77.0794 3.29226C77.3995 3.13813 77.7443 2.97167 78.1691 2.74972C78.5508 2.55243 78.7478 2.29966 78.7478 1.89276V1.54134C78.7478 1.4242 78.8524 1.36871 78.9571 1.36871C79.0618 1.36871 79.1664 1.4242 79.1664 1.54134H79.1541Z" fill="#A6ACB8"/>
<path id="Vector_15" d="M86.1355 1.76941C86.1355 1.86805 86.0924 1.9482 85.9939 1.9482H84.9719V2.39209C84.9719 2.79283 85.1012 3.05793 85.3967 3.31071C85.6491 3.52032 85.9139 3.72378 86.0986 3.86558C86.1909 3.93339 86.1971 4.0382 86.1355 4.12452C86.0801 4.20466 85.9693 4.22932 85.8769 4.16151C85.7046 4.02587 85.4891 3.85941 85.2305 3.64979C84.9288 3.40935 84.8057 3.22439 84.7811 3.09493C84.7503 3.23056 84.621 3.41552 84.3255 3.66212C84.0731 3.87791 83.8145 4.06903 83.5867 4.24165C83.4882 4.30947 83.3897 4.27248 83.3343 4.1985C83.2727 4.11835 83.2666 4.00738 83.3651 3.93339C83.6113 3.7546 83.9007 3.53266 84.1593 3.31687C84.4548 3.07026 84.5841 2.799 84.5841 2.39826V1.95436H83.5251C83.4266 1.95436 83.3836 1.86805 83.3836 1.77557C83.3836 1.67076 83.4266 1.59678 83.5251 1.59678H86.0185C86.117 1.59678 86.1601 1.67693 86.1601 1.77557L86.1355 1.76941ZM84.5656 4.75337V5.8631C84.5656 5.93709 84.5964 5.96791 84.6764 5.96791H87.373C87.4776 5.96791 87.5207 6.05423 87.5207 6.1467C87.5207 6.23918 87.4776 6.3255 87.373 6.3255H84.5348C84.2393 6.3255 84.147 6.23302 84.147 5.94942V4.75337C84.147 4.63623 84.2516 4.58074 84.3563 4.58074C84.4609 4.58074 84.5656 4.63006 84.5656 4.75337ZM87.373 1.40566V4.85201C87.373 4.96915 87.2683 5.02464 87.1698 5.02464C87.0651 5.02464 86.9666 4.97531 86.9666 4.85201V3.02094H86.0001C85.9016 3.02094 85.8585 2.9408 85.8585 2.84215C85.8585 2.74351 85.9016 2.66336 86.0001 2.66336H86.9666V1.40566C86.9666 1.28852 87.0651 1.23303 87.1698 1.23303C87.2745 1.23303 87.373 1.28235 87.373 1.40566Z" fill="#A6ACB8"/>
<path id="Vector_16" d="M93 4.07523C93 4.17388 92.9569 4.24786 92.8584 4.24786H90.9068V5.16031C90.9068 5.27128 90.8144 5.3206 90.7036 5.3206C90.599 5.3206 90.5005 5.27745 90.5005 5.16031V4.24786H88.4319C88.3334 4.24786 88.2903 4.16771 88.2903 4.07523C88.2903 3.98275 88.3334 3.90261 88.4319 3.90261H92.8584C92.9569 3.90261 93 3.98275 93 4.07523ZM89.3738 4.96919V5.8878C89.3738 5.96795 89.4046 5.99878 89.4785 5.99878H92.2797C92.3782 5.99878 92.4213 6.07892 92.4213 6.1714C92.4213 6.26388 92.3782 6.34403 92.2797 6.34403H89.3492C89.0537 6.34403 88.9613 6.25155 88.9613 5.96795V4.96919C88.9613 4.85205 89.0598 4.79656 89.1707 4.79656C89.2753 4.79656 89.3738 4.84588 89.3738 4.96919ZM92.3166 1.82493V2.91617C92.3166 3.20594 92.2181 3.29842 91.9288 3.29842H89.3677C89.0722 3.29842 88.9798 3.20594 88.9798 2.91617V1.82493C88.9798 1.53517 89.0783 1.44885 89.3677 1.44885H91.9288C92.2243 1.44885 92.3166 1.54133 92.3166 1.82493ZM89.38 1.89891V2.84219C89.38 2.92234 89.4108 2.94083 89.4846 2.94083H91.7995C91.8795 2.94083 91.9041 2.91617 91.9041 2.84219V1.89891C91.9041 1.81877 91.8734 1.7941 91.7995 1.7941H89.4846C89.4046 1.7941 89.38 1.81877 89.38 1.89891Z" fill="#A6ACB8"/>
</g>
<defs>
<linearGradient id="paint0_linear_541_2028" x1="0" y1="0" x2="21.0147" y2="27.4105" gradientUnits="userSpaceOnUse">
<stop stop-color="#A6ACB8"/>
<stop offset="1" stop-color="#D2D5DB"/>
<stop offset="1" stop-color="#D2D5DB"/>
</linearGradient>
</defs>
</svg>
