<svg xmlns="http://www.w3.org/2000/svg" viewBox="0 0 135.86 39.93"><defs><style>.logo-2{fill:#fff;}</style></defs><g id="레이어_2" data-name="레이어 2"><g id="레이어_1-2" data-name="레이어 1"><polygon class="logo-2" points="30.36 12.7 30.36 8.82 15.88 0 0.41 8.8 30.29 28.5 30.36 28.38 30.36 24.58 12.97 13.11 15.65 11.54 30.36 20.75 30.36 16.84 15.71 7.66 9.89 11.08 6.75 9.01 15.82 3.84 30.36 12.7"/><polygon class="logo-2" points="0 11.56 0 15.36 17.39 26.82 14.71 28.4 0 19.19 0 23.1 14.65 32.28 20.47 28.85 23.61 30.93 14.54 36.09 0 27.24 0 31.12 14.49 39.93 29.95 31.13 0.08 11.44 0 11.56"/><path class="logo-2" d="M59.57,31.58H50.78v4.89H46.35V31.58H37.56v-4h22ZM43.79,24.73A13,13,0,0,1,38.07,26v-4a8.82,8.82,0,0,0,4.09-1,9.42,9.42,0,0,0,5-7l4.38.64a13.36,13.36,0,0,1-1,3.46l9,4.41-2,3.62-9-4.77A13.6,13.6,0,0,1,43.79,24.73Z"/><path class="logo-2" d="M84.84,26.71h-22V23.4h22Zm-3.7,2c1.76.68,2.63,1.77,2.63,3.26s-.87,2.58-2.63,3.26a20.88,20.88,0,0,1-7.3,1,20.88,20.88,0,0,1-7.3-1c-1.76-.68-2.64-1.76-2.64-3.26s.88-2.58,2.64-3.26a20.88,20.88,0,0,1,7.3-1A20.88,20.88,0,0,1,81.14,28.67ZM68.46,18.89H83.77v3.28H64.16v-8.1h4.3Zm1.46,12.23c-1,.17-1.43.44-1.43.81,0,.72,1.78,1.07,5.35,1.07s5.35-.35,5.35-1.07c0-.37-.48-.64-1.43-.81a23.37,23.37,0,0,0-3.92-.26A23.29,23.29,0,0,0,69.92,31.12Z"/><path class="logo-2" d="M92.26,26.28a8.87,8.87,0,0,1-4.21,1.32v-4a5,5,0,0,0,3-1.49,9,9,0,0,0,2-3.34,13.6,13.6,0,0,0,.76-4.47l4.33.26a15.07,15.07,0,0,1-.84,5.07l6.09,4.81-2.65,2.93-5.15-4.28A11.34,11.34,0,0,1,92.26,26.28Zm17.3,5.83V36H89.79V28.34h4.38v3.77ZM104.94,21H101V17h3.92V14.2h4.31V30.33h-4.31Z"/><path class="logo-2" d="M119.72,14.71h3.92V34.94h-9.88V14.71h3.92v6.42h2Zm0,16.36V25h-2v6.09ZM135,14.2V36h-4V26.28H129.2v9.3h-4V14.3h4v7.9H131v-8Z"/><path class="logo-2" d="M44.61,7.9v.47h-6.5V7.9ZM41.35,4.85c-.06.16-.35.42-.91.79s-1.09.69-1.65,1l-.3-.43a17.13,17.13,0,0,0,1.64-1c.76-.52.94-.76.94-1.6V2.8h.57v.85c0,.84.17,1.08.93,1.6a18,18,0,0,0,1.62.94l-.29.43c-.55-.3-1.17-.68-1.64-1a2.65,2.65,0,0,1-.9-.78Z"/><path class="logo-2" d="M50.46,3.45h-.78V7c.37,0,.72,0,1-.09l0,.46a22.49,22.49,0,0,1-2.63.13H46.33V7h.83V3.45H46.4V3h4.06ZM49.14,7V3.45H47.69V7h1.45Zm2.67-2.05H53v.49H51.81V9.37h-.55V2.3h.55Z"/><path class="logo-2" d="M61,7.9v.47H54.5V7.9Zm-1-5V5H56V6.15h4.19v.47H55.46V4.52h4V3.35h-4V2.88Z"/><path class="logo-2" d="M66.33,2.87v.49H63.65V4.94h2.52v.49H63.65V7.07h1A15,15,0,0,0,67,6.9l.07.49a16.89,16.89,0,0,1-2.55.17H63.1V2.87ZM68.19,5h1.18v.49H68.19V9.37h-.55V2.3h.55Z"/><path class="logo-2" d="M73.1,4.61c0,.13-.26.37-.6.69s-.75.65-1.17,1L71,5.9a12.16,12.16,0,0,0,1.27-1.07,1.42,1.42,0,0,0,.54-1.27v-1h.56v1a1.26,1.26,0,0,0,.56,1.22c.38.33.81.66,1.14.91l-.32.38c-.41-.31-.77-.6-1-.82a2.32,2.32,0,0,1-.6-.63Zm-.94,2.2h4.55V9.43h-.55V7.29h-4Zm4.55-.42h-.55V2.3h.55Z"/><path class="logo-2" d="M87.68,3.05h-4V4.51h4V5h-2v.9h3v.47H82.19V5.88h3V5h-2V2.59h4.51ZM83,7.16h4.74V9.43h-.54V7.63H83Z"/><path class="logo-2" d="M92.77,3.1h1.77v.47H90.47V3.1h1.75V2.2h.55ZM90.88,5.39V5.11c0-.64.62-1.19,1.61-1.19s1.62.55,1.62,1.19v.28c0,.63-.63,1.18-1.62,1.18S90.88,6,90.88,5.39Zm.52-.26v.23c0,.41.44.75,1.09.75s1.1-.34,1.1-.75V5.13c0-.41-.45-.75-1.1-.75S91.4,4.72,91.4,5.13Zm.11,2h4.43V9.43H95.4V7.59H91.51Zm4.43-2.88H97v.48H95.94v2H95.4V2.3h.54Z"/><path class="logo-2" d="M101.88,3H105v.48h-1.25V4.53A1.89,1.89,0,0,0,104.2,6a12.35,12.35,0,0,0,1.06,1.16l-.36.35c-.34-.34-.75-.82-1-1.11a2.35,2.35,0,0,1-.42-.59h0a2,2,0,0,1-.39.58,15.59,15.59,0,0,1-1.13,1.21l-.36-.36A12.9,12.9,0,0,0,102.73,6a2,2,0,0,0,.45-1.48V3.48h-1.3Zm4.33,1.92h1V2.3h.54V9.37h-.54v-4h-1V9h-.54V2.45h.54Z"/><path class="logo-2" d="M116.37,6.36v.47h-3V9.37h-.55V6.83h-3V6.36Zm-3.25-2.15h0a2.15,2.15,0,0,1-.9.66c-.42.21-1,.49-1.65.73l-.24-.43A18,18,0,0,0,112,4.41a1.17,1.17,0,0,0,.81-1.24V2.55h.55v.62a1.16,1.16,0,0,0,.8,1.24,15.56,15.56,0,0,0,1.7.75l-.23.43c-.63-.25-1.22-.52-1.64-.73A2,2,0,0,1,113.12,4.21Z"/><path class="logo-2" d="M123.44,5a2.6,2.6,0,0,1-.61.65c-.27.24-.8.66-1.15.92l-.33-.39a13,13,0,0,0,1.33-1.08A1.27,1.27,0,0,0,123.14,4V3.24h-1.59V2.76h3.66v.48h-1.52V4a1.16,1.16,0,0,0,.56,1.1c.25.21.68.53,1.12.83l-.32.38c-.32-.22-.68-.49-.91-.68a3.28,3.28,0,0,1-.7-.65Zm-.18,3.82h4v.48h-4.51V6.94h.55Zm3.24-4.63V2.3H127V7.35h-.54V4.66H125V4.18Z"/><path class="logo-2" d="M135.86,5.91v.46H133V7.86h-.55V6.37h-3V5.91Zm-5,2.9H135v.48h-4.72V7.18h.55Zm4-6.2V5.1h-4.55V2.61Zm-4,2h3.48V3.07h-3.48Z"/></g></g></svg>